<svg xmlns="http://www.w3.org/2000/svg" xmlns:xlink="http://www.w3.org/1999/xlink" width="500" zoomAndPan="magnify" viewBox="0 0 375 89.999999" height="120" preserveAspectRatio="xMidYMid meet" version="1.0"><defs><g><g id="id1"/></g></defs><g fill="rgb(3.529358%, 32.159424%, 33.729553%)" fill-opacity="1"><g transform="translate(27.220894, 58.609801)"><g><path d="M 13.671875 -27.21875 C 11.992188 -27.21875 10.410156 -26.84375 8.921875 -26.09375 C 7.441406 -25.351562 6.148438 -24.347656 5.046875 -23.078125 C 3.941406 -21.804688 3.0625 -20.316406 2.40625 -18.609375 C 1.757812 -16.910156 1.4375 -15.117188 1.4375 -13.234375 C 1.4375 -11.347656 1.765625 -9.550781 2.421875 -7.84375 C 3.085938 -6.144531 3.976562 -4.65625 5.09375 -3.375 C 6.21875 -2.101562 7.507812 -1.097656 8.96875 -0.359375 C 10.425781 0.378906 11.953125 0.75 13.546875 0.75 C 14.828125 0.75 16.03125 0.582031 17.15625 0.25 C 18.289062 -0.0703125 19.285156 -0.578125 20.140625 -1.265625 C 21.003906 -1.960938 21.679688 -2.847656 22.171875 -3.921875 C 22.671875 -5.003906 22.921875 -6.285156 22.921875 -7.765625 L 22.921875 -9.125 L 26.390625 -9.125 L 26.390625 -9.765625 L 14.546875 -9.765625 L 14.546875 -9.125 L 18.8125 -9.125 L 18.8125 -5.375 C 18.8125 -4.738281 18.742188 -4.101562 18.609375 -3.46875 C 18.484375 -2.832031 18.234375 -2.253906 17.859375 -1.734375 C 17.484375 -1.210938 16.957031 -0.785156 16.28125 -0.453125 C 15.601562 -0.117188 14.71875 0.046875 13.625 0.046875 C 11.320312 0.046875 9.53125 -0.867188 8.25 -2.703125 C 6.976562 -4.535156 6.34375 -7.257812 6.34375 -10.875 L 6.34375 -15.78125 C 6.34375 -17.664062 6.519531 -19.285156 6.875 -20.640625 C 7.226562 -22.003906 7.726562 -23.113281 8.375 -23.96875 C 9.03125 -24.832031 9.800781 -25.46875 10.6875 -25.875 C 11.582031 -26.289062 12.578125 -26.5 13.671875 -26.5 C 15.609375 -26.5 17.269531 -25.9375 18.65625 -24.8125 C 20.039062 -23.6875 21.15625 -21.765625 22 -19.046875 C 22.082031 -18.804688 22.203125 -18.6875 22.359375 -18.6875 C 22.515625 -18.6875 22.59375 -18.804688 22.59375 -19.046875 L 22.59375 -26.59375 C 22.59375 -26.882812 22.488281 -27.03125 22.28125 -27.03125 C 22.144531 -27.03125 22.039062 -27 21.96875 -26.9375 C 21.90625 -26.882812 21.820312 -26.804688 21.71875 -26.703125 L 20.015625 -24.984375 C 19.242188 -25.679688 18.304688 -26.226562 17.203125 -26.625 C 16.097656 -27.019531 14.921875 -27.21875 13.671875 -27.21875 Z M 13.671875 -27.21875 "/></g></g></g><g fill="rgb(3.529358%, 32.159424%, 33.729553%)" fill-opacity="1"><g transform="translate(53.890183, 58.609801)"><g><path d="M 9.046875 0.5625 C 10.242188 0.5625 11.328125 0.289062 12.296875 -0.25 C 13.265625 -0.800781 14.085938 -1.488281 14.765625 -2.3125 C 15.441406 -3.132812 15.96875 -4.035156 16.34375 -5.015625 C 16.71875 -6.003906 16.90625 -6.9375 16.90625 -7.8125 C 16.90625 -8.6875 16.71875 -9.613281 16.34375 -10.59375 C 15.96875 -11.582031 15.441406 -12.488281 14.765625 -13.3125 C 14.085938 -14.132812 13.265625 -14.816406 12.296875 -15.359375 C 11.328125 -15.910156 10.242188 -16.1875 9.046875 -16.1875 C 7.847656 -16.1875 6.765625 -15.910156 5.796875 -15.359375 C 4.828125 -14.816406 3.992188 -14.132812 3.296875 -13.3125 C 2.609375 -12.488281 2.078125 -11.582031 1.703125 -10.59375 C 1.335938 -9.613281 1.15625 -8.6875 1.15625 -7.8125 C 1.15625 -6.9375 1.335938 -6.003906 1.703125 -5.015625 C 2.078125 -4.035156 2.609375 -3.132812 3.296875 -2.3125 C 3.992188 -1.488281 4.828125 -0.800781 5.796875 -0.25 C 6.765625 0.289062 7.847656 0.5625 9.046875 0.5625 Z M 5.296875 -8.6875 C 5.296875 -9.800781 5.34375 -10.785156 5.4375 -11.640625 C 5.53125 -12.492188 5.707031 -13.210938 5.96875 -13.796875 C 6.238281 -14.378906 6.617188 -14.816406 7.109375 -15.109375 C 7.609375 -15.398438 8.253906 -15.546875 9.046875 -15.546875 C 9.847656 -15.546875 10.492188 -15.398438 10.984375 -15.109375 C 11.472656 -14.816406 11.84375 -14.378906 12.09375 -13.796875 C 12.34375 -13.210938 12.515625 -12.492188 12.609375 -11.640625 C 12.703125 -10.785156 12.75 -9.800781 12.75 -8.6875 L 12.75 -6.96875 C 12.75 -5.78125 12.703125 -4.753906 12.609375 -3.890625 C 12.515625 -3.023438 12.34375 -2.3125 12.09375 -1.75 C 11.84375 -1.195312 11.472656 -0.78125 10.984375 -0.5 C 10.492188 -0.21875 9.847656 -0.078125 9.046875 -0.078125 C 8.253906 -0.078125 7.609375 -0.21875 7.109375 -0.5 C 6.617188 -0.78125 6.238281 -1.195312 5.96875 -1.75 C 5.707031 -2.3125 5.53125 -3.023438 5.4375 -3.890625 C 5.34375 -4.753906 5.296875 -5.78125 5.296875 -6.96875 Z M 5.296875 -8.6875 "/></g></g></g><g fill="rgb(3.529358%, 32.159424%, 33.729553%)" fill-opacity="1"><g transform="translate(71.709566, 58.609801)"><g><path d="M 9.046875 0.5625 C 10.242188 0.5625 11.328125 0.289062 12.296875 -0.25 C 13.265625 -0.800781 14.085938 -1.488281 14.765625 -2.3125 C 15.441406 -3.132812 15.96875 -4.035156 16.34375 -5.015625 C 16.71875 -6.003906 16.90625 -6.9375 16.90625 -7.8125 C 16.90625 -8.6875 16.71875 -9.613281 16.34375 -10.59375 C 15.96875 -11.582031 15.441406 -12.488281 14.765625 -13.3125 C 14.085938 -14.132812 13.265625 -14.816406 12.296875 -15.359375 C 11.328125 -15.910156 10.242188 -16.1875 9.046875 -16.1875 C 7.847656 -16.1875 6.765625 -15.910156 5.796875 -15.359375 C 4.828125 -14.816406 3.992188 -14.132812 3.296875 -13.3125 C 2.609375 -12.488281 2.078125 -11.582031 1.703125 -10.59375 C 1.335938 -9.613281 1.15625 -8.6875 1.15625 -7.8125 C 1.15625 -6.9375 1.335938 -6.003906 1.703125 -5.015625 C 2.078125 -4.035156 2.609375 -3.132812 3.296875 -2.3125 C 3.992188 -1.488281 4.828125 -0.800781 5.796875 -0.25 C 6.765625 0.289062 7.847656 0.5625 9.046875 0.5625 Z M 5.296875 -8.6875 C 5.296875 -9.800781 5.34375 -10.785156 5.4375 -11.640625 C 5.53125 -12.492188 5.707031 -13.210938 5.96875 -13.796875 C 6.238281 -14.378906 6.617188 -14.816406 7.109375 -15.109375 C 7.609375 -15.398438 8.253906 -15.546875 9.046875 -15.546875 C 9.847656 -15.546875 10.492188 -15.398438 10.984375 -15.109375 C 11.472656 -14.816406 11.84375 -14.378906 12.09375 -13.796875 C 12.34375 -13.210938 12.515625 -12.492188 12.609375 -11.640625 C 12.703125 -10.785156 12.75 -9.800781 12.75 -8.6875 L 12.75 -6.96875 C 12.75 -5.78125 12.703125 -4.753906 12.609375 -3.890625 C 12.515625 -3.023438 12.34375 -2.3125 12.09375 -1.75 C 11.84375 -1.195312 11.472656 -0.78125 10.984375 -0.5 C 10.492188 -0.21875 9.847656 -0.078125 9.046875 -0.078125 C 8.253906 -0.078125 7.609375 -0.21875 7.109375 -0.5 C 6.617188 -0.78125 6.238281 -1.195312 5.96875 -1.75 C 5.707031 -2.3125 5.53125 -3.023438 5.4375 -3.890625 C 5.34375 -4.753906 5.296875 -5.78125 5.296875 -6.96875 Z M 5.296875 -8.6875 "/></g></g></g><g fill="rgb(3.529358%, 32.159424%, 33.729553%)" fill-opacity="1"><g transform="translate(89.528949, 58.609801)"><g><path d="M 10.203125 -26.140625 L 13.234375 -26.140625 L 13.234375 -14.03125 C 12.253906 -15.46875 10.804688 -16.1875 8.890625 -16.1875 C 7.929688 -16.1875 7 -15.945312 6.09375 -15.46875 C 5.195312 -14.988281 4.398438 -14.351562 3.703125 -13.5625 C 3.015625 -12.78125 2.457031 -11.890625 2.03125 -10.890625 C 1.601562 -9.898438 1.390625 -8.890625 1.390625 -7.859375 C 1.390625 -6.734375 1.625 -5.660156 2.09375 -4.640625 C 2.5625 -3.617188 3.148438 -2.722656 3.859375 -1.953125 C 4.578125 -1.179688 5.375 -0.566406 6.25 -0.109375 C 7.132812 0.335938 7.972656 0.5625 8.765625 0.5625 C 9.828125 0.5625 10.71875 0.296875 11.4375 -0.234375 C 12.15625 -0.765625 12.753906 -1.378906 13.234375 -2.078125 L 13.234375 0 L 19.6875 0 L 19.6875 -0.640625 L 16.65625 -0.640625 L 16.65625 -26.78125 L 10.203125 -26.78125 Z M 5.546875 -8.84375 C 5.546875 -11.320312 5.8125 -13.054688 6.34375 -14.046875 C 6.875 -15.046875 7.773438 -15.546875 9.046875 -15.546875 C 9.609375 -15.546875 10.109375 -15.453125 10.546875 -15.265625 C 10.984375 -15.078125 11.367188 -14.832031 11.703125 -14.53125 C 12.035156 -14.226562 12.328125 -13.898438 12.578125 -13.546875 C 12.828125 -13.203125 13.046875 -12.875 13.234375 -12.5625 L 13.234375 -3.234375 C 12.648438 -2.242188 12.003906 -1.46875 11.296875 -0.90625 C 10.597656 -0.351562 9.804688 -0.078125 8.921875 -0.078125 C 8.367188 -0.078125 7.878906 -0.1875 7.453125 -0.40625 C 7.023438 -0.632812 6.671875 -1.007812 6.390625 -1.53125 C 6.117188 -2.050781 5.910156 -2.75 5.765625 -3.625 C 5.617188 -4.5 5.546875 -5.585938 5.546875 -6.890625 Z M 5.546875 -8.84375 "/></g></g></g><g fill="rgb(3.529358%, 32.159424%, 33.729553%)" fill-opacity="1"><g transform="translate(110.178713, 58.609801)"><g><path d="M 17.96875 -27.0625 L 16.828125 -25.59375 C 16.347656 -25.851562 15.894531 -26.085938 15.46875 -26.296875 C 15.039062 -26.515625 14.609375 -26.691406 14.171875 -26.828125 C 13.734375 -26.960938 13.265625 -27.0625 12.765625 -27.125 C 12.273438 -27.1875 11.710938 -27.21875 11.078125 -27.21875 C 9.773438 -27.21875 8.613281 -27.003906 7.59375 -26.578125 C 6.570312 -26.160156 5.703125 -25.59375 4.984375 -24.875 C 4.265625 -24.15625 3.71875 -23.328125 3.34375 -22.390625 C 2.976562 -21.460938 2.796875 -20.484375 2.796875 -19.453125 C 2.796875 -18.046875 3.222656 -16.753906 4.078125 -15.578125 C 4.941406 -14.410156 6.289062 -13.523438 8.125 -12.921875 C 9.007812 -12.617188 9.753906 -12.375 10.359375 -12.1875 C 10.972656 -12.007812 11.546875 -11.832031 12.078125 -11.65625 C 12.609375 -11.488281 13.144531 -11.300781 13.6875 -11.09375 C 14.238281 -10.894531 14.867188 -10.625 15.578125 -10.28125 C 16.484375 -9.851562 17.09375 -9.257812 17.40625 -8.5 C 17.726562 -7.75 17.890625 -6.988281 17.890625 -6.21875 C 17.890625 -5.257812 17.703125 -4.390625 17.328125 -3.609375 C 16.960938 -2.828125 16.472656 -2.171875 15.859375 -1.640625 C 15.253906 -1.109375 14.550781 -0.691406 13.75 -0.390625 C 12.957031 -0.0976562 12.144531 0.046875 11.3125 0.046875 C 10.363281 0.046875 9.445312 -0.117188 8.5625 -0.453125 C 7.6875 -0.785156 6.875 -1.257812 6.125 -1.875 C 5.382812 -2.488281 4.742188 -3.242188 4.203125 -4.140625 C 3.660156 -5.046875 3.242188 -6.054688 2.953125 -7.171875 C 2.867188 -7.515625 2.722656 -7.6875 2.515625 -7.6875 C 2.328125 -7.6875 2.234375 -7.503906 2.234375 -7.140625 L 2.234375 0 C 2.234375 0.34375 2.351562 0.515625 2.59375 0.515625 C 2.75 0.515625 2.921875 0.382812 3.109375 0.125 L 4.546875 -1.953125 C 4.859375 -1.660156 5.25 -1.351562 5.71875 -1.03125 C 6.1875 -0.71875 6.703125 -0.425781 7.265625 -0.15625 C 7.835938 0.101562 8.445312 0.316406 9.09375 0.484375 C 9.75 0.660156 10.425781 0.75 11.125 0.75 C 12.394531 0.75 13.570312 0.515625 14.65625 0.046875 C 15.75 -0.410156 16.691406 -1.050781 17.484375 -1.875 C 18.285156 -2.695312 18.921875 -3.671875 19.390625 -4.796875 C 19.859375 -5.929688 20.09375 -7.148438 20.09375 -8.453125 C 20.09375 -10.234375 19.671875 -11.738281 18.828125 -12.96875 C 17.992188 -14.207031 16.675781 -15.09375 14.875 -15.625 C 14.257812 -15.8125 13.6875 -15.96875 13.15625 -16.09375 C 12.625 -16.226562 12.078125 -16.375 11.515625 -16.53125 C 10.960938 -16.695312 10.378906 -16.878906 9.765625 -17.078125 C 9.148438 -17.273438 8.472656 -17.519531 7.734375 -17.8125 C 6.910156 -18.132812 6.285156 -18.625 5.859375 -19.28125 C 5.429688 -19.945312 5.21875 -20.722656 5.21875 -21.609375 C 5.21875 -22.429688 5.390625 -23.15625 5.734375 -23.78125 C 6.085938 -24.40625 6.535156 -24.914062 7.078125 -25.3125 C 7.617188 -25.707031 8.238281 -26.003906 8.9375 -26.203125 C 9.644531 -26.398438 10.359375 -26.5 11.078125 -26.5 C 12.171875 -26.5 13.128906 -26.3125 13.953125 -25.9375 C 14.773438 -25.570312 15.460938 -25.082031 16.015625 -24.46875 C 16.578125 -23.863281 17.023438 -23.160156 17.359375 -22.359375 C 17.691406 -21.566406 17.910156 -20.742188 18.015625 -19.890625 C 18.046875 -19.617188 18.164062 -19.484375 18.375 -19.484375 C 18.5625 -19.484375 18.65625 -19.617188 18.65625 -19.890625 L 18.65625 -26.984375 C 18.65625 -27.253906 18.578125 -27.390625 18.421875 -27.390625 C 18.285156 -27.390625 18.132812 -27.28125 17.96875 -27.0625 Z M 17.96875 -27.0625 "/></g></g></g><g fill="rgb(3.529358%, 32.159424%, 33.729553%)" fill-opacity="1"><g transform="translate(131.785216, 58.609801)"><g><path d="M 7.0625 -15.625 L 7.0625 -21.875 L 3.625 -20.171875 L 3.625 -15.625 L 0.921875 -15.625 L 0.921875 -14.984375 L 3.625 -14.984375 L 3.625 -4.21875 C 3.625 -2.738281 4.019531 -1.570312 4.8125 -0.71875 C 5.613281 0.132812 6.773438 0.5625 8.296875 0.5625 C 9.859375 0.5625 10.960938 0.25 11.609375 -0.375 C 12.265625 -1 12.6875 -1.859375 12.875 -2.953125 C 12.90625 -3.085938 12.921875 -3.164062 12.921875 -3.1875 C 12.921875 -3.21875 12.921875 -3.257812 12.921875 -3.3125 C 12.921875 -3.519531 12.835938 -3.625 12.671875 -3.625 C 12.460938 -3.625 12.34375 -3.492188 12.3125 -3.234375 C 12.1875 -2.328125 11.882812 -1.613281 11.40625 -1.09375 C 10.925781 -0.570312 10.335938 -0.3125 9.640625 -0.3125 C 8.710938 -0.3125 8.050781 -0.628906 7.65625 -1.265625 C 7.257812 -1.910156 7.0625 -2.867188 7.0625 -4.140625 L 7.0625 -14.984375 L 10.921875 -14.984375 L 10.921875 -15.625 Z M 7.0625 -15.625 "/></g></g></g><g fill="rgb(3.529358%, 32.159424%, 33.729553%)" fill-opacity="1"><g transform="translate(145.259384, 58.609801)"><g><path d="M 14.078125 -2.984375 L 14.078125 0 L 20.28125 0 L 20.28125 -0.640625 L 17.5 -0.640625 L 17.5 -15.625 L 11.28125 -15.625 L 11.28125 -14.984375 L 14.078125 -14.984375 L 14.078125 -5.0625 C 14.078125 -4.632812 13.945312 -4.164062 13.6875 -3.65625 C 13.4375 -3.15625 13.097656 -2.6875 12.671875 -2.25 C 12.242188 -1.8125 11.75 -1.445312 11.1875 -1.15625 C 10.632812 -0.863281 10.066406 -0.71875 9.484375 -0.71875 C 8.554688 -0.71875 7.957031 -0.941406 7.6875 -1.390625 C 7.425781 -1.847656 7.296875 -2.582031 7.296875 -3.59375 L 7.296875 -15.625 L 1.078125 -15.625 L 1.078125 -14.984375 L 3.859375 -14.984375 L 3.859375 -3.859375 C 3.859375 -3.015625 3.960938 -2.3125 4.171875 -1.75 C 4.390625 -1.195312 4.6875 -0.757812 5.0625 -0.4375 C 5.4375 -0.113281 5.867188 0.109375 6.359375 0.234375 C 6.847656 0.367188 7.359375 0.4375 7.890625 0.4375 C 9.296875 0.4375 10.523438 0.140625 11.578125 -0.453125 C 12.628906 -1.054688 13.460938 -1.898438 14.078125 -2.984375 Z M 14.078125 -2.984375 "/></g></g></g><g fill="rgb(3.529358%, 32.159424%, 33.729553%)" fill-opacity="1"><g transform="translate(166.78616, 58.609801)"><g><path d="M 0.953125 -0.640625 L 0.953125 0 L 10.359375 0 L 10.359375 -0.640625 L 7.375 -0.640625 L 7.375 -14.984375 L 10.609375 -14.984375 L 10.609375 -15.625 L 7.375 -15.625 L 7.375 -23.4375 C 7.375 -25.425781 8.066406 -26.421875 9.453125 -26.421875 C 9.984375 -26.421875 10.410156 -26.34375 10.734375 -26.1875 C 11.066406 -26.03125 11.234375 -25.894531 11.234375 -25.78125 C 11.234375 -25.707031 11.207031 -25.65625 11.15625 -25.625 C 10.894531 -25.5 10.695312 -25.320312 10.5625 -25.09375 C 10.425781 -24.863281 10.359375 -24.617188 10.359375 -24.359375 C 10.359375 -23.929688 10.488281 -23.601562 10.75 -23.375 C 11.019531 -23.144531 11.34375 -23.03125 11.71875 -23.03125 C 12.164062 -23.03125 12.488281 -23.171875 12.6875 -23.453125 C 12.894531 -23.734375 13 -24.0625 13 -24.4375 C 13 -25.070312 12.671875 -25.664062 12.015625 -26.21875 C 11.367188 -26.78125 10.484375 -27.0625 9.359375 -27.0625 C 8.515625 -27.0625 7.664062 -26.804688 6.8125 -26.296875 C 5.96875 -25.796875 5.28125 -24.921875 4.75 -23.671875 C 4.375 -22.773438 4.144531 -21.738281 4.0625 -20.5625 C 3.988281 -19.394531 3.953125 -18.320312 3.953125 -17.34375 L 3.953125 -15.625 L 1 -15.625 L 1 -14.984375 L 3.953125 -14.984375 L 3.953125 -0.640625 Z M 0.953125 -0.640625 "/></g></g></g><g fill="rgb(3.529358%, 32.159424%, 33.729553%)" fill-opacity="1"><g transform="translate(180.41978, 58.609801)"><g><path d="M 0.953125 -0.640625 L 0.953125 0 L 10.359375 0 L 10.359375 -0.640625 L 7.375 -0.640625 L 7.375 -14.984375 L 10.609375 -14.984375 L 10.609375 -15.625 L 7.375 -15.625 L 7.375 -23.4375 C 7.375 -25.425781 8.066406 -26.421875 9.453125 -26.421875 C 9.984375 -26.421875 10.410156 -26.34375 10.734375 -26.1875 C 11.066406 -26.03125 11.234375 -25.894531 11.234375 -25.78125 C 11.234375 -25.707031 11.207031 -25.65625 11.15625 -25.625 C 10.894531 -25.5 10.695312 -25.320312 10.5625 -25.09375 C 10.425781 -24.863281 10.359375 -24.617188 10.359375 -24.359375 C 10.359375 -23.929688 10.488281 -23.601562 10.75 -23.375 C 11.019531 -23.144531 11.34375 -23.03125 11.71875 -23.03125 C 12.164062 -23.03125 12.488281 -23.171875 12.6875 -23.453125 C 12.894531 -23.734375 13 -24.0625 13 -24.4375 C 13 -25.070312 12.671875 -25.664062 12.015625 -26.21875 C 11.367188 -26.78125 10.484375 -27.0625 9.359375 -27.0625 C 8.515625 -27.0625 7.664062 -26.804688 6.8125 -26.296875 C 5.96875 -25.796875 5.28125 -24.921875 4.75 -23.671875 C 4.375 -22.773438 4.144531 -21.738281 4.0625 -20.5625 C 3.988281 -19.394531 3.953125 -18.320312 3.953125 -17.34375 L 3.953125 -15.625 L 1 -15.625 L 1 -14.984375 L 3.953125 -14.984375 L 3.953125 -0.640625 Z M 0.953125 -0.640625 "/></g></g></g><g fill="rgb(3.529358%, 32.159424%, 33.729553%)" fill-opacity="1"><g transform="translate(194.053401, 58.609801)"><g><path d="M 22.765625 -8.09375 C 22.628906 -8.09375 22.492188 -7.945312 22.359375 -7.65625 C 21.878906 -6.5625 21.359375 -5.539062 20.796875 -4.59375 C 20.242188 -3.65625 19.609375 -2.835938 18.890625 -2.140625 C 18.171875 -1.453125 17.375 -0.914062 16.5 -0.53125 C 15.625 -0.144531 14.65625 0.046875 13.59375 0.046875 C 11.175781 0.046875 9.378906 -0.894531 8.203125 -2.78125 C 7.035156 -4.675781 6.453125 -7.441406 6.453125 -11.078125 L 6.453125 -15.546875 C 6.453125 -19.054688 7.050781 -21.757812 8.25 -23.65625 C 9.445312 -25.550781 11.296875 -26.5 13.796875 -26.5 C 14.828125 -26.5 15.765625 -26.332031 16.609375 -26 C 17.460938 -25.675781 18.234375 -25.21875 18.921875 -24.625 C 19.617188 -24.039062 20.21875 -23.335938 20.71875 -22.515625 C 21.226562 -21.691406 21.644531 -20.800781 21.96875 -19.84375 C 22.039062 -19.582031 22.128906 -19.453125 22.234375 -19.453125 C 22.367188 -19.453125 22.4375 -19.609375 22.4375 -19.921875 L 22.4375 -26.421875 C 22.4375 -26.660156 22.410156 -26.820312 22.359375 -26.90625 C 22.304688 -26.988281 22.226562 -27.03125 22.125 -27.03125 C 21.988281 -27.03125 21.816406 -26.921875 21.609375 -26.703125 L 20.046875 -25.109375 C 19.203125 -25.796875 18.242188 -26.316406 17.171875 -26.671875 C 16.109375 -27.035156 14.984375 -27.21875 13.796875 -27.21875 C 12.035156 -27.21875 10.40625 -26.816406 8.90625 -26.015625 C 7.40625 -25.222656 6.101562 -24.175781 5 -22.875 C 3.894531 -21.570312 3.035156 -20.085938 2.421875 -18.421875 C 1.816406 -16.765625 1.515625 -15.085938 1.515625 -13.390625 C 1.515625 -11.421875 1.863281 -9.578125 2.5625 -7.859375 C 3.269531 -6.148438 4.195312 -4.65625 5.34375 -3.375 C 6.488281 -2.101562 7.773438 -1.097656 9.203125 -0.359375 C 10.640625 0.378906 12.101562 0.75 13.59375 0.75 C 14.84375 0.75 16.035156 0.503906 17.171875 0.015625 C 18.316406 -0.472656 19.34375 -1.222656 20.25 -2.234375 L 22.359375 0.078125 C 22.492188 0.210938 22.613281 0.28125 22.71875 0.28125 C 22.875 0.28125 22.953125 0.1875 22.953125 0 L 22.953125 -7.6875 C 22.953125 -7.957031 22.890625 -8.09375 22.765625 -8.09375 Z M 22.765625 -8.09375 "/></g></g></g><g fill="rgb(3.529358%, 32.159424%, 33.729553%)" fill-opacity="1"><g transform="translate(218.490273, 58.609801)"><g><path d="M 7.09375 -13.3125 L 7.09375 -15.625 L 0.875 -15.625 L 0.875 -14.984375 L 3.671875 -14.984375 L 3.671875 -0.640625 L 0.875 -0.640625 L 0.875 0 L 9.890625 0 L 9.890625 -0.640625 L 7.09375 -0.640625 L 7.09375 -11.5625 C 7.09375 -11.988281 7.21875 -12.425781 7.46875 -12.875 C 7.726562 -13.320312 8.0625 -13.734375 8.46875 -14.109375 C 8.882812 -14.484375 9.34375 -14.78125 9.84375 -15 C 10.351562 -15.226562 10.84375 -15.34375 11.3125 -15.34375 C 11.613281 -15.34375 11.875 -15.320312 12.09375 -15.28125 C 12.320312 -15.238281 12.4375 -15.140625 12.4375 -14.984375 C 12.4375 -14.847656 12.367188 -14.753906 12.234375 -14.703125 C 12.078125 -14.597656 11.890625 -14.421875 11.671875 -14.171875 C 11.460938 -13.921875 11.359375 -13.53125 11.359375 -13 C 11.359375 -12.4375 11.539062 -11.972656 11.90625 -11.609375 C 12.28125 -11.253906 12.773438 -11.078125 13.390625 -11.078125 C 13.921875 -11.078125 14.382812 -11.253906 14.78125 -11.609375 C 15.1875 -11.972656 15.390625 -12.472656 15.390625 -13.109375 C 15.390625 -13.640625 15.28125 -14.082031 15.0625 -14.4375 C 14.851562 -14.800781 14.582031 -15.097656 14.25 -15.328125 C 13.914062 -15.554688 13.53125 -15.722656 13.09375 -15.828125 C 12.65625 -15.929688 12.210938 -15.984375 11.765625 -15.984375 C 11.117188 -15.984375 10.539062 -15.890625 10.03125 -15.703125 C 9.53125 -15.515625 9.082031 -15.285156 8.6875 -15.015625 C 8.289062 -14.753906 7.957031 -14.472656 7.6875 -14.171875 C 7.425781 -13.867188 7.226562 -13.582031 7.09375 -13.3125 Z M 7.09375 -13.3125 "/></g></g></g><g fill="rgb(3.529358%, 32.159424%, 33.729553%)" fill-opacity="1"><g transform="translate(234.436037, 58.609801)"><g><path d="M 15.671875 -9.6875 C 15.640625 -10.113281 15.5 -10.695312 15.25 -11.4375 C 15 -12.1875 14.601562 -12.90625 14.0625 -13.59375 C 13.53125 -14.28125 12.828125 -14.882812 11.953125 -15.40625 C 11.078125 -15.925781 10.003906 -16.1875 8.734375 -16.1875 C 7.671875 -16.1875 6.679688 -15.929688 5.765625 -15.421875 C 4.847656 -14.921875 4.054688 -14.269531 3.390625 -13.46875 C 2.722656 -12.675781 2.203125 -11.773438 1.828125 -10.765625 C 1.460938 -9.753906 1.28125 -8.726562 1.28125 -7.6875 C 1.28125 -6.65625 1.460938 -5.644531 1.828125 -4.65625 C 2.203125 -3.675781 2.722656 -2.800781 3.390625 -2.03125 C 4.054688 -1.257812 4.859375 -0.632812 5.796875 -0.15625 C 6.742188 0.320312 7.773438 0.5625 8.890625 0.5625 C 9.796875 0.5625 10.617188 0.429688 11.359375 0.171875 C 12.097656 -0.078125 12.753906 -0.421875 13.328125 -0.859375 C 13.898438 -1.296875 14.382812 -1.804688 14.78125 -2.390625 C 15.1875 -2.972656 15.507812 -3.582031 15.75 -4.21875 C 15.820312 -4.40625 15.859375 -4.59375 15.859375 -4.78125 C 15.859375 -4.96875 15.78125 -5.0625 15.625 -5.0625 C 15.488281 -5.0625 15.367188 -4.925781 15.265625 -4.65625 C 15.023438 -4.101562 14.722656 -3.546875 14.359375 -2.984375 C 14.003906 -2.429688 13.566406 -1.941406 13.046875 -1.515625 C 12.535156 -1.085938 11.945312 -0.738281 11.28125 -0.46875 C 10.613281 -0.207031 9.84375 -0.078125 8.96875 -0.078125 C 7.90625 -0.078125 7.046875 -0.472656 6.390625 -1.265625 C 5.742188 -2.066406 5.421875 -3.347656 5.421875 -5.109375 L 5.421875 -9.171875 L 15.03125 -9.171875 C 15.457031 -9.171875 15.671875 -9.34375 15.671875 -9.6875 Z M 5.421875 -9.8125 L 5.421875 -11.40625 C 5.421875 -12.28125 5.519531 -12.988281 5.71875 -13.53125 C 5.914062 -14.070312 6.171875 -14.488281 6.484375 -14.78125 C 6.804688 -15.070312 7.164062 -15.269531 7.5625 -15.375 C 7.96875 -15.488281 8.367188 -15.546875 8.765625 -15.546875 C 9.398438 -15.546875 9.925781 -15.429688 10.34375 -15.203125 C 10.757812 -14.984375 11.082031 -14.6875 11.3125 -14.3125 C 11.550781 -13.9375 11.710938 -13.519531 11.796875 -13.0625 C 11.878906 -12.613281 11.921875 -12.148438 11.921875 -11.671875 C 11.921875 -10.429688 11.71875 -9.8125 11.3125 -9.8125 Z M 5.421875 -9.8125 "/></g></g></g><g fill="rgb(3.529358%, 32.159424%, 33.729553%)" fill-opacity="1"><g transform="translate(251.737182, 58.609801)"><g><path d="M 4.578125 -15.21875 C 3.734375 -14.664062 3.3125 -14.003906 3.3125 -13.234375 C 3.3125 -12.859375 3.4375 -12.519531 3.6875 -12.21875 C 3.9375 -11.914062 4.289062 -11.765625 4.75 -11.765625 C 5.195312 -11.765625 5.5625 -11.894531 5.84375 -12.15625 C 6.125 -12.425781 6.265625 -12.757812 6.265625 -13.15625 C 6.265625 -13.34375 6.226562 -13.535156 6.15625 -13.734375 C 6.09375 -13.929688 5.96875 -14.125 5.78125 -14.3125 C 5.644531 -14.445312 5.535156 -14.539062 5.453125 -14.59375 C 5.378906 -14.644531 5.34375 -14.707031 5.34375 -14.78125 C 5.34375 -14.894531 5.421875 -15.003906 5.578125 -15.109375 C 5.734375 -15.210938 5.929688 -15.300781 6.171875 -15.375 C 6.410156 -15.457031 6.679688 -15.523438 6.984375 -15.578125 C 7.296875 -15.640625 7.597656 -15.671875 7.890625 -15.671875 C 8.710938 -15.671875 9.363281 -15.507812 9.84375 -15.1875 C 10.320312 -14.863281 10.5625 -14.253906 10.5625 -13.359375 L 10.5625 -8.65625 C 9.34375 -8.65625 8.203125 -8.523438 7.140625 -8.265625 C 6.078125 -8.015625 5.144531 -7.648438 4.34375 -7.171875 C 3.550781 -6.691406 2.925781 -6.097656 2.46875 -5.390625 C 2.019531 -4.691406 1.796875 -3.90625 1.796875 -3.03125 C 1.796875 -2.394531 1.90625 -1.84375 2.125 -1.375 C 2.351562 -0.90625 2.664062 -0.53125 3.0625 -0.25 C 3.46875 0.0195312 3.925781 0.222656 4.4375 0.359375 C 4.957031 0.492188 5.507812 0.5625 6.09375 0.5625 C 6.707031 0.5625 7.257812 0.488281 7.75 0.34375 C 8.238281 0.195312 8.675781 0.0078125 9.0625 -0.21875 C 9.445312 -0.445312 9.769531 -0.6875 10.03125 -0.9375 C 10.300781 -1.1875 10.519531 -1.429688 10.6875 -1.671875 C 10.757812 -1.117188 11.007812 -0.609375 11.4375 -0.140625 C 11.863281 0.328125 12.609375 0.5625 13.671875 0.5625 C 14.359375 0.5625 14.9375 0.453125 15.40625 0.234375 C 15.875 0.0234375 16.253906 -0.222656 16.546875 -0.515625 C 16.835938 -0.804688 17.039062 -1.101562 17.15625 -1.40625 C 17.28125 -1.71875 17.34375 -1.953125 17.34375 -2.109375 C 17.34375 -2.242188 17.300781 -2.3125 17.21875 -2.3125 C 17.132812 -2.3125 17.039062 -2.207031 16.9375 -2 C 16.726562 -1.539062 16.460938 -1.171875 16.140625 -0.890625 C 15.828125 -0.617188 15.484375 -0.484375 15.109375 -0.484375 C 14.578125 -0.484375 14.253906 -0.703125 14.140625 -1.140625 C 14.035156 -1.578125 13.984375 -2.179688 13.984375 -2.953125 L 13.984375 -12.59375 C 13.984375 -13.738281 13.554688 -14.625 12.703125 -15.25 C 11.859375 -15.875 10.5625 -16.1875 8.8125 -16.1875 C 7.988281 -16.1875 7.195312 -16.097656 6.4375 -15.921875 C 5.675781 -15.753906 5.054688 -15.519531 4.578125 -15.21875 Z M 10.5625 -8.25 L 10.5625 -2.703125 C 10.5625 -2.472656 10.445312 -2.222656 10.21875 -1.953125 C 10 -1.679688 9.722656 -1.429688 9.390625 -1.203125 C 9.054688 -0.984375 8.707031 -0.804688 8.34375 -0.671875 C 7.988281 -0.546875 7.691406 -0.484375 7.453125 -0.484375 C 6.628906 -0.484375 6.003906 -0.800781 5.578125 -1.4375 C 5.148438 -2.070312 4.9375 -2.9375 4.9375 -4.03125 C 4.9375 -4.90625 5.097656 -5.609375 5.421875 -6.140625 C 5.742188 -6.671875 6.160156 -7.082031 6.671875 -7.375 C 7.191406 -7.664062 7.789062 -7.867188 8.46875 -7.984375 C 9.144531 -8.109375 9.84375 -8.195312 10.5625 -8.25 Z M 10.5625 -8.25 "/></g></g></g><g fill="rgb(3.529358%, 32.159424%, 33.729553%)" fill-opacity="1"><g transform="translate(269.397101, 58.609801)"><g><path d="M 7.0625 -15.625 L 7.0625 -21.875 L 3.625 -20.171875 L 3.625 -15.625 L 0.921875 -15.625 L 0.921875 -14.984375 L 3.625 -14.984375 L 3.625 -4.21875 C 3.625 -2.738281 4.019531 -1.570312 4.8125 -0.71875 C 5.613281 0.132812 6.773438 0.5625 8.296875 0.5625 C 9.859375 0.5625 10.960938 0.25 11.609375 -0.375 C 12.265625 -1 12.6875 -1.859375 12.875 -2.953125 C 12.90625 -3.085938 12.921875 -3.164062 12.921875 -3.1875 C 12.921875 -3.21875 12.921875 -3.257812 12.921875 -3.3125 C 12.921875 -3.519531 12.835938 -3.625 12.671875 -3.625 C 12.460938 -3.625 12.34375 -3.492188 12.3125 -3.234375 C 12.1875 -2.328125 11.882812 -1.613281 11.40625 -1.09375 C 10.925781 -0.570312 10.335938 -0.3125 9.640625 -0.3125 C 8.710938 -0.3125 8.050781 -0.628906 7.65625 -1.265625 C 7.257812 -1.910156 7.0625 -2.867188 7.0625 -4.140625 L 7.0625 -14.984375 L 10.921875 -14.984375 L 10.921875 -15.625 Z M 7.0625 -15.625 "/></g></g></g><g fill="rgb(3.529358%, 32.159424%, 33.729553%)" fill-opacity="1"><g transform="translate(282.871269, 58.609801)"><g><path d="M 7.859375 -15.625 L 1.4375 -15.625 L 1.4375 -14.984375 L 4.421875 -14.984375 L 4.421875 -0.640625 L 1.4375 -0.640625 L 1.4375 0 L 10.84375 0 L 10.84375 -0.640625 L 7.859375 -0.640625 Z M 8.171875 -23 C 8.171875 -23.582031 7.96875 -24.070312 7.5625 -24.46875 C 7.164062 -24.875 6.675781 -25.078125 6.09375 -25.078125 C 5.507812 -25.078125 5.019531 -24.875 4.625 -24.46875 C 4.226562 -24.070312 4.03125 -23.582031 4.03125 -23 C 4.03125 -22.414062 4.226562 -21.921875 4.625 -21.515625 C 5.019531 -21.117188 5.507812 -20.921875 6.09375 -20.921875 C 6.675781 -20.921875 7.164062 -21.117188 7.5625 -21.515625 C 7.96875 -21.921875 8.171875 -22.414062 8.171875 -23 Z M 8.171875 -23 "/></g></g></g><g fill="rgb(3.529358%, 32.159424%, 33.729553%)" fill-opacity="1"><g transform="translate(294.59139, 58.609801)"><g><path d="M 9.046875 0.5625 C 10.242188 0.5625 11.328125 0.289062 12.296875 -0.25 C 13.265625 -0.800781 14.085938 -1.488281 14.765625 -2.3125 C 15.441406 -3.132812 15.96875 -4.035156 16.34375 -5.015625 C 16.71875 -6.003906 16.90625 -6.9375 16.90625 -7.8125 C 16.90625 -8.6875 16.71875 -9.613281 16.34375 -10.59375 C 15.96875 -11.582031 15.441406 -12.488281 14.765625 -13.3125 C 14.085938 -14.132812 13.265625 -14.816406 12.296875 -15.359375 C 11.328125 -15.910156 10.242188 -16.1875 9.046875 -16.1875 C 7.847656 -16.1875 6.765625 -15.910156 5.796875 -15.359375 C 4.828125 -14.816406 3.992188 -14.132812 3.296875 -13.3125 C 2.609375 -12.488281 2.078125 -11.582031 1.703125 -10.59375 C 1.335938 -9.613281 1.15625 -8.6875 1.15625 -7.8125 C 1.15625 -6.9375 1.335938 -6.003906 1.703125 -5.015625 C 2.078125 -4.035156 2.609375 -3.132812 3.296875 -2.3125 C 3.992188 -1.488281 4.828125 -0.800781 5.796875 -0.25 C 6.765625 0.289062 7.847656 0.5625 9.046875 0.5625 Z M 5.296875 -8.6875 C 5.296875 -9.800781 5.34375 -10.785156 5.4375 -11.640625 C 5.53125 -12.492188 5.707031 -13.210938 5.96875 -13.796875 C 6.238281 -14.378906 6.617188 -14.816406 7.109375 -15.109375 C 7.609375 -15.398438 8.253906 -15.546875 9.046875 -15.546875 C 9.847656 -15.546875 10.492188 -15.398438 10.984375 -15.109375 C 11.472656 -14.816406 11.84375 -14.378906 12.09375 -13.796875 C 12.34375 -13.210938 12.515625 -12.492188 12.609375 -11.640625 C 12.703125 -10.785156 12.75 -9.800781 12.75 -8.6875 L 12.75 -6.96875 C 12.75 -5.78125 12.703125 -4.753906 12.609375 -3.890625 C 12.515625 -3.023438 12.34375 -2.3125 12.09375 -1.75 C 11.84375 -1.195312 11.472656 -0.78125 10.984375 -0.5 C 10.492188 -0.21875 9.847656 -0.078125 9.046875 -0.078125 C 8.253906 -0.078125 7.609375 -0.21875 7.109375 -0.5 C 6.617188 -0.78125 6.238281 -1.195312 5.96875 -1.75 C 5.707031 -2.3125 5.53125 -3.023438 5.4375 -3.890625 C 5.34375 -4.753906 5.296875 -5.78125 5.296875 -6.96875 Z M 5.296875 -8.6875 "/></g></g></g><g fill="rgb(3.529358%, 32.159424%, 33.729553%)" fill-opacity="1"><g transform="translate(312.410762, 58.609801)"><g><path d="M 7.65625 -12.59375 L 7.65625 -15.625 L 1.4375 -15.625 L 1.4375 -14.984375 L 4.21875 -14.984375 L 4.21875 -0.640625 L 1.4375 -0.640625 L 1.4375 0 L 10.4375 0 L 10.4375 -0.640625 L 7.65625 -0.640625 L 7.65625 -10.515625 C 7.65625 -10.972656 7.773438 -11.457031 8.015625 -11.96875 C 8.253906 -12.488281 8.566406 -12.972656 8.953125 -13.421875 C 9.335938 -13.878906 9.773438 -14.253906 10.265625 -14.546875 C 10.753906 -14.835938 11.265625 -14.984375 11.796875 -14.984375 C 12.566406 -14.984375 13.128906 -14.742188 13.484375 -14.265625 C 13.847656 -13.785156 14.03125 -13.03125 14.03125 -12 L 14.03125 -0.640625 L 11.234375 -0.640625 L 11.234375 0 L 20.25 0 L 20.25 -0.640625 L 17.453125 -0.640625 L 17.453125 -12.28125 C 17.453125 -13.65625 17.0625 -14.609375 16.28125 -15.140625 C 15.5 -15.671875 14.492188 -15.9375 13.265625 -15.9375 C 11.804688 -15.9375 10.617188 -15.601562 9.703125 -14.9375 C 8.785156 -14.28125 8.101562 -13.5 7.65625 -12.59375 Z M 7.65625 -12.59375 "/></g></g></g><g fill="rgb(3.529358%, 32.159424%, 33.729553%)" fill-opacity="1"><g transform="translate(333.578753, 58.609801)"><g><path d="M 11.3125 -15.984375 L 10.40625 -15.0625 C 9.582031 -15.8125 8.570312 -16.1875 7.375 -16.1875 C 6.519531 -16.1875 5.757812 -16.046875 5.09375 -15.765625 C 4.4375 -15.484375 3.890625 -15.101562 3.453125 -14.625 C 3.015625 -14.144531 2.679688 -13.597656 2.453125 -12.984375 C 2.222656 -12.378906 2.109375 -11.757812 2.109375 -11.125 C 2.109375 -10.132812 2.394531 -9.265625 2.96875 -8.515625 C 3.539062 -7.773438 4.398438 -7.273438 5.546875 -7.015625 C 5.890625 -6.929688 6.269531 -6.84375 6.6875 -6.75 C 7.113281 -6.65625 7.546875 -6.550781 7.984375 -6.4375 C 8.429688 -6.320312 8.859375 -6.1875 9.265625 -6.03125 C 9.679688 -5.882812 10.046875 -5.722656 10.359375 -5.546875 C 10.890625 -5.253906 11.253906 -4.90625 11.453125 -4.5 C 11.660156 -4.101562 11.765625 -3.691406 11.765625 -3.265625 C 11.765625 -2.710938 11.625 -2.226562 11.34375 -1.8125 C 11.0625 -1.40625 10.707031 -1.070312 10.28125 -0.8125 C 9.851562 -0.5625 9.398438 -0.375 8.921875 -0.25 C 8.453125 -0.132812 8.003906 -0.078125 7.578125 -0.078125 C 6.347656 -0.078125 5.269531 -0.414062 4.34375 -1.09375 C 3.414062 -1.769531 2.765625 -2.8125 2.390625 -4.21875 C 2.304688 -4.457031 2.203125 -4.578125 2.078125 -4.578125 C 1.910156 -4.578125 1.828125 -4.472656 1.828125 -4.265625 L 1.828125 0 C 1.828125 0.207031 1.910156 0.3125 2.078125 0.3125 C 2.179688 0.3125 2.273438 0.25 2.359375 0.125 L 3.1875 -1.109375 C 3.664062 -0.609375 4.269531 -0.207031 5 0.09375 C 5.726562 0.40625 6.625 0.5625 7.6875 0.5625 C 8.570312 0.5625 9.34375 0.421875 10 0.140625 C 10.664062 -0.140625 11.226562 -0.523438 11.6875 -1.015625 C 12.15625 -1.503906 12.507812 -2.070312 12.75 -2.71875 C 12.988281 -3.375 13.109375 -4.085938 13.109375 -4.859375 C 13.109375 -5.867188 12.851562 -6.828125 12.34375 -7.734375 C 11.84375 -8.640625 10.890625 -9.332031 9.484375 -9.8125 C 9.242188 -9.882812 8.9375 -9.96875 8.5625 -10.0625 C 8.195312 -10.15625 7.804688 -10.253906 7.390625 -10.359375 C 6.984375 -10.460938 6.570312 -10.566406 6.15625 -10.671875 C 5.75 -10.785156 5.410156 -10.882812 5.140625 -10.96875 C 4.609375 -11.144531 4.226562 -11.375 4 -11.65625 C 3.78125 -11.9375 3.671875 -12.328125 3.671875 -12.828125 C 3.671875 -13.523438 4 -14.148438 4.65625 -14.703125 C 5.320312 -15.265625 6.160156 -15.546875 7.171875 -15.546875 C 7.804688 -15.546875 8.367188 -15.425781 8.859375 -15.1875 C 9.359375 -14.945312 9.773438 -14.640625 10.109375 -14.265625 C 10.441406 -13.898438 10.707031 -13.484375 10.90625 -13.015625 C 11.101562 -12.546875 11.238281 -12.085938 11.3125 -11.640625 C 11.34375 -11.484375 11.425781 -11.40625 11.5625 -11.40625 C 11.664062 -11.40625 11.71875 -11.484375 11.71875 -11.640625 L 11.71875 -15.90625 C 11.71875 -16.09375 11.675781 -16.1875 11.59375 -16.1875 C 11.539062 -16.1875 11.445312 -16.117188 11.3125 -15.984375 Z M 11.3125 -15.984375 "/></g></g></g></svg>