<svg xmlns="http://www.w3.org/2000/svg" xmlns:xlink="http://www.w3.org/1999/xlink" width="500" zoomAndPan="magnify" viewBox="0 0 375 89.999999" height="120" preserveAspectRatio="xMidYMid meet" version="1.0"><defs><g><g id="id1"/></g></defs><g fill="rgb(96.078491%, 98.429871%, 97.648621%)" fill-opacity="1"><g transform="translate(27.210938, 58.553435)"><g><path d="M 13.671875 -27.234375 C 12.003906 -27.234375 10.425781 -26.859375 8.9375 -26.109375 C 7.445312 -25.367188 6.148438 -24.359375 5.046875 -23.078125 C 3.941406 -21.804688 3.0625 -20.316406 2.40625 -18.609375 C 1.757812 -16.910156 1.4375 -15.117188 1.4375 -13.234375 C 1.4375 -11.347656 1.765625 -9.550781 2.421875 -7.84375 C 3.085938 -6.144531 3.976562 -4.65625 5.09375 -3.375 C 6.21875 -2.101562 7.507812 -1.097656 8.96875 -0.359375 C 10.4375 0.378906 11.96875 0.75 13.5625 0.75 C 14.832031 0.75 16.03125 0.582031 17.15625 0.25 C 18.289062 -0.0703125 19.289062 -0.578125 20.15625 -1.265625 C 21.019531 -1.960938 21.695312 -2.847656 22.1875 -3.921875 C 22.675781 -5.003906 22.921875 -6.289062 22.921875 -7.78125 L 22.921875 -9.125 L 26.390625 -9.125 L 26.390625 -9.765625 L 14.546875 -9.765625 L 14.546875 -9.125 L 18.828125 -9.125 L 18.828125 -5.390625 C 18.828125 -4.742188 18.757812 -4.101562 18.625 -3.46875 C 18.488281 -2.832031 18.234375 -2.253906 17.859375 -1.734375 C 17.492188 -1.210938 16.96875 -0.785156 16.28125 -0.453125 C 15.601562 -0.117188 14.722656 0.046875 13.640625 0.046875 C 11.328125 0.046875 9.53125 -0.867188 8.25 -2.703125 C 6.976562 -4.546875 6.34375 -7.273438 6.34375 -10.890625 L 6.34375 -15.796875 C 6.34375 -17.679688 6.519531 -19.300781 6.875 -20.65625 C 7.238281 -22.007812 7.742188 -23.117188 8.390625 -23.984375 C 9.046875 -24.847656 9.816406 -25.484375 10.703125 -25.890625 C 11.597656 -26.304688 12.585938 -26.515625 13.671875 -26.515625 C 15.617188 -26.515625 17.28125 -25.945312 18.65625 -24.8125 C 20.039062 -23.6875 21.160156 -21.769531 22.015625 -19.0625 C 22.085938 -18.820312 22.207031 -18.703125 22.375 -18.703125 C 22.53125 -18.703125 22.609375 -18.820312 22.609375 -19.0625 L 22.609375 -26.59375 C 22.609375 -26.882812 22.503906 -27.03125 22.296875 -27.03125 C 22.160156 -27.03125 22.054688 -27.003906 21.984375 -26.953125 C 21.921875 -26.898438 21.835938 -26.820312 21.734375 -26.71875 L 20.015625 -25 C 19.242188 -25.6875 18.304688 -26.226562 17.203125 -26.625 C 16.097656 -27.03125 14.921875 -27.234375 13.671875 -27.234375 Z M 13.671875 -27.234375 "/></g></g></g><g fill="rgb(96.078491%, 98.429871%, 97.648621%)" fill-opacity="1"><g transform="translate(53.882033, 58.553435)"><g><path d="M 9.046875 0.5625 C 10.242188 0.5625 11.328125 0.289062 12.296875 -0.25 C 13.265625 -0.800781 14.085938 -1.488281 14.765625 -2.3125 C 15.453125 -3.132812 15.976562 -4.035156 16.34375 -5.015625 C 16.71875 -6.003906 16.90625 -6.9375 16.90625 -7.8125 C 16.90625 -8.6875 16.71875 -9.613281 16.34375 -10.59375 C 15.976562 -11.582031 15.453125 -12.488281 14.765625 -13.3125 C 14.085938 -14.132812 13.265625 -14.816406 12.296875 -15.359375 C 11.328125 -15.910156 10.242188 -16.1875 9.046875 -16.1875 C 7.847656 -16.1875 6.765625 -15.910156 5.796875 -15.359375 C 4.828125 -14.816406 3.992188 -14.132812 3.296875 -13.3125 C 2.609375 -12.488281 2.078125 -11.582031 1.703125 -10.59375 C 1.335938 -9.613281 1.15625 -8.6875 1.15625 -7.8125 C 1.15625 -6.9375 1.335938 -6.003906 1.703125 -5.015625 C 2.078125 -4.035156 2.609375 -3.132812 3.296875 -2.3125 C 3.992188 -1.488281 4.828125 -0.800781 5.796875 -0.25 C 6.765625 0.289062 7.847656 0.5625 9.046875 0.5625 Z M 5.296875 -8.6875 C 5.296875 -9.8125 5.34375 -10.796875 5.4375 -11.640625 C 5.53125 -12.492188 5.707031 -13.210938 5.96875 -13.796875 C 6.238281 -14.378906 6.617188 -14.816406 7.109375 -15.109375 C 7.609375 -15.398438 8.253906 -15.546875 9.046875 -15.546875 C 9.847656 -15.546875 10.492188 -15.398438 10.984375 -15.109375 C 11.472656 -14.816406 11.84375 -14.378906 12.09375 -13.796875 C 12.351562 -13.210938 12.53125 -12.492188 12.625 -11.640625 C 12.71875 -10.796875 12.765625 -9.8125 12.765625 -8.6875 L 12.765625 -6.984375 C 12.765625 -5.785156 12.71875 -4.753906 12.625 -3.890625 C 12.53125 -3.023438 12.351562 -2.3125 12.09375 -1.75 C 11.84375 -1.195312 11.472656 -0.78125 10.984375 -0.5 C 10.492188 -0.21875 9.847656 -0.078125 9.046875 -0.078125 C 8.253906 -0.078125 7.609375 -0.21875 7.109375 -0.5 C 6.617188 -0.78125 6.238281 -1.195312 5.96875 -1.75 C 5.707031 -2.3125 5.53125 -3.023438 5.4375 -3.890625 C 5.34375 -4.753906 5.296875 -5.785156 5.296875 -6.984375 Z M 5.296875 -8.6875 "/></g></g></g><g fill="rgb(96.078491%, 98.429871%, 97.648621%)" fill-opacity="1"><g transform="translate(71.702623, 58.553435)"><g><path d="M 9.046875 0.5625 C 10.242188 0.5625 11.328125 0.289062 12.296875 -0.25 C 13.265625 -0.800781 14.085938 -1.488281 14.765625 -2.3125 C 15.453125 -3.132812 15.976562 -4.035156 16.34375 -5.015625 C 16.71875 -6.003906 16.90625 -6.9375 16.90625 -7.8125 C 16.90625 -8.6875 16.71875 -9.613281 16.34375 -10.59375 C 15.976562 -11.582031 15.453125 -12.488281 14.765625 -13.3125 C 14.085938 -14.132812 13.265625 -14.816406 12.296875 -15.359375 C 11.328125 -15.910156 10.242188 -16.1875 9.046875 -16.1875 C 7.847656 -16.1875 6.765625 -15.910156 5.796875 -15.359375 C 4.828125 -14.816406 3.992188 -14.132812 3.296875 -13.3125 C 2.609375 -12.488281 2.078125 -11.582031 1.703125 -10.59375 C 1.335938 -9.613281 1.15625 -8.6875 1.15625 -7.8125 C 1.15625 -6.9375 1.335938 -6.003906 1.703125 -5.015625 C 2.078125 -4.035156 2.609375 -3.132812 3.296875 -2.3125 C 3.992188 -1.488281 4.828125 -0.800781 5.796875 -0.25 C 6.765625 0.289062 7.847656 0.5625 9.046875 0.5625 Z M 5.296875 -8.6875 C 5.296875 -9.8125 5.34375 -10.796875 5.4375 -11.640625 C 5.53125 -12.492188 5.707031 -13.210938 5.96875 -13.796875 C 6.238281 -14.378906 6.617188 -14.816406 7.109375 -15.109375 C 7.609375 -15.398438 8.253906 -15.546875 9.046875 -15.546875 C 9.847656 -15.546875 10.492188 -15.398438 10.984375 -15.109375 C 11.472656 -14.816406 11.84375 -14.378906 12.09375 -13.796875 C 12.351562 -13.210938 12.53125 -12.492188 12.625 -11.640625 C 12.71875 -10.796875 12.765625 -9.8125 12.765625 -8.6875 L 12.765625 -6.984375 C 12.765625 -5.785156 12.71875 -4.753906 12.625 -3.890625 C 12.53125 -3.023438 12.351562 -2.3125 12.09375 -1.75 C 11.84375 -1.195312 11.472656 -0.78125 10.984375 -0.5 C 10.492188 -0.21875 9.847656 -0.078125 9.046875 -0.078125 C 8.253906 -0.078125 7.609375 -0.21875 7.109375 -0.5 C 6.617188 -0.78125 6.238281 -1.195312 5.96875 -1.75 C 5.707031 -2.3125 5.53125 -3.023438 5.4375 -3.890625 C 5.34375 -4.753906 5.296875 -5.785156 5.296875 -6.984375 Z M 5.296875 -8.6875 "/></g></g></g><g fill="rgb(96.078491%, 98.429871%, 97.648621%)" fill-opacity="1"><g transform="translate(89.523213, 58.553435)"><g><path d="M 10.203125 -26.15625 L 13.234375 -26.15625 L 13.234375 -14.03125 C 12.253906 -15.46875 10.804688 -16.1875 8.890625 -16.1875 C 7.929688 -16.1875 7 -15.945312 6.09375 -15.46875 C 5.195312 -14.988281 4.398438 -14.359375 3.703125 -13.578125 C 3.015625 -12.796875 2.457031 -11.90625 2.03125 -10.90625 C 1.601562 -9.90625 1.390625 -8.890625 1.390625 -7.859375 C 1.390625 -6.742188 1.625 -5.671875 2.09375 -4.640625 C 2.5625 -3.617188 3.148438 -2.722656 3.859375 -1.953125 C 4.578125 -1.179688 5.375 -0.566406 6.25 -0.109375 C 7.132812 0.335938 7.972656 0.5625 8.765625 0.5625 C 9.835938 0.5625 10.726562 0.296875 11.4375 -0.234375 C 12.15625 -0.765625 12.753906 -1.378906 13.234375 -2.078125 L 13.234375 0 L 19.703125 0 L 19.703125 -0.640625 L 16.671875 -0.640625 L 16.671875 -26.796875 L 10.203125 -26.796875 Z M 5.546875 -8.859375 C 5.546875 -11.328125 5.8125 -13.054688 6.34375 -14.046875 C 6.875 -15.046875 7.773438 -15.546875 9.046875 -15.546875 C 9.609375 -15.546875 10.109375 -15.453125 10.546875 -15.265625 C 10.984375 -15.085938 11.367188 -14.84375 11.703125 -14.53125 C 12.035156 -14.226562 12.328125 -13.90625 12.578125 -13.5625 C 12.828125 -13.21875 13.046875 -12.882812 13.234375 -12.5625 L 13.234375 -3.234375 C 12.648438 -2.242188 12.003906 -1.46875 11.296875 -0.90625 C 10.597656 -0.351562 9.8125 -0.078125 8.9375 -0.078125 C 8.375 -0.078125 7.878906 -0.1875 7.453125 -0.40625 C 7.023438 -0.632812 6.671875 -1.007812 6.390625 -1.53125 C 6.117188 -2.050781 5.910156 -2.75 5.765625 -3.625 C 5.617188 -4.5 5.546875 -5.585938 5.546875 -6.890625 Z M 5.546875 -8.859375 "/></g></g></g><g fill="rgb(96.078491%, 98.429871%, 97.648621%)" fill-opacity="1"><g transform="translate(110.174374, 58.553435)"><g><path d="M 17.984375 -27.078125 L 16.828125 -25.59375 C 16.347656 -25.863281 15.894531 -26.101562 15.46875 -26.3125 C 15.039062 -26.53125 14.609375 -26.703125 14.171875 -26.828125 C 13.734375 -26.960938 13.269531 -27.0625 12.78125 -27.125 C 12.289062 -27.195312 11.722656 -27.234375 11.078125 -27.234375 C 9.773438 -27.234375 8.613281 -27.019531 7.59375 -26.59375 C 6.570312 -26.164062 5.703125 -25.59375 4.984375 -24.875 C 4.265625 -24.164062 3.71875 -23.34375 3.34375 -22.40625 C 2.976562 -21.476562 2.796875 -20.492188 2.796875 -19.453125 C 2.796875 -18.046875 3.226562 -16.757812 4.09375 -15.59375 C 4.957031 -14.425781 6.304688 -13.535156 8.140625 -12.921875 C 9.015625 -12.628906 9.753906 -12.390625 10.359375 -12.203125 C 10.972656 -12.015625 11.546875 -11.832031 12.078125 -11.65625 C 12.609375 -11.488281 13.144531 -11.304688 13.6875 -11.109375 C 14.238281 -10.910156 14.875 -10.632812 15.59375 -10.28125 C 16.5 -9.863281 17.109375 -9.273438 17.421875 -8.515625 C 17.742188 -7.753906 17.90625 -6.988281 17.90625 -6.21875 C 17.90625 -5.257812 17.71875 -4.390625 17.34375 -3.609375 C 16.96875 -2.828125 16.472656 -2.171875 15.859375 -1.640625 C 15.253906 -1.109375 14.550781 -0.691406 13.75 -0.390625 C 12.957031 -0.0976562 12.148438 0.046875 11.328125 0.046875 C 10.367188 0.046875 9.445312 -0.117188 8.5625 -0.453125 C 7.6875 -0.785156 6.878906 -1.257812 6.140625 -1.875 C 5.398438 -2.488281 4.753906 -3.242188 4.203125 -4.140625 C 3.660156 -5.046875 3.242188 -6.054688 2.953125 -7.171875 C 2.867188 -7.523438 2.722656 -7.703125 2.515625 -7.703125 C 2.328125 -7.703125 2.234375 -7.515625 2.234375 -7.140625 L 2.234375 0 C 2.234375 0.34375 2.351562 0.515625 2.59375 0.515625 C 2.75 0.515625 2.921875 0.382812 3.109375 0.125 L 4.546875 -1.953125 C 4.867188 -1.660156 5.257812 -1.351562 5.71875 -1.03125 C 6.1875 -0.71875 6.707031 -0.425781 7.28125 -0.15625 C 7.851562 0.101562 8.460938 0.316406 9.109375 0.484375 C 9.765625 0.660156 10.4375 0.75 11.125 0.75 C 12.40625 0.75 13.585938 0.515625 14.671875 0.046875 C 15.765625 -0.410156 16.707031 -1.050781 17.5 -1.875 C 18.300781 -2.695312 18.929688 -3.671875 19.390625 -4.796875 C 19.859375 -5.929688 20.09375 -7.148438 20.09375 -8.453125 C 20.09375 -10.234375 19.671875 -11.738281 18.828125 -12.96875 C 17.992188 -14.207031 16.675781 -15.09375 14.875 -15.625 C 14.257812 -15.8125 13.6875 -15.972656 13.15625 -16.109375 C 12.625 -16.242188 12.078125 -16.390625 11.515625 -16.546875 C 10.960938 -16.703125 10.378906 -16.878906 9.765625 -17.078125 C 9.160156 -17.285156 8.484375 -17.535156 7.734375 -17.828125 C 6.910156 -18.140625 6.285156 -18.628906 5.859375 -19.296875 C 5.429688 -19.960938 5.21875 -20.734375 5.21875 -21.609375 C 5.21875 -22.429688 5.390625 -23.15625 5.734375 -23.78125 C 6.085938 -24.40625 6.535156 -24.914062 7.078125 -25.3125 C 7.617188 -25.71875 8.242188 -26.019531 8.953125 -26.21875 C 9.660156 -26.414062 10.367188 -26.515625 11.078125 -26.515625 C 12.171875 -26.515625 13.128906 -26.328125 13.953125 -25.953125 C 14.773438 -25.585938 15.460938 -25.097656 16.015625 -24.484375 C 16.578125 -23.867188 17.023438 -23.160156 17.359375 -22.359375 C 17.691406 -21.566406 17.914062 -20.742188 18.03125 -19.890625 C 18.050781 -19.628906 18.164062 -19.5 18.375 -19.5 C 18.5625 -19.5 18.65625 -19.628906 18.65625 -19.890625 L 18.65625 -27 C 18.65625 -27.257812 18.578125 -27.390625 18.421875 -27.390625 C 18.285156 -27.390625 18.140625 -27.285156 17.984375 -27.078125 Z M 17.984375 -27.078125 "/></g></g></g><g fill="rgb(96.078491%, 98.429871%, 97.648621%)" fill-opacity="1"><g transform="translate(131.78234, 58.553435)"><g><path d="M 7.0625 -15.625 L 7.0625 -21.890625 L 3.625 -20.171875 L 3.625 -15.625 L 0.921875 -15.625 L 0.921875 -15 L 3.625 -15 L 3.625 -4.234375 C 3.625 -2.742188 4.019531 -1.570312 4.8125 -0.71875 C 5.613281 0.132812 6.773438 0.5625 8.296875 0.5625 C 9.859375 0.5625 10.960938 0.25 11.609375 -0.375 C 12.265625 -1 12.6875 -1.859375 12.875 -2.953125 C 12.90625 -3.085938 12.921875 -3.164062 12.921875 -3.1875 C 12.921875 -3.21875 12.921875 -3.257812 12.921875 -3.3125 C 12.921875 -3.519531 12.84375 -3.625 12.6875 -3.625 C 12.46875 -3.625 12.347656 -3.492188 12.328125 -3.234375 C 12.191406 -2.328125 11.882812 -1.613281 11.40625 -1.09375 C 10.925781 -0.570312 10.34375 -0.3125 9.65625 -0.3125 C 8.71875 -0.3125 8.050781 -0.628906 7.65625 -1.265625 C 7.257812 -1.910156 7.0625 -2.867188 7.0625 -4.140625 L 7.0625 -15 L 10.921875 -15 L 10.921875 -15.625 Z M 7.0625 -15.625 "/></g></g></g><g fill="rgb(96.078491%, 98.429871%, 97.648621%)" fill-opacity="1"><g transform="translate(145.257426, 58.553435)"><g><path d="M 14.078125 -2.984375 L 14.078125 0 L 20.296875 0 L 20.296875 -0.640625 L 17.5 -0.640625 L 17.5 -15.625 L 11.28125 -15.625 L 11.28125 -15 L 14.078125 -15 L 14.078125 -5.0625 C 14.078125 -4.632812 13.945312 -4.164062 13.6875 -3.65625 C 13.4375 -3.15625 13.097656 -2.6875 12.671875 -2.25 C 12.253906 -1.8125 11.765625 -1.445312 11.203125 -1.15625 C 10.648438 -0.863281 10.078125 -0.71875 9.484375 -0.71875 C 8.554688 -0.71875 7.957031 -0.941406 7.6875 -1.390625 C 7.425781 -1.847656 7.296875 -2.582031 7.296875 -3.59375 L 7.296875 -15.625 L 1.078125 -15.625 L 1.078125 -15 L 3.875 -15 L 3.875 -3.875 C 3.875 -3.019531 3.976562 -2.3125 4.1875 -1.75 C 4.394531 -1.195312 4.6875 -0.757812 5.0625 -0.4375 C 5.4375 -0.113281 5.867188 0.109375 6.359375 0.234375 C 6.847656 0.367188 7.359375 0.4375 7.890625 0.4375 C 9.304688 0.4375 10.535156 0.140625 11.578125 -0.453125 C 12.628906 -1.054688 13.460938 -1.898438 14.078125 -2.984375 Z M 14.078125 -2.984375 "/></g></g></g><g fill="rgb(96.078491%, 98.429871%, 97.648621%)" fill-opacity="1"><g transform="translate(166.785661, 58.553435)"><g><path d="M 0.953125 -0.640625 L 0.953125 0 L 10.375 0 L 10.375 -0.640625 L 7.375 -0.640625 L 7.375 -15 L 10.609375 -15 L 10.609375 -15.625 L 7.375 -15.625 L 7.375 -23.453125 C 7.375 -25.441406 8.066406 -26.4375 9.453125 -26.4375 C 9.984375 -26.4375 10.414062 -26.351562 10.75 -26.1875 C 11.082031 -26.03125 11.25 -25.898438 11.25 -25.796875 C 11.25 -25.710938 11.222656 -25.660156 11.171875 -25.640625 C 10.898438 -25.503906 10.695312 -25.320312 10.5625 -25.09375 C 10.4375 -24.875 10.375 -24.628906 10.375 -24.359375 C 10.375 -23.929688 10.503906 -23.601562 10.765625 -23.375 C 11.035156 -23.15625 11.351562 -23.046875 11.71875 -23.046875 C 12.175781 -23.046875 12.503906 -23.1875 12.703125 -23.46875 C 12.898438 -23.75 13 -24.070312 13 -24.4375 C 13 -25.082031 12.671875 -25.679688 12.015625 -26.234375 C 11.367188 -26.796875 10.488281 -27.078125 9.375 -27.078125 C 8.519531 -27.078125 7.664062 -26.820312 6.8125 -26.3125 C 5.96875 -25.8125 5.28125 -24.9375 4.75 -23.6875 C 4.375 -22.78125 4.144531 -21.742188 4.0625 -20.578125 C 3.988281 -19.410156 3.953125 -18.332031 3.953125 -17.34375 L 3.953125 -15.625 L 1 -15.625 L 1 -15 L 3.953125 -15 L 3.953125 -0.640625 Z M 0.953125 -0.640625 "/></g></g></g><g fill="rgb(96.078491%, 98.429871%, 97.648621%)" fill-opacity="1"><g transform="translate(180.420209, 58.553435)"><g><path d="M 0.953125 -0.640625 L 0.953125 0 L 10.375 0 L 10.375 -0.640625 L 7.375 -0.640625 L 7.375 -15 L 10.609375 -15 L 10.609375 -15.625 L 7.375 -15.625 L 7.375 -23.453125 C 7.375 -25.441406 8.066406 -26.4375 9.453125 -26.4375 C 9.984375 -26.4375 10.414062 -26.351562 10.75 -26.1875 C 11.082031 -26.03125 11.25 -25.898438 11.25 -25.796875 C 11.25 -25.710938 11.222656 -25.660156 11.171875 -25.640625 C 10.898438 -25.503906 10.695312 -25.320312 10.5625 -25.09375 C 10.4375 -24.875 10.375 -24.628906 10.375 -24.359375 C 10.375 -23.929688 10.503906 -23.601562 10.765625 -23.375 C 11.035156 -23.15625 11.351562 -23.046875 11.71875 -23.046875 C 12.175781 -23.046875 12.503906 -23.1875 12.703125 -23.46875 C 12.898438 -23.75 13 -24.070312 13 -24.4375 C 13 -25.082031 12.671875 -25.679688 12.015625 -26.234375 C 11.367188 -26.796875 10.488281 -27.078125 9.375 -27.078125 C 8.519531 -27.078125 7.664062 -26.820312 6.8125 -26.3125 C 5.96875 -25.8125 5.28125 -24.9375 4.75 -23.6875 C 4.375 -22.78125 4.144531 -21.742188 4.0625 -20.578125 C 3.988281 -19.410156 3.953125 -18.332031 3.953125 -17.34375 L 3.953125 -15.625 L 1 -15.625 L 1 -15 L 3.953125 -15 L 3.953125 -0.640625 Z M 0.953125 -0.640625 "/></g></g></g><g fill="rgb(96.078491%, 98.429871%, 97.648621%)" fill-opacity="1"><g transform="translate(194.054756, 58.553435)"><g><path d="M 22.765625 -8.09375 C 22.628906 -8.09375 22.5 -7.945312 22.375 -7.65625 C 21.894531 -6.5625 21.375 -5.539062 20.8125 -4.59375 C 20.257812 -3.65625 19.625 -2.835938 18.90625 -2.140625 C 18.1875 -1.453125 17.382812 -0.914062 16.5 -0.53125 C 15.625 -0.144531 14.65625 0.046875 13.59375 0.046875 C 11.175781 0.046875 9.378906 -0.894531 8.203125 -2.78125 C 7.035156 -4.675781 6.453125 -7.441406 6.453125 -11.078125 L 6.453125 -15.546875 C 6.453125 -19.054688 7.050781 -21.757812 8.25 -23.65625 C 9.445312 -25.5625 11.296875 -26.515625 13.796875 -26.515625 C 14.835938 -26.515625 15.78125 -26.347656 16.625 -26.015625 C 17.476562 -25.679688 18.25 -25.222656 18.9375 -24.640625 C 19.632812 -24.054688 20.234375 -23.351562 20.734375 -22.53125 C 21.242188 -21.707031 21.65625 -20.816406 21.96875 -19.859375 C 22.050781 -19.585938 22.144531 -19.453125 22.25 -19.453125 C 22.382812 -19.453125 22.453125 -19.613281 22.453125 -19.9375 L 22.453125 -26.4375 C 22.453125 -26.675781 22.425781 -26.832031 22.375 -26.90625 C 22.320312 -26.988281 22.238281 -27.03125 22.125 -27.03125 C 22 -27.03125 21.828125 -26.925781 21.609375 -26.71875 L 20.0625 -25.125 C 19.207031 -25.8125 18.25 -26.332031 17.1875 -26.6875 C 16.125 -27.050781 14.992188 -27.234375 13.796875 -27.234375 C 12.046875 -27.234375 10.414062 -26.832031 8.90625 -26.03125 C 7.40625 -25.238281 6.101562 -24.191406 5 -22.890625 C 3.894531 -21.585938 3.035156 -20.101562 2.421875 -18.4375 C 1.816406 -16.78125 1.515625 -15.097656 1.515625 -13.390625 C 1.515625 -11.429688 1.863281 -9.59375 2.5625 -7.875 C 3.269531 -6.15625 4.195312 -4.65625 5.34375 -3.375 C 6.488281 -2.101562 7.773438 -1.097656 9.203125 -0.359375 C 10.640625 0.378906 12.101562 0.75 13.59375 0.75 C 14.84375 0.75 16.039062 0.503906 17.1875 0.015625 C 18.332031 -0.472656 19.351562 -1.222656 20.25 -2.234375 L 22.375 0.078125 C 22.5 0.210938 22.617188 0.28125 22.734375 0.28125 C 22.890625 0.28125 22.96875 0.1875 22.96875 0 L 22.96875 -7.703125 C 22.96875 -7.960938 22.898438 -8.09375 22.765625 -8.09375 Z M 22.765625 -8.09375 "/></g></g></g><g fill="rgb(96.078491%, 98.429871%, 97.648621%)" fill-opacity="1"><g transform="translate(218.493293, 58.553435)"><g><path d="M 7.09375 -13.3125 L 7.09375 -15.625 L 0.875 -15.625 L 0.875 -15 L 3.671875 -15 L 3.671875 -0.640625 L 0.875 -0.640625 L 0.875 0 L 9.890625 0 L 9.890625 -0.640625 L 7.09375 -0.640625 L 7.09375 -11.5625 C 7.09375 -11.988281 7.21875 -12.425781 7.46875 -12.875 C 7.726562 -13.332031 8.0625 -13.742188 8.46875 -14.109375 C 8.882812 -14.484375 9.34375 -14.785156 9.84375 -15.015625 C 10.351562 -15.242188 10.847656 -15.359375 11.328125 -15.359375 C 11.617188 -15.359375 11.875 -15.335938 12.09375 -15.296875 C 12.320312 -15.253906 12.4375 -15.15625 12.4375 -15 C 12.4375 -14.863281 12.367188 -14.769531 12.234375 -14.71875 C 12.078125 -14.601562 11.890625 -14.421875 11.671875 -14.171875 C 11.460938 -13.921875 11.359375 -13.53125 11.359375 -13 C 11.359375 -12.4375 11.546875 -11.972656 11.921875 -11.609375 C 12.296875 -11.253906 12.785156 -11.078125 13.390625 -11.078125 C 13.929688 -11.078125 14.398438 -11.253906 14.796875 -11.609375 C 15.191406 -11.972656 15.390625 -12.476562 15.390625 -13.125 C 15.390625 -13.65625 15.28125 -14.097656 15.0625 -14.453125 C 14.851562 -14.816406 14.582031 -15.109375 14.25 -15.328125 C 13.914062 -15.554688 13.53125 -15.722656 13.09375 -15.828125 C 12.65625 -15.929688 12.210938 -15.984375 11.765625 -15.984375 C 11.128906 -15.984375 10.554688 -15.890625 10.046875 -15.703125 C 9.546875 -15.523438 9.09375 -15.300781 8.6875 -15.03125 C 8.289062 -14.769531 7.957031 -14.484375 7.6875 -14.171875 C 7.425781 -13.867188 7.226562 -13.582031 7.09375 -13.3125 Z M 7.09375 -13.3125 "/></g></g></g><g fill="rgb(96.078491%, 98.429871%, 97.648621%)" fill-opacity="1"><g transform="translate(234.44013, 58.553435)"><g><path d="M 15.671875 -9.6875 C 15.640625 -10.113281 15.5 -10.695312 15.25 -11.4375 C 15 -12.1875 14.609375 -12.90625 14.078125 -13.59375 C 13.546875 -14.289062 12.835938 -14.894531 11.953125 -15.40625 C 11.078125 -15.925781 10.003906 -16.1875 8.734375 -16.1875 C 7.671875 -16.1875 6.679688 -15.929688 5.765625 -15.421875 C 4.847656 -14.921875 4.054688 -14.269531 3.390625 -13.46875 C 2.722656 -12.675781 2.203125 -11.773438 1.828125 -10.765625 C 1.460938 -9.753906 1.28125 -8.734375 1.28125 -7.703125 C 1.28125 -6.660156 1.460938 -5.644531 1.828125 -4.65625 C 2.203125 -3.675781 2.722656 -2.800781 3.390625 -2.03125 C 4.054688 -1.257812 4.859375 -0.632812 5.796875 -0.15625 C 6.742188 0.320312 7.773438 0.5625 8.890625 0.5625 C 9.796875 0.5625 10.617188 0.429688 11.359375 0.171875 C 12.109375 -0.078125 12.769531 -0.421875 13.34375 -0.859375 C 13.914062 -1.296875 14.398438 -1.804688 14.796875 -2.390625 C 15.191406 -2.972656 15.507812 -3.585938 15.75 -4.234375 C 15.832031 -4.410156 15.875 -4.59375 15.875 -4.78125 C 15.875 -4.96875 15.789062 -5.0625 15.625 -5.0625 C 15.5 -5.0625 15.378906 -4.929688 15.265625 -4.671875 C 15.023438 -4.109375 14.726562 -3.546875 14.375 -2.984375 C 14.019531 -2.429688 13.582031 -1.941406 13.0625 -1.515625 C 12.539062 -1.085938 11.945312 -0.738281 11.28125 -0.46875 C 10.613281 -0.207031 9.84375 -0.078125 8.96875 -0.078125 C 7.90625 -0.078125 7.046875 -0.472656 6.390625 -1.265625 C 5.742188 -2.066406 5.421875 -3.347656 5.421875 -5.109375 L 5.421875 -9.171875 L 15.03125 -9.171875 C 15.457031 -9.171875 15.671875 -9.34375 15.671875 -9.6875 Z M 5.421875 -9.8125 L 5.421875 -11.40625 C 5.421875 -12.28125 5.519531 -12.988281 5.71875 -13.53125 C 5.914062 -14.082031 6.175781 -14.503906 6.5 -14.796875 C 6.820312 -15.085938 7.179688 -15.285156 7.578125 -15.390625 C 7.972656 -15.492188 8.367188 -15.546875 8.765625 -15.546875 C 9.410156 -15.546875 9.9375 -15.429688 10.34375 -15.203125 C 10.757812 -14.984375 11.085938 -14.6875 11.328125 -14.3125 C 11.566406 -13.9375 11.722656 -13.523438 11.796875 -13.078125 C 11.878906 -12.628906 11.921875 -12.164062 11.921875 -11.6875 C 11.921875 -10.4375 11.722656 -9.8125 11.328125 -9.8125 Z M 5.421875 -9.8125 "/></g></g></g><g fill="rgb(96.078491%, 98.429871%, 97.648621%)" fill-opacity="1"><g transform="translate(251.742452, 58.553435)"><g><path d="M 4.578125 -15.234375 C 3.734375 -14.671875 3.3125 -14.003906 3.3125 -13.234375 C 3.3125 -12.867188 3.4375 -12.53125 3.6875 -12.21875 C 3.9375 -11.914062 4.289062 -11.765625 4.75 -11.765625 C 5.195312 -11.765625 5.5625 -11.894531 5.84375 -12.15625 C 6.125 -12.425781 6.265625 -12.757812 6.265625 -13.15625 C 6.265625 -13.34375 6.226562 -13.535156 6.15625 -13.734375 C 6.09375 -13.929688 5.96875 -14.125 5.78125 -14.3125 C 5.644531 -14.445312 5.535156 -14.539062 5.453125 -14.59375 C 5.378906 -14.644531 5.34375 -14.710938 5.34375 -14.796875 C 5.34375 -14.898438 5.421875 -15.003906 5.578125 -15.109375 C 5.742188 -15.210938 5.945312 -15.304688 6.1875 -15.390625 C 6.425781 -15.472656 6.695312 -15.539062 7 -15.59375 C 7.300781 -15.644531 7.597656 -15.671875 7.890625 -15.671875 C 8.710938 -15.671875 9.363281 -15.507812 9.84375 -15.1875 C 10.320312 -14.875 10.5625 -14.265625 10.5625 -13.359375 L 10.5625 -8.65625 C 9.34375 -8.65625 8.203125 -8.523438 7.140625 -8.265625 C 6.078125 -8.015625 5.144531 -7.648438 4.34375 -7.171875 C 3.550781 -6.691406 2.925781 -6.097656 2.46875 -5.390625 C 2.019531 -4.691406 1.796875 -3.90625 1.796875 -3.03125 C 1.796875 -2.394531 1.90625 -1.84375 2.125 -1.375 C 2.351562 -0.90625 2.664062 -0.53125 3.0625 -0.25 C 3.46875 0.0195312 3.925781 0.222656 4.4375 0.359375 C 4.957031 0.492188 5.507812 0.5625 6.09375 0.5625 C 6.707031 0.5625 7.257812 0.488281 7.75 0.34375 C 8.25 0.195312 8.691406 0.0078125 9.078125 -0.21875 C 9.460938 -0.445312 9.785156 -0.6875 10.046875 -0.9375 C 10.316406 -1.1875 10.53125 -1.429688 10.6875 -1.671875 C 10.769531 -1.117188 11.019531 -0.609375 11.4375 -0.140625 C 11.863281 0.328125 12.609375 0.5625 13.671875 0.5625 C 14.367188 0.5625 14.945312 0.453125 15.40625 0.234375 C 15.875 0.0234375 16.253906 -0.222656 16.546875 -0.515625 C 16.835938 -0.804688 17.039062 -1.101562 17.15625 -1.40625 C 17.28125 -1.71875 17.34375 -1.953125 17.34375 -2.109375 C 17.34375 -2.242188 17.300781 -2.3125 17.21875 -2.3125 C 17.144531 -2.3125 17.054688 -2.207031 16.953125 -2 C 16.734375 -1.539062 16.460938 -1.171875 16.140625 -0.890625 C 15.828125 -0.617188 15.484375 -0.484375 15.109375 -0.484375 C 14.578125 -0.484375 14.257812 -0.703125 14.15625 -1.140625 C 14.050781 -1.578125 14 -2.179688 14 -2.953125 L 14 -12.59375 C 14 -13.738281 13.570312 -14.625 12.71875 -15.25 C 11.863281 -15.875 10.5625 -16.1875 8.8125 -16.1875 C 7.988281 -16.1875 7.195312 -16.097656 6.4375 -15.921875 C 5.675781 -15.753906 5.054688 -15.523438 4.578125 -15.234375 Z M 10.5625 -8.25 L 10.5625 -2.71875 C 10.5625 -2.476562 10.445312 -2.222656 10.21875 -1.953125 C 10 -1.691406 9.722656 -1.445312 9.390625 -1.21875 C 9.054688 -0.988281 8.707031 -0.804688 8.34375 -0.671875 C 7.988281 -0.546875 7.691406 -0.484375 7.453125 -0.484375 C 6.628906 -0.484375 6.003906 -0.800781 5.578125 -1.4375 C 5.148438 -2.070312 4.9375 -2.9375 4.9375 -4.03125 C 4.9375 -4.90625 5.097656 -5.609375 5.421875 -6.140625 C 5.742188 -6.671875 6.160156 -7.082031 6.671875 -7.375 C 7.191406 -7.664062 7.789062 -7.867188 8.46875 -7.984375 C 9.144531 -8.109375 9.84375 -8.195312 10.5625 -8.25 Z M 10.5625 -8.25 "/></g></g></g><g fill="rgb(96.078491%, 98.429871%, 97.648621%)" fill-opacity="1"><g transform="translate(269.403568, 58.553435)"><g><path d="M 7.0625 -15.625 L 7.0625 -21.890625 L 3.625 -20.171875 L 3.625 -15.625 L 0.921875 -15.625 L 0.921875 -15 L 3.625 -15 L 3.625 -4.234375 C 3.625 -2.742188 4.019531 -1.570312 4.8125 -0.71875 C 5.613281 0.132812 6.773438 0.5625 8.296875 0.5625 C 9.859375 0.5625 10.960938 0.25 11.609375 -0.375 C 12.265625 -1 12.6875 -1.859375 12.875 -2.953125 C 12.90625 -3.085938 12.921875 -3.164062 12.921875 -3.1875 C 12.921875 -3.21875 12.921875 -3.257812 12.921875 -3.3125 C 12.921875 -3.519531 12.84375 -3.625 12.6875 -3.625 C 12.46875 -3.625 12.347656 -3.492188 12.328125 -3.234375 C 12.191406 -2.328125 11.882812 -1.613281 11.40625 -1.09375 C 10.925781 -0.570312 10.34375 -0.3125 9.65625 -0.3125 C 8.71875 -0.3125 8.050781 -0.628906 7.65625 -1.265625 C 7.257812 -1.910156 7.0625 -2.867188 7.0625 -4.140625 L 7.0625 -15 L 10.921875 -15 L 10.921875 -15.625 Z M 7.0625 -15.625 "/></g></g></g><g fill="rgb(96.078491%, 98.429871%, 97.648621%)" fill-opacity="1"><g transform="translate(282.878665, 58.553435)"><g><path d="M 7.859375 -15.625 L 1.4375 -15.625 L 1.4375 -15 L 4.421875 -15 L 4.421875 -0.640625 L 1.4375 -0.640625 L 1.4375 0 L 10.84375 0 L 10.84375 -0.640625 L 7.859375 -0.640625 Z M 8.171875 -23.015625 C 8.171875 -23.597656 7.972656 -24.085938 7.578125 -24.484375 C 7.179688 -24.878906 6.6875 -25.078125 6.09375 -25.078125 C 5.507812 -25.078125 5.019531 -24.878906 4.625 -24.484375 C 4.226562 -24.085938 4.03125 -23.597656 4.03125 -23.015625 C 4.03125 -22.421875 4.226562 -21.925781 4.625 -21.53125 C 5.019531 -21.132812 5.507812 -20.9375 6.09375 -20.9375 C 6.6875 -20.9375 7.179688 -21.132812 7.578125 -21.53125 C 7.972656 -21.925781 8.171875 -22.421875 8.171875 -23.015625 Z M 8.171875 -23.015625 "/></g></g></g><g fill="rgb(96.078491%, 98.429871%, 97.648621%)" fill-opacity="1"><g transform="translate(294.599589, 58.553435)"><g><path d="M 9.046875 0.5625 C 10.242188 0.5625 11.328125 0.289062 12.296875 -0.25 C 13.265625 -0.800781 14.085938 -1.488281 14.765625 -2.3125 C 15.453125 -3.132812 15.976562 -4.035156 16.34375 -5.015625 C 16.71875 -6.003906 16.90625 -6.9375 16.90625 -7.8125 C 16.90625 -8.6875 16.71875 -9.613281 16.34375 -10.59375 C 15.976562 -11.582031 15.453125 -12.488281 14.765625 -13.3125 C 14.085938 -14.132812 13.265625 -14.816406 12.296875 -15.359375 C 11.328125 -15.910156 10.242188 -16.1875 9.046875 -16.1875 C 7.847656 -16.1875 6.765625 -15.910156 5.796875 -15.359375 C 4.828125 -14.816406 3.992188 -14.132812 3.296875 -13.3125 C 2.609375 -12.488281 2.078125 -11.582031 1.703125 -10.59375 C 1.335938 -9.613281 1.15625 -8.6875 1.15625 -7.8125 C 1.15625 -6.9375 1.335938 -6.003906 1.703125 -5.015625 C 2.078125 -4.035156 2.609375 -3.132812 3.296875 -2.3125 C 3.992188 -1.488281 4.828125 -0.800781 5.796875 -0.25 C 6.765625 0.289062 7.847656 0.5625 9.046875 0.5625 Z M 5.296875 -8.6875 C 5.296875 -9.8125 5.34375 -10.796875 5.4375 -11.640625 C 5.53125 -12.492188 5.707031 -13.210938 5.96875 -13.796875 C 6.238281 -14.378906 6.617188 -14.816406 7.109375 -15.109375 C 7.609375 -15.398438 8.253906 -15.546875 9.046875 -15.546875 C 9.847656 -15.546875 10.492188 -15.398438 10.984375 -15.109375 C 11.472656 -14.816406 11.84375 -14.378906 12.09375 -13.796875 C 12.351562 -13.210938 12.53125 -12.492188 12.625 -11.640625 C 12.71875 -10.796875 12.765625 -9.8125 12.765625 -8.6875 L 12.765625 -6.984375 C 12.765625 -5.785156 12.71875 -4.753906 12.625 -3.890625 C 12.53125 -3.023438 12.351562 -2.3125 12.09375 -1.75 C 11.84375 -1.195312 11.472656 -0.78125 10.984375 -0.5 C 10.492188 -0.21875 9.847656 -0.078125 9.046875 -0.078125 C 8.253906 -0.078125 7.609375 -0.21875 7.109375 -0.5 C 6.617188 -0.78125 6.238281 -1.195312 5.96875 -1.75 C 5.707031 -2.3125 5.53125 -3.023438 5.4375 -3.890625 C 5.34375 -4.753906 5.296875 -5.785156 5.296875 -6.984375 Z M 5.296875 -8.6875 "/></g></g></g><g fill="rgb(96.078491%, 98.429871%, 97.648621%)" fill-opacity="1"><g transform="translate(312.420168, 58.553435)"><g><path d="M 7.65625 -12.59375 L 7.65625 -15.625 L 1.4375 -15.625 L 1.4375 -15 L 4.234375 -15 L 4.234375 -0.640625 L 1.4375 -0.640625 L 1.4375 0 L 10.453125 0 L 10.453125 -0.640625 L 7.65625 -0.640625 L 7.65625 -10.53125 C 7.65625 -10.976562 7.773438 -11.460938 8.015625 -11.984375 C 8.253906 -12.503906 8.566406 -12.988281 8.953125 -13.4375 C 9.335938 -13.882812 9.773438 -14.253906 10.265625 -14.546875 C 10.753906 -14.847656 11.265625 -15 11.796875 -15 C 12.566406 -15 13.128906 -14.757812 13.484375 -14.28125 C 13.847656 -13.800781 14.03125 -13.039062 14.03125 -12 L 14.03125 -0.640625 L 11.25 -0.640625 L 11.25 0 L 20.25 0 L 20.25 -0.640625 L 17.46875 -0.640625 L 17.46875 -12.28125 C 17.46875 -13.664062 17.070312 -14.625 16.28125 -15.15625 C 15.5 -15.6875 14.5 -15.953125 13.28125 -15.953125 C 11.8125 -15.953125 10.617188 -15.617188 9.703125 -14.953125 C 8.785156 -14.285156 8.101562 -13.5 7.65625 -12.59375 Z M 7.65625 -12.59375 "/></g></g></g><g fill="rgb(96.078491%, 98.429871%, 97.648621%)" fill-opacity="1"><g transform="translate(333.589585, 58.553435)"><g><path d="M 11.328125 -15.984375 L 10.40625 -15.078125 C 9.582031 -15.816406 8.570312 -16.1875 7.375 -16.1875 C 6.519531 -16.1875 5.757812 -16.046875 5.09375 -15.765625 C 4.4375 -15.492188 3.890625 -15.117188 3.453125 -14.640625 C 3.015625 -14.160156 2.679688 -13.613281 2.453125 -13 C 2.222656 -12.382812 2.109375 -11.757812 2.109375 -11.125 C 2.109375 -10.144531 2.394531 -9.28125 2.96875 -8.53125 C 3.539062 -7.789062 4.398438 -7.285156 5.546875 -7.015625 C 5.890625 -6.929688 6.273438 -6.84375 6.703125 -6.75 C 7.128906 -6.664062 7.5625 -6.5625 8 -6.4375 C 8.4375 -6.320312 8.859375 -6.191406 9.265625 -6.046875 C 9.679688 -5.898438 10.050781 -5.734375 10.375 -5.546875 C 10.90625 -5.253906 11.269531 -4.90625 11.46875 -4.5 C 11.664062 -4.101562 11.765625 -3.691406 11.765625 -3.265625 C 11.765625 -2.710938 11.625 -2.226562 11.34375 -1.8125 C 11.0625 -1.40625 10.707031 -1.070312 10.28125 -0.8125 C 9.863281 -0.5625 9.414062 -0.375 8.9375 -0.25 C 8.457031 -0.132812 8.003906 -0.078125 7.578125 -0.078125 C 6.347656 -0.078125 5.269531 -0.414062 4.34375 -1.09375 C 3.414062 -1.769531 2.765625 -2.816406 2.390625 -4.234375 C 2.304688 -4.460938 2.203125 -4.578125 2.078125 -4.578125 C 1.910156 -4.578125 1.828125 -4.472656 1.828125 -4.265625 L 1.828125 0 C 1.828125 0.207031 1.910156 0.3125 2.078125 0.3125 C 2.179688 0.3125 2.273438 0.25 2.359375 0.125 L 3.1875 -1.109375 C 3.664062 -0.609375 4.269531 -0.207031 5 0.09375 C 5.726562 0.40625 6.628906 0.5625 7.703125 0.5625 C 8.578125 0.5625 9.34375 0.421875 10 0.140625 C 10.664062 -0.140625 11.234375 -0.523438 11.703125 -1.015625 C 12.171875 -1.503906 12.523438 -2.070312 12.765625 -2.71875 C 13.003906 -3.375 13.125 -4.085938 13.125 -4.859375 C 13.125 -5.867188 12.867188 -6.828125 12.359375 -7.734375 C 11.859375 -8.640625 10.898438 -9.332031 9.484375 -9.8125 C 9.242188 -9.882812 8.9375 -9.96875 8.5625 -10.0625 C 8.195312 -10.15625 7.804688 -10.253906 7.390625 -10.359375 C 6.984375 -10.472656 6.570312 -10.582031 6.15625 -10.6875 C 5.75 -10.789062 5.410156 -10.882812 5.140625 -10.96875 C 4.609375 -11.15625 4.226562 -11.382812 4 -11.65625 C 3.78125 -11.9375 3.671875 -12.332031 3.671875 -12.84375 C 3.671875 -13.53125 4 -14.148438 4.65625 -14.703125 C 5.320312 -15.265625 6.160156 -15.546875 7.171875 -15.546875 C 7.816406 -15.546875 8.382812 -15.425781 8.875 -15.1875 C 9.363281 -14.945312 9.773438 -14.640625 10.109375 -14.265625 C 10.441406 -13.898438 10.707031 -13.484375 10.90625 -13.015625 C 11.101562 -12.554688 11.242188 -12.097656 11.328125 -11.640625 C 11.347656 -11.484375 11.425781 -11.40625 11.5625 -11.40625 C 11.664062 -11.40625 11.71875 -11.484375 11.71875 -11.640625 L 11.71875 -15.90625 C 11.71875 -16.09375 11.679688 -16.1875 11.609375 -16.1875 C 11.554688 -16.1875 11.460938 -16.117188 11.328125 -15.984375 Z M 11.328125 -15.984375 "/></g></g></g></svg>