<svg xmlns="http://www.w3.org/2000/svg" xmlns:xlink="http://www.w3.org/1999/xlink" width="500" zoomAndPan="magnify" viewBox="0 0 375 119.999999" height="160" preserveAspectRatio="xMidYMid meet" version="1.0"><defs><g><g id="id1"/></g></defs><g fill="rgb(96.078491%, 98.429871%, 97.648621%)" fill-opacity="1"><g transform="translate(12.281252, 74.730432)"><g><path d="M 14.953125 -29.765625 C 13.117188 -29.765625 11.390625 -29.359375 9.765625 -28.546875 C 8.140625 -27.734375 6.722656 -26.628906 5.515625 -25.234375 C 4.304688 -23.835938 3.34375 -22.207031 2.625 -20.34375 C 1.914062 -18.488281 1.5625 -16.53125 1.5625 -14.46875 C 1.5625 -12.40625 1.925781 -10.441406 2.65625 -8.578125 C 3.382812 -6.722656 4.359375 -5.097656 5.578125 -3.703125 C 6.796875 -2.304688 8.203125 -1.203125 9.796875 -0.390625 C 11.398438 0.421875 13.070312 0.828125 14.8125 0.828125 C 16.207031 0.828125 17.519531 0.644531 18.75 0.28125 C 19.988281 -0.0820312 21.078125 -0.640625 22.015625 -1.390625 C 22.960938 -2.148438 23.707031 -3.117188 24.25 -4.296875 C 24.789062 -5.472656 25.0625 -6.875 25.0625 -8.5 L 25.0625 -9.984375 L 28.84375 -9.984375 L 28.84375 -10.671875 L 15.90625 -10.671875 L 15.90625 -9.984375 L 20.5625 -9.984375 L 20.5625 -5.890625 C 20.5625 -5.191406 20.488281 -4.492188 20.34375 -3.796875 C 20.207031 -3.097656 19.929688 -2.460938 19.515625 -1.890625 C 19.109375 -1.328125 18.535156 -0.863281 17.796875 -0.5 C 17.054688 -0.132812 16.09375 0.046875 14.90625 0.046875 C 12.375 0.046875 10.410156 -0.953125 9.015625 -2.953125 C 7.617188 -4.960938 6.921875 -7.941406 6.921875 -11.890625 L 6.921875 -17.25 C 6.921875 -19.3125 7.117188 -21.082031 7.515625 -22.5625 C 7.910156 -24.050781 8.460938 -25.265625 9.171875 -26.203125 C 9.878906 -27.148438 10.71875 -27.847656 11.6875 -28.296875 C 12.664062 -28.753906 13.753906 -28.984375 14.953125 -28.984375 C 17.066406 -28.984375 18.878906 -28.363281 20.390625 -27.125 C 21.898438 -25.894531 23.125 -23.796875 24.0625 -20.828125 C 24.144531 -20.566406 24.273438 -20.4375 24.453125 -20.4375 C 24.617188 -20.4375 24.703125 -20.566406 24.703125 -20.828125 L 24.703125 -29.0625 C 24.703125 -29.382812 24.585938 -29.546875 24.359375 -29.546875 C 24.210938 -29.546875 24.101562 -29.515625 24.03125 -29.453125 C 23.957031 -29.398438 23.863281 -29.316406 23.75 -29.203125 L 21.875 -27.328125 C 21.03125 -28.078125 20.003906 -28.671875 18.796875 -29.109375 C 17.597656 -29.546875 16.316406 -29.765625 14.953125 -29.765625 Z M 14.953125 -29.765625 "/></g></g></g><g fill="rgb(96.078491%, 98.429871%, 97.648621%)" fill-opacity="1"><g transform="translate(41.43758, 74.730432)"><g><path d="M 9.890625 0.609375 C 11.203125 0.609375 12.382812 0.3125 13.4375 -0.28125 C 14.5 -0.875 15.398438 -1.617188 16.140625 -2.515625 C 16.878906 -3.421875 17.453125 -4.410156 17.859375 -5.484375 C 18.273438 -6.566406 18.484375 -7.585938 18.484375 -8.546875 C 18.484375 -9.503906 18.273438 -10.519531 17.859375 -11.59375 C 17.453125 -12.664062 16.878906 -13.648438 16.140625 -14.546875 C 15.398438 -15.453125 14.5 -16.203125 13.4375 -16.796875 C 12.382812 -17.390625 11.203125 -17.6875 9.890625 -17.6875 C 8.585938 -17.6875 7.40625 -17.390625 6.34375 -16.796875 C 5.28125 -16.203125 4.367188 -15.453125 3.609375 -14.546875 C 2.859375 -13.648438 2.28125 -12.664062 1.875 -11.59375 C 1.46875 -10.519531 1.265625 -9.503906 1.265625 -8.546875 C 1.265625 -7.585938 1.46875 -6.566406 1.875 -5.484375 C 2.28125 -4.410156 2.859375 -3.421875 3.609375 -2.515625 C 4.367188 -1.617188 5.28125 -0.875 6.34375 -0.28125 C 7.40625 0.3125 8.585938 0.609375 9.890625 0.609375 Z M 5.796875 -9.5 C 5.796875 -10.71875 5.84375 -11.789062 5.9375 -12.71875 C 6.039062 -13.65625 6.238281 -14.441406 6.53125 -15.078125 C 6.820312 -15.710938 7.234375 -16.191406 7.765625 -16.515625 C 8.304688 -16.835938 9.015625 -17 9.890625 -17 C 10.765625 -17 11.46875 -16.835938 12 -16.515625 C 12.539062 -16.191406 12.945312 -15.710938 13.21875 -15.078125 C 13.5 -14.441406 13.6875 -13.65625 13.78125 -12.71875 C 13.882812 -11.789062 13.9375 -10.71875 13.9375 -9.5 L 13.9375 -7.625 C 13.9375 -6.320312 13.882812 -5.195312 13.78125 -4.25 C 13.6875 -3.300781 13.5 -2.519531 13.21875 -1.90625 C 12.945312 -1.300781 12.539062 -0.847656 12 -0.546875 C 11.46875 -0.242188 10.765625 -0.09375 9.890625 -0.09375 C 9.015625 -0.09375 8.304688 -0.242188 7.765625 -0.546875 C 7.234375 -0.847656 6.820312 -1.300781 6.53125 -1.90625 C 6.238281 -2.519531 6.039062 -3.300781 5.9375 -4.25 C 5.84375 -5.195312 5.796875 -6.320312 5.796875 -7.625 Z M 5.796875 -9.5 "/></g></g></g><g fill="rgb(96.078491%, 98.429871%, 97.648621%)" fill-opacity="1"><g transform="translate(60.91872, 74.730432)"><g><path d="M 9.890625 0.609375 C 11.203125 0.609375 12.382812 0.3125 13.4375 -0.28125 C 14.5 -0.875 15.398438 -1.617188 16.140625 -2.515625 C 16.878906 -3.421875 17.453125 -4.410156 17.859375 -5.484375 C 18.273438 -6.566406 18.484375 -7.585938 18.484375 -8.546875 C 18.484375 -9.503906 18.273438 -10.519531 17.859375 -11.59375 C 17.453125 -12.664062 16.878906 -13.648438 16.140625 -14.546875 C 15.398438 -15.453125 14.5 -16.203125 13.4375 -16.796875 C 12.382812 -17.390625 11.203125 -17.6875 9.890625 -17.6875 C 8.585938 -17.6875 7.40625 -17.390625 6.34375 -16.796875 C 5.28125 -16.203125 4.367188 -15.453125 3.609375 -14.546875 C 2.859375 -13.648438 2.28125 -12.664062 1.875 -11.59375 C 1.46875 -10.519531 1.265625 -9.503906 1.265625 -8.546875 C 1.265625 -7.585938 1.46875 -6.566406 1.875 -5.484375 C 2.28125 -4.410156 2.859375 -3.421875 3.609375 -2.515625 C 4.367188 -1.617188 5.28125 -0.875 6.34375 -0.28125 C 7.40625 0.3125 8.585938 0.609375 9.890625 0.609375 Z M 5.796875 -9.5 C 5.796875 -10.71875 5.84375 -11.789062 5.9375 -12.71875 C 6.039062 -13.65625 6.238281 -14.441406 6.53125 -15.078125 C 6.820312 -15.710938 7.234375 -16.191406 7.765625 -16.515625 C 8.304688 -16.835938 9.015625 -17 9.890625 -17 C 10.765625 -17 11.46875 -16.835938 12 -16.515625 C 12.539062 -16.191406 12.945312 -15.710938 13.21875 -15.078125 C 13.5 -14.441406 13.6875 -13.65625 13.78125 -12.71875 C 13.882812 -11.789062 13.9375 -10.71875 13.9375 -9.5 L 13.9375 -7.625 C 13.9375 -6.320312 13.882812 -5.195312 13.78125 -4.25 C 13.6875 -3.300781 13.5 -2.519531 13.21875 -1.90625 C 12.945312 -1.300781 12.539062 -0.847656 12 -0.546875 C 11.46875 -0.242188 10.765625 -0.09375 9.890625 -0.09375 C 9.015625 -0.09375 8.304688 -0.242188 7.765625 -0.546875 C 7.234375 -0.847656 6.820312 -1.300781 6.53125 -1.90625 C 6.238281 -2.519531 6.039062 -3.300781 5.9375 -4.25 C 5.84375 -5.195312 5.796875 -6.320312 5.796875 -7.625 Z M 5.796875 -9.5 "/></g></g></g><g fill="rgb(96.078491%, 98.429871%, 97.648621%)" fill-opacity="1"><g transform="translate(80.399859, 74.730432)"><g><path d="M 11.15625 -28.59375 L 14.46875 -28.59375 L 14.46875 -15.34375 C 13.394531 -16.90625 11.8125 -17.6875 9.71875 -17.6875 C 8.675781 -17.6875 7.660156 -17.425781 6.671875 -16.90625 C 5.679688 -16.382812 4.804688 -15.691406 4.046875 -14.828125 C 3.296875 -13.972656 2.6875 -13 2.21875 -11.90625 C 1.757812 -10.820312 1.53125 -9.710938 1.53125 -8.578125 C 1.53125 -7.359375 1.78125 -6.191406 2.28125 -5.078125 C 2.789062 -3.960938 3.4375 -2.984375 4.21875 -2.140625 C 5.007812 -1.296875 5.882812 -0.625 6.84375 -0.125 C 7.800781 0.363281 8.71875 0.609375 9.59375 0.609375 C 10.75 0.609375 11.71875 0.316406 12.5 -0.265625 C 13.289062 -0.847656 13.945312 -1.515625 14.46875 -2.265625 L 14.46875 0 L 21.53125 0 L 21.53125 -0.703125 L 18.21875 -0.703125 L 18.21875 -29.28125 L 11.15625 -29.28125 Z M 6.0625 -9.671875 C 6.0625 -12.378906 6.347656 -14.273438 6.921875 -15.359375 C 7.503906 -16.453125 8.492188 -17 9.890625 -17 C 10.503906 -17 11.050781 -16.894531 11.53125 -16.6875 C 12.007812 -16.488281 12.425781 -16.222656 12.78125 -15.890625 C 13.144531 -15.554688 13.460938 -15.195312 13.734375 -14.8125 C 14.015625 -14.4375 14.257812 -14.078125 14.46875 -13.734375 L 14.46875 -3.53125 C 13.832031 -2.457031 13.128906 -1.613281 12.359375 -1 C 11.585938 -0.394531 10.722656 -0.09375 9.765625 -0.09375 C 9.148438 -0.09375 8.609375 -0.210938 8.140625 -0.453125 C 7.679688 -0.703125 7.296875 -1.109375 6.984375 -1.671875 C 6.679688 -2.242188 6.453125 -3.007812 6.296875 -3.96875 C 6.140625 -4.925781 6.0625 -6.113281 6.0625 -7.53125 Z M 6.0625 -9.671875 "/></g></g></g><g fill="rgb(96.078491%, 98.429871%, 97.648621%)" fill-opacity="1"><g transform="translate(102.97532, 74.730432)"><g><path d="M 19.65625 -29.59375 L 18.390625 -27.984375 C 17.867188 -28.265625 17.375 -28.519531 16.90625 -28.75 C 16.445312 -28.988281 15.972656 -29.179688 15.484375 -29.328125 C 15.003906 -29.472656 14.492188 -29.582031 13.953125 -29.65625 C 13.421875 -29.726562 12.804688 -29.765625 12.109375 -29.765625 C 10.691406 -29.765625 9.421875 -29.53125 8.296875 -29.0625 C 7.179688 -28.601562 6.226562 -27.976562 5.4375 -27.1875 C 4.65625 -26.40625 4.0625 -25.503906 3.65625 -24.484375 C 3.25 -23.472656 3.046875 -22.398438 3.046875 -21.265625 C 3.046875 -19.722656 3.519531 -18.3125 4.46875 -17.03125 C 5.414062 -15.757812 6.890625 -14.789062 8.890625 -14.125 C 9.847656 -13.800781 10.660156 -13.535156 11.328125 -13.328125 C 11.992188 -13.128906 12.617188 -12.9375 13.203125 -12.75 C 13.785156 -12.5625 14.375 -12.359375 14.96875 -12.140625 C 15.5625 -11.921875 16.25 -11.625 17.03125 -11.25 C 18.019531 -10.78125 18.6875 -10.128906 19.03125 -9.296875 C 19.382812 -8.472656 19.5625 -7.640625 19.5625 -6.796875 C 19.5625 -5.753906 19.359375 -4.800781 18.953125 -3.9375 C 18.546875 -3.082031 18.007812 -2.363281 17.34375 -1.78125 C 16.675781 -1.207031 15.90625 -0.757812 15.03125 -0.4375 C 14.164062 -0.113281 13.28125 0.046875 12.375 0.046875 C 11.332031 0.046875 10.332031 -0.132812 9.375 -0.5 C 8.414062 -0.863281 7.523438 -1.378906 6.703125 -2.046875 C 5.890625 -2.710938 5.1875 -3.539062 4.59375 -4.53125 C 4 -5.519531 3.539062 -6.625 3.21875 -7.84375 C 3.132812 -8.21875 2.976562 -8.40625 2.75 -8.40625 C 2.539062 -8.40625 2.4375 -8.203125 2.4375 -7.796875 L 2.4375 0 C 2.4375 0.375 2.566406 0.5625 2.828125 0.5625 C 3.003906 0.5625 3.195312 0.414062 3.40625 0.125 L 4.96875 -2.140625 C 5.3125 -1.816406 5.738281 -1.476562 6.25 -1.125 C 6.757812 -0.78125 7.328125 -0.460938 7.953125 -0.171875 C 8.578125 0.117188 9.242188 0.359375 9.953125 0.546875 C 10.671875 0.734375 11.40625 0.828125 12.15625 0.828125 C 13.550781 0.828125 14.84375 0.570312 16.03125 0.0625 C 17.226562 -0.445312 18.257812 -1.148438 19.125 -2.046875 C 20 -2.953125 20.691406 -4.019531 21.203125 -5.25 C 21.710938 -6.488281 21.96875 -7.816406 21.96875 -9.234375 C 21.96875 -11.179688 21.507812 -12.832031 20.59375 -14.1875 C 19.675781 -15.539062 18.226562 -16.503906 16.25 -17.078125 C 15.582031 -17.285156 14.957031 -17.460938 14.375 -17.609375 C 13.800781 -17.753906 13.207031 -17.910156 12.59375 -18.078125 C 11.976562 -18.253906 11.335938 -18.453125 10.671875 -18.671875 C 10.003906 -18.890625 9.265625 -19.160156 8.453125 -19.484375 C 7.554688 -19.828125 6.875 -20.363281 6.40625 -21.09375 C 5.9375 -21.820312 5.703125 -22.664062 5.703125 -23.625 C 5.703125 -24.519531 5.890625 -25.304688 6.265625 -25.984375 C 6.648438 -26.671875 7.140625 -27.234375 7.734375 -27.671875 C 8.328125 -28.109375 9.007812 -28.4375 9.78125 -28.65625 C 10.550781 -28.875 11.328125 -28.984375 12.109375 -28.984375 C 13.304688 -28.984375 14.351562 -28.78125 15.25 -28.375 C 16.15625 -27.96875 16.910156 -27.425781 17.515625 -26.75 C 18.128906 -26.082031 18.613281 -25.3125 18.96875 -24.4375 C 19.332031 -23.570312 19.578125 -22.675781 19.703125 -21.75 C 19.722656 -21.457031 19.851562 -21.3125 20.09375 -21.3125 C 20.289062 -21.3125 20.390625 -21.457031 20.390625 -21.75 L 20.390625 -29.5 C 20.390625 -29.789062 20.304688 -29.9375 20.140625 -29.9375 C 19.992188 -29.9375 19.832031 -29.820312 19.65625 -29.59375 Z M 19.65625 -29.59375 "/></g></g></g><g fill="rgb(96.078491%, 98.429871%, 97.648621%)" fill-opacity="1"><g transform="translate(126.596748, 74.730432)"><g><path d="M 7.71875 -17.078125 L 7.71875 -23.921875 L 3.96875 -22.046875 L 3.96875 -17.078125 L 1 -17.078125 L 1 -16.390625 L 3.96875 -16.390625 L 3.96875 -4.625 C 3.96875 -2.988281 4.398438 -1.707031 5.265625 -0.78125 C 6.140625 0.144531 7.40625 0.609375 9.0625 0.609375 C 10.78125 0.609375 11.992188 0.269531 12.703125 -0.40625 C 13.410156 -1.09375 13.867188 -2.03125 14.078125 -3.21875 C 14.109375 -3.363281 14.125 -3.453125 14.125 -3.484375 C 14.125 -3.515625 14.125 -3.554688 14.125 -3.609375 C 14.125 -3.847656 14.035156 -3.96875 13.859375 -3.96875 C 13.628906 -3.96875 13.5 -3.820312 13.46875 -3.53125 C 13.320312 -2.539062 12.984375 -1.757812 12.453125 -1.1875 C 11.929688 -0.625 11.296875 -0.34375 10.546875 -0.34375 C 9.523438 -0.34375 8.796875 -0.691406 8.359375 -1.390625 C 7.929688 -2.085938 7.71875 -3.132812 7.71875 -4.53125 L 7.71875 -16.390625 L 11.9375 -16.390625 L 11.9375 -17.078125 Z M 7.71875 -17.078125 "/></g></g></g><g fill="rgb(96.078491%, 98.429871%, 97.648621%)" fill-opacity="1"><g transform="translate(141.327456, 74.730432)"><g><path d="M 15.390625 -3.265625 L 15.390625 0 L 22.1875 0 L 22.1875 -0.703125 L 19.125 -0.703125 L 19.125 -17.078125 L 12.328125 -17.078125 L 12.328125 -16.390625 L 15.390625 -16.390625 L 15.390625 -5.53125 C 15.390625 -5.070312 15.25 -4.566406 14.96875 -4.015625 C 14.695312 -3.460938 14.328125 -2.945312 13.859375 -2.46875 C 13.390625 -1.988281 12.847656 -1.585938 12.234375 -1.265625 C 11.628906 -0.941406 11.007812 -0.78125 10.375 -0.78125 C 9.351562 -0.78125 8.695312 -1.023438 8.40625 -1.515625 C 8.113281 -2.015625 7.96875 -2.816406 7.96875 -3.921875 L 7.96875 -17.078125 L 1.171875 -17.078125 L 1.171875 -16.390625 L 4.234375 -16.390625 L 4.234375 -4.234375 C 4.234375 -3.296875 4.347656 -2.519531 4.578125 -1.90625 C 4.804688 -1.300781 5.125 -0.820312 5.53125 -0.46875 C 5.9375 -0.125 6.40625 0.117188 6.9375 0.265625 C 7.476562 0.410156 8.039062 0.484375 8.625 0.484375 C 10.164062 0.484375 11.507812 0.15625 12.65625 -0.5 C 13.800781 -1.15625 14.710938 -2.078125 15.390625 -3.265625 Z M 15.390625 -3.265625 "/></g></g></g><g fill="rgb(96.078491%, 98.429871%, 97.648621%)" fill-opacity="1"><g transform="translate(164.861714, 74.730432)"><g><path d="M 1.046875 -0.703125 L 1.046875 0 L 11.328125 0 L 11.328125 -0.703125 L 8.0625 -0.703125 L 8.0625 -16.390625 L 11.59375 -16.390625 L 11.59375 -17.078125 L 8.0625 -17.078125 L 8.0625 -25.625 C 8.0625 -27.800781 8.816406 -28.890625 10.328125 -28.890625 C 10.910156 -28.890625 11.378906 -28.800781 11.734375 -28.625 C 12.097656 -28.457031 12.28125 -28.3125 12.28125 -28.1875 C 12.28125 -28.101562 12.253906 -28.046875 12.203125 -28.015625 C 11.910156 -27.867188 11.691406 -27.671875 11.546875 -27.421875 C 11.398438 -27.179688 11.328125 -26.914062 11.328125 -26.625 C 11.328125 -26.15625 11.472656 -25.796875 11.765625 -25.546875 C 12.054688 -25.304688 12.40625 -25.1875 12.8125 -25.1875 C 13.300781 -25.1875 13.65625 -25.335938 13.875 -25.640625 C 14.09375 -25.953125 14.203125 -26.3125 14.203125 -26.71875 C 14.203125 -27.414062 13.847656 -28.066406 13.140625 -28.671875 C 12.429688 -29.285156 11.460938 -29.59375 10.234375 -29.59375 C 9.304688 -29.59375 8.378906 -29.316406 7.453125 -28.765625 C 6.523438 -28.210938 5.769531 -27.253906 5.1875 -25.890625 C 4.78125 -24.898438 4.53125 -23.765625 4.4375 -22.484375 C 4.351562 -21.203125 4.3125 -20.023438 4.3125 -18.953125 L 4.3125 -17.078125 L 1.09375 -17.078125 L 1.09375 -16.390625 L 4.3125 -16.390625 L 4.3125 -0.703125 Z M 1.046875 -0.703125 "/></g></g></g><g fill="rgb(96.078491%, 98.429871%, 97.648621%)" fill-opacity="1"><g transform="translate(179.766751, 74.730432)"><g><path d="M 1.046875 -0.703125 L 1.046875 0 L 11.328125 0 L 11.328125 -0.703125 L 8.0625 -0.703125 L 8.0625 -16.390625 L 11.59375 -16.390625 L 11.59375 -17.078125 L 8.0625 -17.078125 L 8.0625 -25.625 C 8.0625 -27.800781 8.816406 -28.890625 10.328125 -28.890625 C 10.910156 -28.890625 11.378906 -28.800781 11.734375 -28.625 C 12.097656 -28.457031 12.28125 -28.3125 12.28125 -28.1875 C 12.28125 -28.101562 12.253906 -28.046875 12.203125 -28.015625 C 11.910156 -27.867188 11.691406 -27.671875 11.546875 -27.421875 C 11.398438 -27.179688 11.328125 -26.914062 11.328125 -26.625 C 11.328125 -26.15625 11.472656 -25.796875 11.765625 -25.546875 C 12.054688 -25.304688 12.40625 -25.1875 12.8125 -25.1875 C 13.300781 -25.1875 13.65625 -25.335938 13.875 -25.640625 C 14.09375 -25.953125 14.203125 -26.3125 14.203125 -26.71875 C 14.203125 -27.414062 13.847656 -28.066406 13.140625 -28.671875 C 12.429688 -29.285156 11.460938 -29.59375 10.234375 -29.59375 C 9.304688 -29.59375 8.378906 -29.316406 7.453125 -28.765625 C 6.523438 -28.210938 5.769531 -27.253906 5.1875 -25.890625 C 4.78125 -24.898438 4.53125 -23.765625 4.4375 -22.484375 C 4.351562 -21.203125 4.3125 -20.023438 4.3125 -18.953125 L 4.3125 -17.078125 L 1.09375 -17.078125 L 1.09375 -16.390625 L 4.3125 -16.390625 L 4.3125 -0.703125 Z M 1.046875 -0.703125 "/></g></g></g><g fill="rgb(96.078491%, 98.429871%, 97.648621%)" fill-opacity="1"><g transform="translate(194.671787, 74.730432)"><g><path d="M 24.890625 -8.84375 C 24.742188 -8.84375 24.597656 -8.679688 24.453125 -8.359375 C 23.921875 -7.171875 23.347656 -6.0625 22.734375 -5.03125 C 22.128906 -4 21.4375 -3.101562 20.65625 -2.34375 C 19.875 -1.59375 19.003906 -1.003906 18.046875 -0.578125 C 17.085938 -0.160156 16.023438 0.046875 14.859375 0.046875 C 12.210938 0.046875 10.25 -0.984375 8.96875 -3.046875 C 7.695312 -5.109375 7.0625 -8.128906 7.0625 -12.109375 L 7.0625 -17 C 7.0625 -20.832031 7.710938 -23.785156 9.015625 -25.859375 C 10.328125 -27.941406 12.347656 -28.984375 15.078125 -28.984375 C 16.210938 -28.984375 17.242188 -28.800781 18.171875 -28.4375 C 19.097656 -28.070312 19.9375 -27.566406 20.6875 -26.921875 C 21.445312 -26.285156 22.101562 -25.515625 22.65625 -24.609375 C 23.207031 -23.710938 23.660156 -22.742188 24.015625 -21.703125 C 24.097656 -21.410156 24.195312 -21.265625 24.3125 -21.265625 C 24.457031 -21.265625 24.53125 -21.441406 24.53125 -21.796875 L 24.53125 -28.890625 C 24.53125 -29.148438 24.5 -29.320312 24.4375 -29.40625 C 24.382812 -29.5 24.300781 -29.546875 24.1875 -29.546875 C 24.039062 -29.546875 23.851562 -29.429688 23.625 -29.203125 L 21.921875 -27.453125 C 20.992188 -28.210938 19.945312 -28.785156 18.78125 -29.171875 C 17.613281 -29.566406 16.378906 -29.765625 15.078125 -29.765625 C 13.160156 -29.765625 11.378906 -29.328125 9.734375 -28.453125 C 8.097656 -27.585938 6.675781 -26.441406 5.46875 -25.015625 C 4.257812 -23.585938 3.320312 -21.96875 2.65625 -20.15625 C 1.988281 -18.34375 1.65625 -16.503906 1.65625 -14.640625 C 1.65625 -12.492188 2.039062 -10.484375 2.8125 -8.609375 C 3.582031 -6.734375 4.59375 -5.097656 5.84375 -3.703125 C 7.09375 -2.304688 8.5 -1.203125 10.0625 -0.390625 C 11.632812 0.421875 13.234375 0.828125 14.859375 0.828125 C 16.222656 0.828125 17.53125 0.554688 18.78125 0.015625 C 20.03125 -0.515625 21.148438 -1.332031 22.140625 -2.4375 L 24.453125 0.09375 C 24.597656 0.238281 24.726562 0.3125 24.84375 0.3125 C 25.007812 0.3125 25.09375 0.207031 25.09375 0 L 25.09375 -8.40625 C 25.09375 -8.695312 25.023438 -8.84375 24.890625 -8.84375 Z M 24.890625 -8.84375 "/></g></g></g><g fill="rgb(96.078491%, 98.429871%, 97.648621%)" fill-opacity="1"><g transform="translate(221.387526, 74.730432)"><g><path d="M 7.75 -14.5625 L 7.75 -17.078125 L 0.953125 -17.078125 L 0.953125 -16.390625 L 4.015625 -16.390625 L 4.015625 -0.703125 L 0.953125 -0.703125 L 0.953125 0 L 10.8125 0 L 10.8125 -0.703125 L 7.75 -0.703125 L 7.75 -12.640625 C 7.75 -13.097656 7.882812 -13.570312 8.15625 -14.0625 C 8.4375 -14.5625 8.800781 -15.015625 9.25 -15.421875 C 9.707031 -15.828125 10.210938 -16.15625 10.765625 -16.40625 C 11.316406 -16.65625 11.851562 -16.78125 12.375 -16.78125 C 12.695312 -16.78125 12.976562 -16.753906 13.21875 -16.703125 C 13.46875 -16.660156 13.59375 -16.554688 13.59375 -16.390625 C 13.59375 -16.242188 13.519531 -16.140625 13.375 -16.078125 C 13.195312 -15.960938 12.992188 -15.765625 12.765625 -15.484375 C 12.535156 -15.210938 12.421875 -14.785156 12.421875 -14.203125 C 12.421875 -13.597656 12.625 -13.097656 13.03125 -12.703125 C 13.4375 -12.304688 13.972656 -12.109375 14.640625 -12.109375 C 15.222656 -12.109375 15.734375 -12.304688 16.171875 -12.703125 C 16.609375 -13.097656 16.828125 -13.644531 16.828125 -14.34375 C 16.828125 -14.914062 16.707031 -15.398438 16.46875 -15.796875 C 16.238281 -16.191406 15.941406 -16.507812 15.578125 -16.75 C 15.210938 -17 14.789062 -17.179688 14.3125 -17.296875 C 13.832031 -17.410156 13.347656 -17.46875 12.859375 -17.46875 C 12.160156 -17.46875 11.535156 -17.363281 10.984375 -17.15625 C 10.429688 -16.957031 9.9375 -16.710938 9.5 -16.421875 C 9.0625 -16.140625 8.695312 -15.828125 8.40625 -15.484375 C 8.113281 -15.148438 7.894531 -14.84375 7.75 -14.5625 Z M 7.75 -14.5625 "/></g></g></g><g fill="rgb(96.078491%, 98.429871%, 97.648621%)" fill-opacity="1"><g transform="translate(238.82031, 74.730432)"><g><path d="M 17.125 -10.59375 C 17.09375 -11.050781 16.9375 -11.6875 16.65625 -12.5 C 16.382812 -13.320312 15.957031 -14.109375 15.375 -14.859375 C 14.800781 -15.617188 14.035156 -16.28125 13.078125 -16.84375 C 12.117188 -17.40625 10.941406 -17.6875 9.546875 -17.6875 C 8.378906 -17.6875 7.296875 -17.410156 6.296875 -16.859375 C 5.296875 -16.304688 4.429688 -15.59375 3.703125 -14.71875 C 2.972656 -13.851562 2.40625 -12.867188 2 -11.765625 C 1.59375 -10.660156 1.390625 -9.539062 1.390625 -8.40625 C 1.390625 -7.28125 1.59375 -6.175781 2 -5.09375 C 2.40625 -4.019531 2.972656 -3.0625 3.703125 -2.21875 C 4.429688 -1.375 5.3125 -0.691406 6.34375 -0.171875 C 7.375 0.347656 8.5 0.609375 9.71875 0.609375 C 10.707031 0.609375 11.609375 0.46875 12.421875 0.1875 C 13.234375 -0.0820312 13.953125 -0.457031 14.578125 -0.9375 C 15.203125 -1.414062 15.734375 -1.972656 16.171875 -2.609375 C 16.609375 -3.253906 16.957031 -3.925781 17.21875 -4.625 C 17.300781 -4.820312 17.34375 -5.023438 17.34375 -5.234375 C 17.34375 -5.429688 17.253906 -5.53125 17.078125 -5.53125 C 16.929688 -5.53125 16.800781 -5.382812 16.6875 -5.09375 C 16.425781 -4.488281 16.097656 -3.878906 15.703125 -3.265625 C 15.316406 -2.660156 14.835938 -2.125 14.265625 -1.65625 C 13.703125 -1.1875 13.054688 -0.804688 12.328125 -0.515625 C 11.609375 -0.234375 10.769531 -0.09375 9.8125 -0.09375 C 8.644531 -0.09375 7.703125 -0.523438 6.984375 -1.390625 C 6.273438 -2.265625 5.921875 -3.660156 5.921875 -5.578125 L 5.921875 -10.015625 L 16.421875 -10.015625 C 16.890625 -10.015625 17.125 -10.207031 17.125 -10.59375 Z M 5.921875 -10.71875 L 5.921875 -12.46875 C 5.921875 -13.425781 6.03125 -14.203125 6.25 -14.796875 C 6.46875 -15.390625 6.75 -15.84375 7.09375 -16.15625 C 7.445312 -16.476562 7.84375 -16.695312 8.28125 -16.8125 C 8.71875 -16.9375 9.15625 -17 9.59375 -17 C 10.289062 -17 10.863281 -16.875 11.3125 -16.625 C 11.757812 -16.375 12.113281 -16.046875 12.375 -15.640625 C 12.632812 -15.234375 12.804688 -14.78125 12.890625 -14.28125 C 12.984375 -13.789062 13.03125 -13.285156 13.03125 -12.765625 C 13.03125 -11.398438 12.8125 -10.71875 12.375 -10.71875 Z M 5.921875 -10.71875 "/></g></g></g><g fill="rgb(96.078491%, 98.429871%, 97.648621%)" fill-opacity="1"><g transform="translate(257.734898, 74.730432)"><g><path d="M 5.015625 -16.640625 C 4.078125 -16.035156 3.609375 -15.3125 3.609375 -14.46875 C 3.609375 -14.0625 3.742188 -13.691406 4.015625 -13.359375 C 4.296875 -13.023438 4.6875 -12.859375 5.1875 -12.859375 C 5.675781 -12.859375 6.070312 -13.003906 6.375 -13.296875 C 6.6875 -13.585938 6.84375 -13.945312 6.84375 -14.375 C 6.84375 -14.582031 6.804688 -14.796875 6.734375 -15.015625 C 6.660156 -15.234375 6.519531 -15.441406 6.3125 -15.640625 C 6.164062 -15.785156 6.050781 -15.882812 5.96875 -15.9375 C 5.882812 -16 5.84375 -16.078125 5.84375 -16.171875 C 5.84375 -16.285156 5.925781 -16.398438 6.09375 -16.515625 C 6.269531 -16.628906 6.488281 -16.726562 6.75 -16.8125 C 7.007812 -16.90625 7.304688 -16.976562 7.640625 -17.03125 C 7.984375 -17.09375 8.3125 -17.125 8.625 -17.125 C 9.53125 -17.125 10.242188 -16.945312 10.765625 -16.59375 C 11.285156 -16.25 11.546875 -15.582031 11.546875 -14.59375 L 11.546875 -9.453125 C 10.210938 -9.453125 8.960938 -9.3125 7.796875 -9.03125 C 6.640625 -8.757812 5.625 -8.363281 4.75 -7.84375 C 3.875 -7.320312 3.191406 -6.675781 2.703125 -5.90625 C 2.210938 -5.132812 1.96875 -4.269531 1.96875 -3.3125 C 1.96875 -2.613281 2.085938 -2.007812 2.328125 -1.5 C 2.578125 -0.988281 2.921875 -0.582031 3.359375 -0.28125 C 3.796875 0.0195312 4.296875 0.242188 4.859375 0.390625 C 5.421875 0.535156 6.023438 0.609375 6.671875 0.609375 C 7.335938 0.609375 7.9375 0.523438 8.46875 0.359375 C 9.007812 0.203125 9.488281 0.00390625 9.90625 -0.234375 C 10.332031 -0.484375 10.691406 -0.742188 10.984375 -1.015625 C 11.273438 -1.296875 11.503906 -1.566406 11.671875 -1.828125 C 11.765625 -1.222656 12.039062 -0.664062 12.5 -0.15625 C 12.96875 0.351562 13.785156 0.609375 14.953125 0.609375 C 15.703125 0.609375 16.332031 0.488281 16.84375 0.25 C 17.351562 0.0195312 17.765625 -0.25 18.078125 -0.5625 C 18.398438 -0.882812 18.625 -1.210938 18.75 -1.546875 C 18.882812 -1.878906 18.953125 -2.132812 18.953125 -2.3125 C 18.953125 -2.457031 18.910156 -2.53125 18.828125 -2.53125 C 18.734375 -2.53125 18.628906 -2.410156 18.515625 -2.171875 C 18.285156 -1.679688 17.992188 -1.28125 17.640625 -0.96875 C 17.296875 -0.664062 16.921875 -0.515625 16.515625 -0.515625 C 15.929688 -0.515625 15.582031 -0.753906 15.46875 -1.234375 C 15.351562 -1.722656 15.296875 -2.382812 15.296875 -3.21875 L 15.296875 -13.765625 C 15.296875 -15.015625 14.828125 -15.976562 13.890625 -16.65625 C 12.960938 -17.34375 11.539062 -17.6875 9.625 -17.6875 C 8.726562 -17.6875 7.863281 -17.59375 7.03125 -17.40625 C 6.207031 -17.21875 5.535156 -16.960938 5.015625 -16.640625 Z M 11.546875 -9.015625 L 11.546875 -2.96875 C 11.546875 -2.707031 11.421875 -2.429688 11.171875 -2.140625 C 10.929688 -1.847656 10.628906 -1.578125 10.265625 -1.328125 C 9.898438 -1.078125 9.519531 -0.878906 9.125 -0.734375 C 8.738281 -0.585938 8.414062 -0.515625 8.15625 -0.515625 C 7.25 -0.515625 6.5625 -0.863281 6.09375 -1.5625 C 5.632812 -2.257812 5.40625 -3.207031 5.40625 -4.40625 C 5.40625 -5.363281 5.578125 -6.128906 5.921875 -6.703125 C 6.273438 -7.285156 6.734375 -7.738281 7.296875 -8.0625 C 7.867188 -8.382812 8.523438 -8.609375 9.265625 -8.734375 C 10.003906 -8.867188 10.765625 -8.960938 11.546875 -9.015625 Z M 11.546875 -9.015625 "/></g></g></g><g fill="rgb(96.078491%, 98.429871%, 97.648621%)" fill-opacity="1"><g transform="translate(277.041721, 74.730432)"><g><path d="M 7.71875 -17.078125 L 7.71875 -23.921875 L 3.96875 -22.046875 L 3.96875 -17.078125 L 1 -17.078125 L 1 -16.390625 L 3.96875 -16.390625 L 3.96875 -4.625 C 3.96875 -2.988281 4.398438 -1.707031 5.265625 -0.78125 C 6.140625 0.144531 7.40625 0.609375 9.0625 0.609375 C 10.78125 0.609375 11.992188 0.269531 12.703125 -0.40625 C 13.410156 -1.09375 13.867188 -2.03125 14.078125 -3.21875 C 14.109375 -3.363281 14.125 -3.453125 14.125 -3.484375 C 14.125 -3.515625 14.125 -3.554688 14.125 -3.609375 C 14.125 -3.847656 14.035156 -3.96875 13.859375 -3.96875 C 13.628906 -3.96875 13.5 -3.820312 13.46875 -3.53125 C 13.320312 -2.539062 12.984375 -1.757812 12.453125 -1.1875 C 11.929688 -0.625 11.296875 -0.34375 10.546875 -0.34375 C 9.523438 -0.34375 8.796875 -0.691406 8.359375 -1.390625 C 7.929688 -2.085938 7.71875 -3.132812 7.71875 -4.53125 L 7.71875 -16.390625 L 11.9375 -16.390625 L 11.9375 -17.078125 Z M 7.71875 -17.078125 "/></g></g></g><g fill="rgb(96.078491%, 98.429871%, 97.648621%)" fill-opacity="1"><g transform="translate(291.772418, 74.730432)"><g><path d="M 8.578125 -17.078125 L 1.5625 -17.078125 L 1.5625 -16.390625 L 4.84375 -16.390625 L 4.84375 -0.703125 L 1.5625 -0.703125 L 1.5625 0 L 11.859375 0 L 11.859375 -0.703125 L 8.578125 -0.703125 Z M 8.9375 -25.140625 C 8.9375 -25.785156 8.71875 -26.320312 8.28125 -26.75 C 7.84375 -27.1875 7.304688 -27.40625 6.671875 -27.40625 C 6.023438 -27.40625 5.484375 -27.1875 5.046875 -26.75 C 4.617188 -26.320312 4.40625 -25.785156 4.40625 -25.140625 C 4.40625 -24.503906 4.617188 -23.96875 5.046875 -23.53125 C 5.484375 -23.09375 6.023438 -22.875 6.671875 -22.875 C 7.304688 -22.875 7.84375 -23.09375 8.28125 -23.53125 C 8.71875 -23.96875 8.9375 -24.503906 8.9375 -25.140625 Z M 8.9375 -25.140625 "/></g></g></g><g fill="rgb(96.078491%, 98.429871%, 97.648621%)" fill-opacity="1"><g transform="translate(304.58552, 74.730432)"><g><path d="M 9.890625 0.609375 C 11.203125 0.609375 12.382812 0.3125 13.4375 -0.28125 C 14.5 -0.875 15.398438 -1.617188 16.140625 -2.515625 C 16.878906 -3.421875 17.453125 -4.410156 17.859375 -5.484375 C 18.273438 -6.566406 18.484375 -7.585938 18.484375 -8.546875 C 18.484375 -9.503906 18.273438 -10.519531 17.859375 -11.59375 C 17.453125 -12.664062 16.878906 -13.648438 16.140625 -14.546875 C 15.398438 -15.453125 14.5 -16.203125 13.4375 -16.796875 C 12.382812 -17.390625 11.203125 -17.6875 9.890625 -17.6875 C 8.585938 -17.6875 7.40625 -17.390625 6.34375 -16.796875 C 5.28125 -16.203125 4.367188 -15.453125 3.609375 -14.546875 C 2.859375 -13.648438 2.28125 -12.664062 1.875 -11.59375 C 1.46875 -10.519531 1.265625 -9.503906 1.265625 -8.546875 C 1.265625 -7.585938 1.46875 -6.566406 1.875 -5.484375 C 2.28125 -4.410156 2.859375 -3.421875 3.609375 -2.515625 C 4.367188 -1.617188 5.28125 -0.875 6.34375 -0.28125 C 7.40625 0.3125 8.585938 0.609375 9.890625 0.609375 Z M 5.796875 -9.5 C 5.796875 -10.71875 5.84375 -11.789062 5.9375 -12.71875 C 6.039062 -13.65625 6.238281 -14.441406 6.53125 -15.078125 C 6.820312 -15.710938 7.234375 -16.191406 7.765625 -16.515625 C 8.304688 -16.835938 9.015625 -17 9.890625 -17 C 10.765625 -17 11.46875 -16.835938 12 -16.515625 C 12.539062 -16.191406 12.945312 -15.710938 13.21875 -15.078125 C 13.5 -14.441406 13.6875 -13.65625 13.78125 -12.71875 C 13.882812 -11.789062 13.9375 -10.71875 13.9375 -9.5 L 13.9375 -7.625 C 13.9375 -6.320312 13.882812 -5.195312 13.78125 -4.25 C 13.6875 -3.300781 13.5 -2.519531 13.21875 -1.90625 C 12.945312 -1.300781 12.539062 -0.847656 12 -0.546875 C 11.46875 -0.242188 10.765625 -0.09375 9.890625 -0.09375 C 9.015625 -0.09375 8.304688 -0.242188 7.765625 -0.546875 C 7.234375 -0.847656 6.820312 -1.300781 6.53125 -1.90625 C 6.238281 -2.519531 6.039062 -3.300781 5.9375 -4.25 C 5.84375 -5.195312 5.796875 -6.320312 5.796875 -7.625 Z M 5.796875 -9.5 "/></g></g></g><g fill="rgb(96.078491%, 98.429871%, 97.648621%)" fill-opacity="1"><g transform="translate(324.066659, 74.730432)"><g><path d="M 8.359375 -13.765625 L 8.359375 -17.078125 L 1.5625 -17.078125 L 1.5625 -16.390625 L 4.625 -16.390625 L 4.625 -0.703125 L 1.5625 -0.703125 L 1.5625 0 L 11.421875 0 L 11.421875 -0.703125 L 8.359375 -0.703125 L 8.359375 -11.5 C 8.359375 -12 8.488281 -12.53125 8.75 -13.09375 C 9.019531 -13.65625 9.363281 -14.179688 9.78125 -14.671875 C 10.207031 -15.171875 10.6875 -15.582031 11.21875 -15.90625 C 11.757812 -16.226562 12.320312 -16.390625 12.90625 -16.390625 C 13.738281 -16.390625 14.351562 -16.125 14.75 -15.59375 C 15.144531 -15.070312 15.34375 -14.242188 15.34375 -13.109375 L 15.34375 -0.703125 L 12.28125 -0.703125 L 12.28125 0 L 22.140625 0 L 22.140625 -0.703125 L 19.09375 -0.703125 L 19.09375 -13.421875 C 19.09375 -14.929688 18.660156 -15.976562 17.796875 -16.5625 C 16.941406 -17.144531 15.847656 -17.4375 14.515625 -17.4375 C 12.910156 -17.4375 11.609375 -17.070312 10.609375 -16.34375 C 9.609375 -15.613281 8.859375 -14.753906 8.359375 -13.765625 Z M 8.359375 -13.765625 "/></g></g></g><g fill="rgb(96.078491%, 98.429871%, 97.648621%)" fill-opacity="1"><g transform="translate(347.208695, 74.730432)"><g><path d="M 12.375 -17.46875 L 11.375 -16.46875 C 10.46875 -17.28125 9.363281 -17.6875 8.0625 -17.6875 C 7.132812 -17.6875 6.304688 -17.535156 5.578125 -17.234375 C 4.847656 -16.929688 4.242188 -16.515625 3.765625 -15.984375 C 3.285156 -15.460938 2.921875 -14.867188 2.671875 -14.203125 C 2.429688 -13.535156 2.3125 -12.851562 2.3125 -12.15625 C 2.3125 -11.082031 2.625 -10.140625 3.25 -9.328125 C 3.875 -8.515625 4.8125 -7.960938 6.0625 -7.671875 C 6.4375 -7.578125 6.851562 -7.476562 7.3125 -7.375 C 7.78125 -7.28125 8.253906 -7.164062 8.734375 -7.03125 C 9.210938 -6.90625 9.675781 -6.757812 10.125 -6.59375 C 10.582031 -6.4375 10.984375 -6.257812 11.328125 -6.0625 C 11.910156 -5.738281 12.3125 -5.359375 12.53125 -4.921875 C 12.75 -4.484375 12.859375 -4.035156 12.859375 -3.578125 C 12.859375 -2.960938 12.703125 -2.429688 12.390625 -1.984375 C 12.085938 -1.535156 11.703125 -1.171875 11.234375 -0.890625 C 10.773438 -0.617188 10.285156 -0.414062 9.765625 -0.28125 C 9.242188 -0.15625 8.75 -0.09375 8.28125 -0.09375 C 6.945312 -0.09375 5.769531 -0.460938 4.75 -1.203125 C 3.726562 -1.941406 3.015625 -3.082031 2.609375 -4.625 C 2.523438 -4.882812 2.410156 -5.015625 2.265625 -5.015625 C 2.085938 -5.015625 2 -4.894531 2 -4.65625 L 2 0 C 2 0.226562 2.085938 0.34375 2.265625 0.34375 C 2.378906 0.34375 2.484375 0.269531 2.578125 0.125 L 3.484375 -1.21875 C 4.003906 -0.664062 4.664062 -0.222656 5.46875 0.109375 C 6.269531 0.441406 7.25 0.609375 8.40625 0.609375 C 9.363281 0.609375 10.207031 0.453125 10.9375 0.140625 C 11.664062 -0.160156 12.28125 -0.578125 12.78125 -1.109375 C 13.289062 -1.648438 13.675781 -2.273438 13.9375 -2.984375 C 14.207031 -3.691406 14.34375 -4.46875 14.34375 -5.3125 C 14.34375 -6.414062 14.066406 -7.460938 13.515625 -8.453125 C 12.960938 -9.441406 11.914062 -10.195312 10.375 -10.71875 C 10.113281 -10.800781 9.78125 -10.894531 9.375 -11 C 8.96875 -11.101562 8.535156 -11.210938 8.078125 -11.328125 C 7.628906 -11.441406 7.179688 -11.554688 6.734375 -11.671875 C 6.285156 -11.796875 5.914062 -11.898438 5.625 -11.984375 C 5.039062 -12.179688 4.625 -12.429688 4.375 -12.734375 C 4.132812 -13.046875 4.015625 -13.476562 4.015625 -14.03125 C 4.015625 -14.789062 4.375 -15.472656 5.09375 -16.078125 C 5.820312 -16.691406 6.738281 -17 7.84375 -17 C 8.539062 -17 9.15625 -16.867188 9.6875 -16.609375 C 10.226562 -16.347656 10.679688 -16.007812 11.046875 -15.59375 C 11.410156 -15.1875 11.703125 -14.726562 11.921875 -14.21875 C 12.140625 -13.71875 12.289062 -13.21875 12.375 -12.71875 C 12.40625 -12.550781 12.492188 -12.46875 12.640625 -12.46875 C 12.753906 -12.46875 12.8125 -12.550781 12.8125 -12.71875 L 12.8125 -17.390625 C 12.8125 -17.585938 12.769531 -17.6875 12.6875 -17.6875 C 12.625 -17.6875 12.519531 -17.613281 12.375 -17.46875 Z M 12.375 -17.46875 "/></g></g></g></svg>