<?xml version="1.0" encoding="iso-8859-1"?>
<!-- Generator: Adobe Illustrator 19.0.0, SVG Export Plug-In . SVG Version: 6.00 Build 0)  -->
<svg version="1.1" id="Layer_1" xmlns="http://www.w3.org/2000/svg" xmlns:xlink="http://www.w3.org/1999/xlink" x="0px" y="0px"
	 viewBox="0 0 496.2 496.2" style="enable-background:new 0 0 496.2 496.2;" xml:space="preserve">
<path style="fill:#A2D8D4;" d="M0,248.1C0,111.1,111.1,0,248.1,0s248.1,111.1,248.1,248.1S385.1,496.2,248.1,496.2S0,385.1,0,248.1z
	"/>
<g>
	<path style="fill:#81725B;" d="M248.1,100.4c-5.1,0-9.3,4.2-9.3,9.3v212.1c0,5.1,4.2,9.3,9.3,9.3s9.3-4.2,9.3-9.3V109.7
		C257.4,104.6,253.2,100.4,248.1,100.4z"/>
	<path style="fill:#81725B;" d="M244.3,319c-2.8,2.8-2.8,7.4,0,10.3l60.4,60.4c2.8,2.8,7.4,2.8,10.3,0c2.8-2.8,2.8-7.4,0-10.3
		L254.6,319C251.7,316.2,247.1,316.2,244.3,319z"/>
	<path style="fill:#81725B;" d="M252.6,319c2.8,2.8,2.8,7.4,0,10.3l-60.4,60.4c-2.8,2.8-7.4,2.8-10.2,0s-2.8-7.4,0-10.3l60.4-60.4
		C245.1,316.2,249.8,316.2,252.6,319z"/>
</g>
<path style="fill:#383939;" d="M378.7,276c0,19.2-15.6,5.8-34.8,5.8H155.3c-19.2,0-34.8,13.4-34.8-5.8V130.9
	c0-19.2,15.6-8.7,34.8-8.7h188.6c19.2,0,34.8-10.5,34.8,8.7L378.7,276L378.7,276z"/>
<g>
	<path style="fill:#81725B;" d="M391.7,118.4c0,4.8-5.5,8.7-12.2,8.7H116.7c-6.7,0-12.2-3.9-12.2-8.7l0,0c0-4.8,5.5-8.7,12.2-8.7
		h262.9C386.3,109.7,391.7,113.6,391.7,118.4L391.7,118.4z"/>
	<path style="fill:#81725B;" d="M391.7,279.7c0,4.8-5.5,8.7-12.2,8.7H116.7c-6.7,0-12.2-3.9-12.2-8.7l0,0c0-4.8,5.5-8.7,12.2-8.7
		h262.9C386.3,271,391.7,274.9,391.7,279.7L391.7,279.7z"/>
</g>
<g style="opacity:0.3;enable-background:new    ;">
	<g>
		<polygon style="opacity:0.1;fill:#16193B;enable-background:new    ;" points="362.3,155.2 362.4,156.7 362.4,160.2 362.3,158.7 
					"/>
		<polygon style="opacity:0.1;fill:#16193B;enable-background:new    ;" points="254,157.5 254,159 253.9,167 253.9,165.5 		"/>
		<polygon style="opacity:0.1;fill:#16193B;enable-background:new    ;" points="267.9,157.5 267.9,159 267.9,167 267.8,165.6 		"/>
		<polygon style="opacity:0.1;fill:#16193B;enable-background:new    ;" points="281.7,157.6 281.8,159.1 281.7,167.1 281.7,165.6 
					"/>
		<polygon style="opacity:0.1;fill:#16193B;enable-background:new    ;" points="295.7,157.6 295.7,159.1 295.6,167.1 295.6,165.7 
					"/>
		<polygon style="opacity:0.1;fill:#16193B;enable-background:new    ;" points="309.5,157.7 309.6,159.2 309.5,167.2 309.5,165.7 
					"/>
		<polygon style="opacity:0.1;fill:#16193B;enable-background:new    ;" points="323.4,157.7 323.5,159.2 323.4,167.2 323.4,165.7 
					"/>
		<polygon style="opacity:0.1;fill:#16193B;enable-background:new    ;" points="334.5,157.8 334.6,159.3 334.5,167.3 334.5,165.8 
					"/>
		<polygon style="opacity:0.1;fill:#16193B;enable-background:new    ;" points="348.5,157.8 348.5,159.3 348.4,167.3 348.4,165.8 
					"/>
		<polygon style="opacity:0.1;fill:#16193B;enable-background:new    ;" points="253.9,168.2 253.9,169.7 253.9,180.4 253.8,178.9 
					"/>
		<polygon style="opacity:0.1;fill:#16193B;enable-background:new    ;" points="267.8,168.2 267.8,169.7 267.8,180.4 267.8,178.9 
					"/>
		<polygon style="opacity:0.1;fill:#16193B;enable-background:new    ;" points="281.7,168.3 281.7,169.8 281.7,180.5 281.6,179 		
			"/>
		<polygon style="opacity:0.1;fill:#16193B;enable-background:new    ;" points="295.6,168.3 295.6,169.8 295.6,180.5 295.5,179 		
			"/>
		<polygon style="opacity:0.1;fill:#16193B;enable-background:new    ;" points="309.5,168.4 309.5,169.9 309.4,180.6 309.4,179.1 
					"/>
		<polygon style="opacity:0.1;fill:#16193B;enable-background:new    ;" points="323.4,168.4 323.4,169.9 323.4,180.6 323.3,179.1 
					"/>
		<polygon style="opacity:0.1;fill:#16193B;enable-background:new    ;" points="334.5,168.5 334.5,170 334.5,180.7 334.4,179.2 		
			"/>
		<polygon style="opacity:0.1;fill:#16193B;enable-background:new    ;" points="348.4,168.5 348.4,170 348.4,180.7 348.3,179.2 		
			"/>
		<polygon style="opacity:0.1;fill:#16193B;enable-background:new    ;" points="253.8,181.6 253.9,183.1 253.8,196.5 253.8,195 		
			"/>
		<polygon style="opacity:0.1;fill:#16193B;enable-background:new    ;" points="267.7,181.6 267.8,183.1 267.7,196.5 267.7,195 		
			"/>
		<polygon style="opacity:0.1;fill:#16193B;enable-background:new    ;" points="281.6,181.7 281.6,183.2 281.6,196.6 281.6,195.1 
					"/>
		<polygon style="opacity:0.1;fill:#16193B;enable-background:new    ;" points="295.5,181.7 295.6,183.2 295.5,196.6 295.5,195.1 
					"/>
		<polygon style="opacity:0.1;fill:#16193B;enable-background:new    ;" points="309.4,181.8 309.4,183.3 309.4,196.7 309.3,195.2 
					"/>
		<polygon style="opacity:0.1;fill:#16193B;enable-background:new    ;" points="323.3,181.8 323.3,183.3 323.3,196.7 323.3,195.2 
					"/>
		<polygon style="opacity:0.1;fill:#16193B;enable-background:new    ;" points="334.4,181.9 334.4,183.3 334.4,196.7 334.4,195.3 
					"/>
		<polygon style="opacity:0.1;fill:#16193B;enable-background:new    ;" points="348.3,181.9 348.4,183.4 348.3,196.8 348.3,195.3 
					"/>
		<polyline style="opacity:0.1;fill:#16193B;enable-background:new    ;" points="295.5,199.3 295.4,197.8 306.6,197.8 306.6,199.3 
					"/>
		<polygon style="opacity:0.1;fill:#16193B;enable-background:new    ;" points="253.8,197.6 253.8,199.1 253.7,207.2 253.7,205.7 
					"/>
		<polygon style="opacity:0.1;fill:#16193B;enable-background:new    ;" points="267.7,197.7 267.7,199.2 267.6,207.2 267.6,205.7 
					"/>
		<polygon style="opacity:0.1;fill:#16193B;enable-background:new    ;" points="281.5,197.7 281.6,199.2 281.5,207.3 281.5,205.8 
					"/>
		<polygon style="opacity:0.1;fill:#16193B;enable-background:new    ;" points="295.4,197.8 295.5,199.3 295.4,207.3 295.4,205.8 
					"/>
		<polygon style="opacity:0.1;fill:#16193B;enable-background:new    ;" points="309.3,197.8 309.4,199.3 309.3,207.4 309.3,205.9 
					"/>
		<polygon style="opacity:0.1;fill:#16193B;enable-background:new    ;" points="323.2,197.9 323.3,199.4 323.2,207.4 323.2,205.9 
					"/>
		<polygon style="opacity:0.1;fill:#16193B;enable-background:new    ;" points="334.3,197.9 334.4,199.4 334.3,207.4 334.3,206 		
			"/>
		<polygon style="opacity:0.1;fill:#16193B;enable-background:new    ;" points="348.3,198 348.3,199.5 348.2,207.5 348.2,206 		"/>
		<polygon style="opacity:0.1;fill:#16193B;enable-background:new    ;" points="253.7,208.3 253.7,209.8 253.7,220.6 253.6,219.1 
					"/>
		<polygon style="opacity:0.1;fill:#16193B;enable-background:new    ;" points="267.6,208.4 267.6,209.9 267.6,220.6 267.6,219.1 
					"/>
		<polygon style="opacity:0.1;fill:#16193B;enable-background:new    ;" points="281.5,208.4 281.5,209.9 281.5,220.7 281.4,219.2 
					"/>
		<polygon style="opacity:0.1;fill:#16193B;enable-background:new    ;" points="295.4,208.5 295.4,210 295.4,220.7 295.3,219.2 		
			"/>
		<polygon style="opacity:0.1;fill:#16193B;enable-background:new    ;" points="309.3,208.5 309.3,210 309.2,220.8 309.2,219.3 		
			"/>
		<polygon style="opacity:0.1;fill:#16193B;enable-background:new    ;" points="323.2,208.6 323.2,210.1 323.2,220.8 323.1,219.3 
					"/>
		<polygon style="opacity:0.1;fill:#16193B;enable-background:new    ;" points="334.3,208.6 334.3,210.1 334.3,220.8 334.2,219.3 
					"/>
		<polygon style="opacity:0.1;fill:#16193B;enable-background:new    ;" points="348.2,208.7 348.2,210.2 348.2,220.9 348.1,219.4 
					"/>
		<polygon style="opacity:0.1;fill:#16193B;enable-background:new    ;" points="253.6,221.7 253.7,223.2 253.6,233.9 253.6,232.4 
					"/>
		<polygon style="opacity:0.1;fill:#16193B;enable-background:new    ;" points="267.5,221.8 267.6,223.3 267.5,234 267.5,232.5 		
			"/>
		<polygon style="opacity:0.1;fill:#16193B;enable-background:new    ;" points="281.4,221.8 281.4,223.3 281.4,234 281.4,232.5 		
			"/>
		<polygon style="opacity:0.1;fill:#16193B;enable-background:new    ;" points="295.3,221.9 295.3,223.4 295.3,234.1 295.3,232.6 
					"/>
		<polygon style="opacity:0.1;fill:#16193B;enable-background:new    ;" points="309.2,221.9 309.2,223.4 309.2,234.1 309.2,232.6 
					"/>
		<polygon style="opacity:0.1;fill:#16193B;enable-background:new    ;" points="323.1,222 323.1,223.5 323.1,234.2 323.1,232.7 		
			"/>
		<polygon style="opacity:0.1;fill:#16193B;enable-background:new    ;" points="334.2,222 334.2,223.5 334.2,234.2 334.2,232.7 		
			"/>
		<polygon style="opacity:0.1;fill:#16193B;enable-background:new    ;" points="348.1,222.1 348.2,223.6 348.1,234.3 348.1,232.8 
					"/>
		<polygon style="opacity:0.1;fill:#16193B;enable-background:new    ;" points="253.6,235.1 253.6,236.6 253.5,244.6 253.5,243.2 
					"/>
		<polygon style="opacity:0.1;fill:#16193B;enable-background:new    ;" points="267.5,235.2 267.5,236.7 267.5,244.7 267.4,243.2 
					"/>
		<polygon style="opacity:0.1;fill:#16193B;enable-background:new    ;" points="281.3,235.2 281.4,236.7 281.3,244.7 281.3,243.3 
					"/>
		<polygon style="opacity:0.1;fill:#16193B;enable-background:new    ;" points="295.3,235.3 295.3,236.7 295.2,244.8 295.2,243.3 
					"/>
		<polygon style="opacity:0.1;fill:#16193B;enable-background:new    ;" points="309.1,235.3 309.2,236.8 309.1,244.8 309.1,243.3 
					"/>
		<polygon style="opacity:0.1;fill:#16193B;enable-background:new    ;" points="323,235.4 323.1,236.8 323,244.9 323,243.4 		"/>
		<polygon style="opacity:0.1;fill:#16193B;enable-background:new    ;" points="334.2,235.4 334.2,236.9 334.1,244.9 334.1,243.4 
					"/>
		<polygon style="opacity:0.1;fill:#16193B;enable-background:new    ;" points="348.1,235.4 348.1,236.9 348,245 348,243.5 		"/>
	</g>
	<g>
		<polygon style="fill:#808080;" points="253.8,245.8 253.8,247.3 250.8,247.3 250.7,245.8 		"/>
		<polygon style="fill:#808080;" points="264.9,245.9 264.9,247.4 253.8,247.3 253.8,245.8 		"/>
		<polygon style="fill:#808080;" points="267.6,245.9 267.7,247.4 264.9,247.4 264.9,245.9 		"/>
	</g>
	<polygon style="opacity:0.1;fill:#16193B;enable-background:new    ;" points="362.3,158.7 362.4,160.2 361.9,245.9 361.9,244.4 	
		"/>
	<g>
		<polygon style="fill:#808080;" points="278.8,245.9 278.8,247.4 267.7,247.4 267.6,245.9 		"/>
		<polygon style="fill:#808080;" points="281.5,245.9 281.6,247.4 278.8,247.4 278.8,245.9 		"/>
		<polygon style="fill:#808080;" points="292.6,246 292.7,247.5 281.6,247.4 281.5,245.9 		"/>
		<polygon style="fill:#808080;" points="295.4,246 295.5,247.5 292.7,247.5 292.6,246 		"/>
		<polygon style="fill:#808080;" points="306.6,246 306.6,247.5 295.5,247.5 295.4,246 		"/>
		<polygon style="fill:#808080;" points="309.3,246 309.4,247.5 306.6,247.5 306.6,246 		"/>
		<polygon style="fill:#808080;" points="320.4,246.1 320.5,247.6 309.4,247.5 309.3,246 		"/>
		<polygon style="fill:#808080;" points="323.2,246.1 323.2,247.6 320.5,247.6 320.4,246.1 		"/>
		<polygon style="fill:#808080;" points="331.6,246.1 331.6,247.6 323.2,247.6 323.2,246.1 		"/>
		<polygon style="fill:#808080;" points="334.3,246.1 334.4,247.6 331.6,247.6 331.6,246.1 		"/>
		<polygon style="fill:#808080;" points="345.4,246.2 345.5,247.6 334.4,247.6 334.3,246.1 		"/>
		<polygon style="fill:#808080;" points="348.2,246.2 348.3,247.7 345.5,247.6 345.4,246.2 		"/>
		<polygon style="fill:#808080;" points="359.4,246.2 359.4,247.7 348.3,247.7 348.2,246.2 		"/>
	</g>
	<polygon style="fill:#949494;" points="361.9,244.4 361.9,245.9 361.9,247.7 361.9,246.2 	"/>
	<path style="fill:#FFFFFF;" d="M359.8,155.2h2.5v3.5l-0.4,85.7v1.8h-2.5h-11.1h-2.8h-11.1h-2.8h-8.3h-2.8h-11.1h-2.8h-11.1h-2.8
		h-11.1h-2.8h-11.1h-2.8h-11.1h-3v-1.8v-8v-2.7l0.1-10.7v-2.7l0.1-10.7v-2.7v-8v-2.7l0.1-13.4v-2.7l0.1-10.7v-2.7v-8v-3.5h3h11.1
		h2.8h11.1h2.8h11.1h2.8H307h2.8h11.1h2.8h8.4h2.8H346h2.8L359.8,155.2z M345.5,195.3l0.1-13.4h-11.1l-0.1,13.4H345.5 M292.7,195.1
		l0.1-13.4h-11.1l-0.1,13.4H292.7 M320.5,195.2l0.1-13.4h-11.1l-0.1,13.4H320.5 M306.6,195.2l0.1-13.4h-11.1l-0.1,13.4H306.6
		 M278.8,195.1l0.1-13.4h-11.1l-0.1,13.4H278.8 M264.9,195l0.1-13.4h-11.1l-0.1,13.4H264.9 M359.4,195.3l0.1-13.4h-11.1l-0.1,13.4
		H359.4 M320.3,219.3l0.1-10.7h-11.1l-0.1,10.7H320.3 M292.6,219.2l0.1-10.7h-11.1l-0.1,10.7H292.6 M345.4,219.4l0.1-10.7h-11.1
		l-0.1,10.7H345.4 M306.4,219.2l0.1-10.7h-11.1l-0.1,10.7H306.4 M320.6,179.1l0.1-10.7h-11.1l-0.1,10.7H320.6 M278.7,219.2l0.1-10.7
		h-11.1l-0.1,10.7H278.7 M345.6,179.2l0.1-10.7h-11.1l-0.1,10.7H345.6 M292.8,179l0.1-10.7h-11.1l-0.1,10.7H292.8 M264.7,219.1
		l0.1-10.7h-11.1l-0.1,10.7H264.7 M345.3,232.8l0.1-10.7h-11.1l-0.1,10.7H345.3 M359.2,219.4l0.1-10.7h-11.1l-0.1,10.7H359.2
		 M292.5,232.6l0.1-10.7h-11.1l-0.1,10.7H292.5 M320.3,232.7l0.1-10.7h-11.1l-0.1,10.7H320.3 M306.6,179.1l0.1-10.7h-11.1l-0.1,10.7
		H306.6 M278.9,179l0.1-10.7h-11.1l-0.1,10.7H278.9 M265,178.9l0.1-10.7H254l-0.1,10.7H265 M306.4,232.6l0.1-10.7h-11.1l-0.1,10.7
		H306.4 M278.6,232.5l0.1-10.7h-11.1l-0.1,10.7H278.6 M359.4,179.3l0.1-10.7h-11.1l-0.1,10.7H359.4 M264.7,232.5l0.1-10.7h-11.1
		l-0.1,10.7H264.7 M359.2,232.8l0.1-10.7h-11.1l-0.1,10.7H359.2 M331.6,195.2l0.1-13.4h-8.3l-0.1,13.4H331.6 M292.4,243.3v-8h-11.1
		v8H292.4 M345.2,243.5v-8h-11.1v8H345.2 M320.2,243.4v-8h-11.1v8H320.2 M306.3,243.3v-8h-11.1v8H306.3 M278.5,243.2v-8h-11.1v8
		H278.5 M264.6,243.2v-8h-11.1v8H264.6 M359.1,243.5v-8H348v8H359.1 M345.6,165.8v-8h-11.1v8H345.6 M320.6,165.7v-8h-11.1v8H320.6
		 M292.8,165.6v-8h-11.1v8H292.8 M345.4,206v-8h-11.1v8H345.4 M320.4,205.9v-8h-11.1v8H320.4 M292.6,205.8v-8h-11.1v8H292.6
		 M331.5,219.3l0.1-10.7h-8.3l-0.1,10.7H331.5 M306.7,165.7v-8h-11.1v8H306.7 M306.5,205.9v-8h-11.1v8H306.5 M278.9,165.6v-8h-11.1
		v8H278.9 M278.7,205.8v-8h-11.1v8H278.7 M331.7,179.2l0.1-10.7h-8.3l-0.1,10.7H331.7 M265,165.5v-8h-11.1v8H265 M264.8,205.7v-8
		h-11.1v8H264.8 M359.5,165.9v-8h-11.1v8H359.5 M359.3,206v-8h-11.1v8H359.3 M331.4,232.7l0.1-10.7h-8.3l-0.1,10.7H331.4
		 M331.3,243.4v-8H323v8H331.3 M331.7,165.8v-8h-8.3v8H331.7 M331.5,205.9v-8h-8.3v8H331.5"/>
	<polygon style="fill:#808080;" points="361.9,246.2 361.9,247.7 359.4,247.7 359.4,246.2 	"/>
</g>
<g style="opacity:0.22;">
	<polygon points="254.3,158.7 254.3,160.2 253.7,248.6 253.6,247.1 	"/>
	<polygon points="361.9,247.5 361.9,249 361.9,251.6 361.9,250.1 	"/>
</g>
<g style="enable-background:new    ;">
	<g>
		<polygon style="fill:#949494;" points="254.3,154.8 254.3,156.3 253.7,244.6 253.6,243.2 		"/>
		<polygon style="fill:#949494;" points="361.9,243.5 361.9,245 361.9,247.7 361.9,246.2 		"/>
	</g>
	<polygon style="fill:#FFFFFF;" points="253.6,243.2 361.9,243.5 361.9,246.2 250.8,245.8 251.5,154.8 254.3,154.8 	"/>
</g>
<g style="opacity:0.22;">
	<path d="M220.4,169.1c-8.8-9-21.1-14.5-34.7-14.5c-13.5,0-25.7,5.5-34.6,14.4l34.9,35.8L220.4,169.1z"/>
</g>
<path style="fill:#B3B3B3;" d="M185.4,247.9c27.5-0.2,48.6-21.9,48.6-48.6c0-13.3-5.5-25.3-14.1-34.1l-34.5,35.7L185.4,247.9
	L185.4,247.9z"/>
<path style="fill:#808080;" d="M220.4,165.2c-8.8-9-21.1-14.5-34.7-14.5c-13.5,0-25.7,5.5-34.6,14.4l34.9,35.8L220.4,165.2z"/>
<path style="fill:#CCCCCC;" d="M185.4,247.9L185.4,247.9V201l-34.6-35.9c-8.7,8.8-14,20.8-14,34.2
	C136.8,226.1,157.9,247.9,185.4,247.9z"/>
<path style="fill:#FFFFFF;" d="M333.2,176.4c2.8,0,5.1,2.2,5.1,4.9s-2.3,4.9-5.1,4.9c-0.6,0-1.3-0.1-1.9-0.4l-19.6,32.1
	c0.9,0.9,1.4,2.1,1.4,3.4c0,2.7-2.3,4.9-5.1,4.9c-2.8,0-5.1-2.2-5.1-4.9c0-1.2,0.5-2.2,1.2-3.1l-8.3-8.4c-0.5,0.2-1,0.3-1.6,0.3
	c-0.7,0-1.4-0.1-2-0.4l-8.1,8.4c0.7,0.9,1.2,1.9,1.2,3.1c0,2.7-2.3,4.9-5.1,4.9c-2.8,0-5.1-2.2-5-4.9c0-2.7,2.3-4.9,5.1-4.9
	c0.5,0,1.1,0.1,1.6,0.3l8.2-8.5c-0.6-0.8-0.9-1.8-0.9-2.8c0-2.7,2.3-4.9,5.1-4.9c2.8,0,5.1,2.2,5.1,4.9c0,1.2-0.4,2.2-1.2,3.1
	l8.3,8.4c0.5-0.2,1.1-0.3,1.6-0.3s0.9,0.1,1.3,0.2l19.8-32.5c-0.6-0.8-1-1.8-1-2.9C328.1,178.6,330.4,176.4,333.2,176.4z"/>
<g>
</g>
<g>
</g>
<g>
</g>
<g>
</g>
<g>
</g>
<g>
</g>
<g>
</g>
<g>
</g>
<g>
</g>
<g>
</g>
<g>
</g>
<g>
</g>
<g>
</g>
<g>
</g>
<g>
</g>
</svg>
