<?xml version="1.0" standalone="no"?><svg xmlns:xlink="http://www.w3.org/1999/xlink" xmlns="http://www.w3.org/2000/svg" viewBox="0 0 1000 666.661904700061" preserveAspectRatio="xMaxYMax slice"><g transform="scale(1.2987181651709763)"><rect x="0" y="0" width="769.9994999999999" height="513.333" fill="#ffffff"/><path d="M 0 0 A 64.17 64.17 0 0 1  64.17 64.17 L 0 0 A 64.17 64.17 0 0 0 64.17 64.17" fill="#cfb2a0"/><rect x="449.16637499999996" y="0" width="64.166625" height="64.166625" fill="#ffffff"/><path d="M 449.17 0 A 32.08 32.08 0 0 1  481.25 32.08 L 449.17 0 A 32.08 32.08 0 0 0 481.25 32.08" fill="#bf977f"/><path d="M 449.17 32.08 A 32.08 32.08 0 0 1  481.25 64.16 L 449.17 32.08 A 32.08 32.08 0 0 0 481.25 64.16" fill="#bb9178"/><rect x="577.4996249999999" y="0" width="64.166625" height="64.166625" fill="#ffffff"/><path d="M 577.5 32.08 A 32.08 32.08 0 0 1  609.58 0 L 577.5 32.08 A 32.08 32.08 0 0 0 609.58 0" fill="#fae9e1"/><path d="M 577.5 32.08 A 32.08 32.08 0 0 1  609.58 64.16 L 577.5 32.08 A 32.08 32.08 0 0 0 609.58 64.16" fill="#fffefe"/><path d="M 128.33 64.17 A 64.17 64.17 0 0 1  192.5 128.34 L 128.33 64.17 A 64.17 64.17 0 0 0 192.5 128.34" fill="#ccae9b"/><path d="M 513.33 128.34 A 64.17 64.17 0 0 1  577.5 64.17 L 513.33 128.34 A 64.17 64.17 0 0 0 577.5 64.17" fill="#ac795a"/><path d="M 577.5 64.17 A 64.17 64.17 0 0 1  641.67 128.34 L 577.5 64.17 A 64.17 64.17 0 0 0 641.67 128.34" fill="#fcf2ed"/><path d="M 641.67 128.34 A 64.17 64.17 0 0 1  705.8399999999999 64.17 L 641.67 128.34 A 64.17 64.17 0 0 0 705.8399999999999 64.17" fill="#e7d8cf"/><rect x="449.16637499999996" y="128.33325" width="64.166625" height="64.166625" fill="#ffffff"/><path d="M 449.17 128.33 A 32.08 32.08 0 0 1  481.25 160.41000000000003 L 449.17 128.33 A 32.08 32.08 0 0 0 481.25 160.41000000000003" fill="#e79d7a"/><rect x="641.66625" y="128.33325" width="64.166625" height="64.166625" fill="#ffffff"/><path d="M 673.75 128.33 A 32.08 32.08 0 0 1  705.83 160.41000000000003 L 673.75 128.33 A 32.08 32.08 0 0 0 705.83 160.41000000000003" fill="#bd957c"/><path d="M 641.67 160.42 A 32.08 32.08 0 0 1  673.75 192.5 L 641.67 160.42 A 32.08 32.08 0 0 0 673.75 192.5" fill="#e1865b"/><rect x="0" y="192.49987499999997" width="64.166625" height="64.166625" fill="#ffffff"/><path d="M 0 224.57999999999998 A 32.08 32.08 0 0 1  32.08 192.5 L 0 224.57999999999998 A 32.08 32.08 0 0 0 32.08 192.5" fill="#dbc4b7"/><rect x="256.6665" y="192.49987499999997" width="64.166625" height="64.166625" fill="#ffffff"/><path d="M 288.75 256.66 A 32.08 32.08 0 0 1  320.83 224.58 L 288.75 256.66 A 32.08 32.08 0 0 0 320.83 224.58" fill="#e1cfc3"/><path d="M 320.83 192.5 A 64.17 64.17 0 0 1  385 256.67 L 320.83 192.5 A 64.17 64.17 0 0 0 385 256.67" fill="#ddc8bc"/><path d="M 513.33 192.5 A 64.17 64.17 0 0 1  577.5 256.67 L 513.33 192.5 A 64.17 64.17 0 0 0 577.5 256.67" fill="#d86128"/><path d="M 577.5 192.5 A 64.17 64.17 0 0 1  641.67 256.67 L 577.5 192.5 A 64.17 64.17 0 0 0 641.67 256.67" fill="#d9652d"/><path d="M 128.33 385 A 64.17 64.17 0 0 1  192.5 320.83 L 128.33 385 A 64.17 64.17 0 0 0 192.5 320.83" fill="#e38e65"/><path d="M 449.17 320.83 A 64.17 64.17 0 0 1  513.34 385 L 449.17 320.83 A 64.17 64.17 0 0 0 513.34 385" fill="#d8c0b2"/><rect x="577.4996249999999" y="320.833125" width="64.166625" height="64.166625" fill="#ffffff"/><path d="M 577.5 320.83 A 32.08 32.08 0 0 1  609.58 352.90999999999997 L 577.5 320.83 A 32.08 32.08 0 0 0 609.58 352.90999999999997" fill="#f6d9cc"/><path d="M 609.58 320.83 A 32.08 32.08 0 0 1  641.6600000000001 352.90999999999997 L 609.58 320.83 A 32.08 32.08 0 0 0 641.6600000000001 352.90999999999997" fill="#bc947b"/><path d="M 577.5 352.92 A 32.08 32.08 0 0 1  609.58 385 L 577.5 352.92 A 32.08 32.08 0 0 0 609.58 385" fill="#decabe"/><path d="M 641.67 385 A 64.17 64.17 0 0 1  705.8399999999999 320.83 L 641.67 385 A 64.17 64.17 0 0 0 705.8399999999999 320.83" fill="#fbeee7"/><rect x="0" y="384.99974999999995" width="64.166625" height="64.166625" fill="#ffffff"/><path d="M 32.08 417.08 A 32.08 32.08 0 0 1  64.16 449.15999999999997 L 32.08 417.08 A 32.08 32.08 0 0 0 64.16 449.15999999999997" fill="#c39f89"/><rect x="192.49987499999997" y="384.99974999999995" width="64.166625" height="64.166625" fill="#ffffff"/><path d="M 192.5 449.15999999999997 A 32.08 32.08 0 0 1  224.57999999999998 417.08 L 192.5 449.15999999999997 A 32.08 32.08 0 0 0 224.57999999999998 417.08" fill="#dcc7b9"/><rect x="449.16637499999996" y="384.99974999999995" width="64.166625" height="64.166625" fill="#ffffff"/><path d="M 128.33 513.34 A 64.17 64.17 0 0 1  192.5 449.17 L 128.33 513.34 A 64.17 64.17 0 0 0 192.5 449.17" fill="#d55518"/><path d="M 577.5 513.34 A 64.17 64.17 0 0 1  641.67 449.17 L 577.5 513.34 A 64.17 64.17 0 0 0 641.67 449.17" fill="#8b4418"/><path d="M 705.83 513.34 A 64.17 64.17 0 0 1  770 449.17 L 705.83 513.34 A 64.17 64.17 0 0 0 770 449.17" fill="#f3cfbe"/></g></svg>