<?xml version="1.0" encoding="iso-8859-1"?>
<!-- Generator: Adobe Illustrator 19.0.0, SVG Export Plug-In . SVG Version: 6.00 Build 0)  -->
<svg version="1.1" id="Layer_1" xmlns="http://www.w3.org/2000/svg" xmlns:xlink="http://www.w3.org/1999/xlink" x="0px" y="0px"
	 viewBox="0 0 512 512" style="enable-background:new 0 0 512 512;" xml:space="preserve">
<path d="M512,157v198c0,35.2-28.8,64-64,64H64c-35.2,0-64-28.8-64-64V157c0-35.2,28.8-64,64-64h384C483.2,93,512,121.8,512,157z"/>
<path style="fill:#666666;" d="M429.336,122v264H68.416V122H429.336 M437.336,114H60.416v280h376.92V114L437.336,114z"/>
<g>
	<circle style="fill:#CCCCCC;" cx="30.176" cy="256" r="12"/>
	<path style="fill:#CCCCCC;" d="M488.272,228.872v54.264c0,7.496-6.064,13.568-13.568,13.568c-7.496,0-13.568-6.064-13.568-13.568
		v-54.264c0-7.496,6.064-13.568,13.568-13.568C482.208,215.304,488.272,221.368,488.272,228.872z"/>
</g>
<polygon style="fill:#FF583E;" points="199.248,210.744 182.568,161.376 139.368,161.376 139.368,148.184 192.032,148.184 
	211.744,206.52 "/>
<polygon style="fill:#FFFFFF;" points="167.248,199.664 350.44,199.664 315.52,297.64 197.752,297.64 "/>
<g>
	<circle style="fill:#FF583E;" cx="218.32" cy="334.408" r="25.4"/>
	<circle style="fill:#FF583E;" cx="294.968" cy="334.408" r="25.4"/>
</g>
<g>
</g>
<g>
</g>
<g>
</g>
<g>
</g>
<g>
</g>
<g>
</g>
<g>
</g>
<g>
</g>
<g>
</g>
<g>
</g>
<g>
</g>
<g>
</g>
<g>
</g>
<g>
</g>
<g>
</g>
</svg>
