<svg xmlns="http://www.w3.org/2000/svg" width="512" height="512"><rect id="backgroundrect" width="100%" height="100%" x="0" y="0" fill="none" stroke="none"/><!--! Font Awesome Pro 6.1.1 by @fontawesome - https://fontawesome.com License - https://fontawesome.com/license (Commercial License) Copyright 2022 Fonticons, Inc. --><g class="currentLayer" style=""><title>Layer 1</title><path d="M207.14210526943208,20.73 c-93.45,18.32 -168.7,93.66 -187,187.1 c-27.64,140.9 68.65,266.2 199.1,285.1 c19.01,2.888 36.17,-12.26 36.17,-31.49 l0.00010000000000000003,-0.6631000000000001 c0,-15.74 -11.44,-28.88 -26.84,-31.24 c-84.35,-12.98 -149.2,-86.13 -149.2,-174.2 c0,-102.9 88.61,-185.5 193.4,-175.4 c91.54,8.869 158.6,91.25 158.6,183.2 l0,16.16 c0,22.09 -17.94,40.05 -40,40.05 s-40.01,-17.96 -40.01,-40.05 v-120.1 c0,-8.847 -7.161,-16.02 -16.01,-16.02 l-31.98,0.003600000000000001 c-7.299,0 -13.2,4.992 -15.12,11.68 c-24.85,-12.15 -54.24,-16.38 -86.06,-5.106 c-38.75,13.73 -68.12,48.91 -73.72,89.64 c-9.483,69.01 43.81,128 110.9,128 c26.44,0 50.43,-9.544 69.59,-24.88 c24,31.3 65.23,48.69 109.4,37.49 C464.54210526943206,369.3 495.34210526943207,324.1 494.4421052694321,277.2 V256.3 C494.4421052694321,107.1 360.54210526943206,-9.332 207.14210526943208,20.73 zM238.44210526943206,304.3 c-26.47,0 -48,-21.56 -48,-48.05 s21.53,-48.05 48,-48.05 s48,21.56 48,48.05 S265.84210526943207,304.3 238.44210526943206,304.3 z" id="svg_1" class="selected" fill-opacity="1" fill="#f5fbf9"/></g></svg>