<svg xmlns="http://www.w3.org/2000/svg" xmlns:xlink="http://www.w3.org/1999/xlink" width="2380" zoomAndPan="magnify" viewBox="0 0 1784.88 1784.99993" height="2380" preserveAspectRatio="xMidYMid meet" version="1.0"><defs><g><g id="id1"/><g id="id2"/></g><clipPath id="id3"><path d="M 0 0.0585938 L 1784.761719 0.0585938 L 1784.761719 1784.9375 L 0 1784.9375 Z M 0 0.0585938 " clip-rule="nonzero"/></clipPath><clipPath id="id4"><path d="M 0 0.0585938 L 1784.75 0.0585938 L 1784.75 1784.9375 L 0 1784.9375 Z M 0 0.0585938 " clip-rule="nonzero"/></clipPath><linearGradient x1="0.999928" gradientTransform="matrix(-1784.88, 0, 0, 1784.88, 1784.751109, 0.059965)" y1="0.5" x2="0.0000000439046" gradientUnits="userSpaceOnUse" y2="0.5" xlink:type="simple" xlink:actuate="onLoad" id="id5" xlink:show="other"><stop stop-opacity="1" stop-color="rgb(3.501892%, 32.202148%, 33.700562%)" offset="0"/><stop stop-opacity="1" stop-color="rgb(3.625488%, 32.336426%, 33.796692%)" offset="0.0078125"/><stop stop-opacity="1" stop-color="rgb(3.874207%, 32.60498%, 33.990479%)" offset="0.015625"/><stop stop-opacity="1" stop-color="rgb(4.121399%, 32.875061%, 34.182739%)" offset="0.0234375"/><stop stop-opacity="1" stop-color="rgb(4.370117%, 33.145142%, 34.376526%)" offset="0.03125"/><stop stop-opacity="1" stop-color="rgb(4.618835%, 33.413696%, 34.568787%)" offset="0.0390625"/><stop stop-opacity="1" stop-color="rgb(4.867554%, 33.683777%, 34.762573%)" offset="0.046875"/><stop stop-opacity="1" stop-color="rgb(5.116272%, 33.952332%, 34.954834%)" offset="0.0546875"/><stop stop-opacity="1" stop-color="rgb(5.363464%, 34.222412%, 35.147095%)" offset="0.0625"/><stop stop-opacity="1" stop-color="rgb(5.612183%, 34.492493%, 35.340881%)" offset="0.0703125"/><stop stop-opacity="1" stop-color="rgb(5.860901%, 34.761047%, 35.533142%)" offset="0.078125"/><stop stop-opacity="1" stop-color="rgb(6.109619%, 35.031128%, 35.726929%)" offset="0.0859375"/><stop stop-opacity="1" stop-color="rgb(6.358337%, 35.301208%, 35.919189%)" offset="0.09375"/><stop stop-opacity="1" stop-color="rgb(6.60553%, 35.569763%, 36.112976%)" offset="0.101563"/><stop stop-opacity="1" stop-color="rgb(6.854248%, 35.839844%, 36.305237%)" offset="0.109375"/><stop stop-opacity="1" stop-color="rgb(7.102966%, 36.109924%, 36.499023%)" offset="0.117188"/><stop stop-opacity="1" stop-color="rgb(7.351685%, 36.378479%, 36.691284%)" offset="0.125"/><stop stop-opacity="1" stop-color="rgb(7.600403%, 36.64856%, 36.885071%)" offset="0.132813"/><stop stop-opacity="1" stop-color="rgb(7.847595%, 36.917114%, 37.077332%)" offset="0.140625"/><stop stop-opacity="1" stop-color="rgb(8.096313%, 37.187195%, 37.269592%)" offset="0.148438"/><stop stop-opacity="1" stop-color="rgb(8.345032%, 37.457275%, 37.463379%)" offset="0.15625"/><stop stop-opacity="1" stop-color="rgb(8.59375%, 37.72583%, 37.65564%)" offset="0.164062"/><stop stop-opacity="1" stop-color="rgb(8.842468%, 37.995911%, 37.849426%)" offset="0.171875"/><stop stop-opacity="1" stop-color="rgb(9.089661%, 38.265991%, 38.041687%)" offset="0.179688"/><stop stop-opacity="1" stop-color="rgb(9.338379%, 38.534546%, 38.235474%)" offset="0.1875"/><stop stop-opacity="1" stop-color="rgb(9.587097%, 38.804626%, 38.427734%)" offset="0.195313"/><stop stop-opacity="1" stop-color="rgb(9.835815%, 39.073181%, 38.621521%)" offset="0.203125"/><stop stop-opacity="1" stop-color="rgb(10.084534%, 39.343262%, 38.813782%)" offset="0.210938"/><stop stop-opacity="1" stop-color="rgb(10.331726%, 39.613342%, 39.007568%)" offset="0.21875"/><stop stop-opacity="1" stop-color="rgb(10.580444%, 39.881897%, 39.199829%)" offset="0.226562"/><stop stop-opacity="1" stop-color="rgb(10.829163%, 40.151978%, 39.39209%)" offset="0.234375"/><stop stop-opacity="1" stop-color="rgb(11.077881%, 40.422058%, 39.585876%)" offset="0.242188"/><stop stop-opacity="1" stop-color="rgb(11.326599%, 40.690613%, 39.778137%)" offset="0.25"/><stop stop-opacity="1" stop-color="rgb(11.575317%, 40.960693%, 39.971924%)" offset="0.257813"/><stop stop-opacity="1" stop-color="rgb(11.82251%, 41.229248%, 40.164185%)" offset="0.265625"/><stop stop-opacity="1" stop-color="rgb(12.071228%, 41.499329%, 40.357971%)" offset="0.273438"/><stop stop-opacity="1" stop-color="rgb(12.319946%, 41.769409%, 40.550232%)" offset="0.28125"/><stop stop-opacity="1" stop-color="rgb(12.568665%, 42.037964%, 40.744019%)" offset="0.289063"/><stop stop-opacity="1" stop-color="rgb(12.817383%, 42.308044%, 40.936279%)" offset="0.296875"/><stop stop-opacity="1" stop-color="rgb(13.064575%, 42.578125%, 41.130066%)" offset="0.304688"/><stop stop-opacity="1" stop-color="rgb(13.313293%, 42.84668%, 41.322327%)" offset="0.3125"/><stop stop-opacity="1" stop-color="rgb(13.562012%, 43.11676%, 41.514587%)" offset="0.320312"/><stop stop-opacity="1" stop-color="rgb(13.81073%, 43.385315%, 41.708374%)" offset="0.328125"/><stop stop-opacity="1" stop-color="rgb(14.059448%, 43.655396%, 41.900635%)" offset="0.335938"/><stop stop-opacity="1" stop-color="rgb(14.306641%, 43.925476%, 42.094421%)" offset="0.34375"/><stop stop-opacity="1" stop-color="rgb(14.555359%, 44.194031%, 42.286682%)" offset="0.351562"/><stop stop-opacity="1" stop-color="rgb(14.804077%, 44.464111%, 42.480469%)" offset="0.359375"/><stop stop-opacity="1" stop-color="rgb(15.052795%, 44.734192%, 42.672729%)" offset="0.367188"/><stop stop-opacity="1" stop-color="rgb(15.301514%, 45.002747%, 42.866516%)" offset="0.375"/><stop stop-opacity="1" stop-color="rgb(15.548706%, 45.272827%, 43.058777%)" offset="0.382813"/><stop stop-opacity="1" stop-color="rgb(15.797424%, 45.541382%, 43.252563%)" offset="0.390625"/><stop stop-opacity="1" stop-color="rgb(16.046143%, 45.811462%, 43.444824%)" offset="0.398438"/><stop stop-opacity="1" stop-color="rgb(16.294861%, 46.081543%, 43.637085%)" offset="0.40625"/><stop stop-opacity="1" stop-color="rgb(16.543579%, 46.350098%, 43.830872%)" offset="0.414063"/><stop stop-opacity="1" stop-color="rgb(16.790771%, 46.620178%, 44.023132%)" offset="0.421875"/><stop stop-opacity="1" stop-color="rgb(17.03949%, 46.890259%, 44.216919%)" offset="0.429688"/><stop stop-opacity="1" stop-color="rgb(17.288208%, 47.158813%, 44.40918%)" offset="0.4375"/><stop stop-opacity="1" stop-color="rgb(17.536926%, 47.428894%, 44.602966%)" offset="0.445312"/><stop stop-opacity="1" stop-color="rgb(17.785645%, 47.697449%, 44.795227%)" offset="0.453125"/><stop stop-opacity="1" stop-color="rgb(18.032837%, 47.967529%, 44.989014%)" offset="0.460938"/><stop stop-opacity="1" stop-color="rgb(18.281555%, 48.23761%, 45.181274%)" offset="0.46875"/><stop stop-opacity="1" stop-color="rgb(18.530273%, 48.506165%, 45.375061%)" offset="0.476563"/><stop stop-opacity="1" stop-color="rgb(18.778992%, 48.776245%, 45.567322%)" offset="0.484375"/><stop stop-opacity="1" stop-color="rgb(19.02771%, 49.046326%, 45.761108%)" offset="0.492188"/><stop stop-opacity="1" stop-color="rgb(19.274902%, 49.31488%, 45.953369%)" offset="0.5"/><stop stop-opacity="1" stop-color="rgb(19.523621%, 49.584961%, 46.14563%)" offset="0.507813"/><stop stop-opacity="1" stop-color="rgb(19.772339%, 49.853516%, 46.339417%)" offset="0.515625"/><stop stop-opacity="1" stop-color="rgb(20.021057%, 50.123596%, 46.531677%)" offset="0.523438"/><stop stop-opacity="1" stop-color="rgb(20.269775%, 50.393677%, 46.725464%)" offset="0.53125"/><stop stop-opacity="1" stop-color="rgb(20.516968%, 50.662231%, 46.917725%)" offset="0.539063"/><stop stop-opacity="1" stop-color="rgb(20.765686%, 50.932312%, 47.111511%)" offset="0.546875"/><stop stop-opacity="1" stop-color="rgb(21.014404%, 51.202393%, 47.303772%)" offset="0.554688"/><stop stop-opacity="1" stop-color="rgb(21.263123%, 51.470947%, 47.497559%)" offset="0.5625"/><stop stop-opacity="1" stop-color="rgb(21.511841%, 51.741028%, 47.689819%)" offset="0.570313"/><stop stop-opacity="1" stop-color="rgb(21.759033%, 52.011108%, 47.883606%)" offset="0.578125"/><stop stop-opacity="1" stop-color="rgb(22.007751%, 52.279663%, 48.075867%)" offset="0.585938"/><stop stop-opacity="1" stop-color="rgb(22.25647%, 52.549744%, 48.268127%)" offset="0.59375"/><stop stop-opacity="1" stop-color="rgb(22.505188%, 52.818298%, 48.461914%)" offset="0.601563"/><stop stop-opacity="1" stop-color="rgb(22.753906%, 53.088379%, 48.654175%)" offset="0.609375"/><stop stop-opacity="1" stop-color="rgb(23.001099%, 53.358459%, 48.847961%)" offset="0.617188"/><stop stop-opacity="1" stop-color="rgb(23.249817%, 53.627014%, 49.040222%)" offset="0.625"/><stop stop-opacity="1" stop-color="rgb(23.498535%, 53.897095%, 49.234009%)" offset="0.632812"/><stop stop-opacity="1" stop-color="rgb(23.747253%, 54.167175%, 49.42627%)" offset="0.640625"/><stop stop-opacity="1" stop-color="rgb(23.995972%, 54.43573%, 49.620056%)" offset="0.648438"/><stop stop-opacity="1" stop-color="rgb(24.24469%, 54.705811%, 49.812317%)" offset="0.65625"/><stop stop-opacity="1" stop-color="rgb(24.491882%, 54.974365%, 50.006104%)" offset="0.664062"/><stop stop-opacity="1" stop-color="rgb(24.740601%, 55.244446%, 50.198364%)" offset="0.671875"/><stop stop-opacity="1" stop-color="rgb(24.989319%, 55.514526%, 50.390625%)" offset="0.679688"/><stop stop-opacity="1" stop-color="rgb(25.238037%, 55.783081%, 50.584412%)" offset="0.6875"/><stop stop-opacity="1" stop-color="rgb(25.486755%, 56.053162%, 50.776672%)" offset="0.695312"/><stop stop-opacity="1" stop-color="rgb(25.733948%, 56.323242%, 50.970459%)" offset="0.703125"/><stop stop-opacity="1" stop-color="rgb(25.982666%, 56.591797%, 51.16272%)" offset="0.710938"/><stop stop-opacity="1" stop-color="rgb(26.231384%, 56.861877%, 51.356506%)" offset="0.71875"/><stop stop-opacity="1" stop-color="rgb(26.480103%, 57.130432%, 51.548767%)" offset="0.726563"/><stop stop-opacity="1" stop-color="rgb(26.728821%, 57.400513%, 51.742554%)" offset="0.734375"/><stop stop-opacity="1" stop-color="rgb(26.976013%, 57.670593%, 51.934814%)" offset="0.742188"/><stop stop-opacity="1" stop-color="rgb(27.224731%, 57.939148%, 52.128601%)" offset="0.75"/><stop stop-opacity="1" stop-color="rgb(27.47345%, 58.209229%, 52.320862%)" offset="0.757813"/><stop stop-opacity="1" stop-color="rgb(27.722168%, 58.479309%, 52.513123%)" offset="0.765625"/><stop stop-opacity="1" stop-color="rgb(27.970886%, 58.747864%, 52.706909%)" offset="0.773438"/><stop stop-opacity="1" stop-color="rgb(28.218079%, 59.017944%, 52.89917%)" offset="0.78125"/><stop stop-opacity="1" stop-color="rgb(28.466797%, 59.286499%, 53.092957%)" offset="0.789063"/><stop stop-opacity="1" stop-color="rgb(28.715515%, 59.55658%, 53.285217%)" offset="0.796875"/><stop stop-opacity="1" stop-color="rgb(28.964233%, 59.82666%, 53.479004%)" offset="0.804688"/><stop stop-opacity="1" stop-color="rgb(29.212952%, 60.095215%, 53.671265%)" offset="0.8125"/><stop stop-opacity="1" stop-color="rgb(29.460144%, 60.365295%, 53.865051%)" offset="0.820312"/><stop stop-opacity="1" stop-color="rgb(29.708862%, 60.635376%, 54.057312%)" offset="0.828125"/><stop stop-opacity="1" stop-color="rgb(29.957581%, 60.903931%, 54.251099%)" offset="0.835938"/><stop stop-opacity="1" stop-color="rgb(30.206299%, 61.174011%, 54.443359%)" offset="0.84375"/><stop stop-opacity="1" stop-color="rgb(30.455017%, 61.442566%, 54.63562%)" offset="0.851562"/><stop stop-opacity="1" stop-color="rgb(30.702209%, 61.712646%, 54.829407%)" offset="0.859375"/><stop stop-opacity="1" stop-color="rgb(30.950928%, 61.982727%, 55.021667%)" offset="0.867188"/><stop stop-opacity="1" stop-color="rgb(31.199646%, 62.251282%, 55.215454%)" offset="0.875"/><stop stop-opacity="1" stop-color="rgb(31.448364%, 62.521362%, 55.407715%)" offset="0.882812"/><stop stop-opacity="1" stop-color="rgb(31.697083%, 62.791443%, 55.601501%)" offset="0.890625"/><stop stop-opacity="1" stop-color="rgb(31.944275%, 63.059998%, 55.793762%)" offset="0.898438"/><stop stop-opacity="1" stop-color="rgb(32.192993%, 63.330078%, 55.987549%)" offset="0.90625"/><stop stop-opacity="1" stop-color="rgb(32.441711%, 63.598633%, 56.17981%)" offset="0.914062"/><stop stop-opacity="1" stop-color="rgb(32.69043%, 63.868713%, 56.373596%)" offset="0.921875"/><stop stop-opacity="1" stop-color="rgb(32.939148%, 64.138794%, 56.565857%)" offset="0.929688"/><stop stop-opacity="1" stop-color="rgb(33.18634%, 64.407349%, 56.758118%)" offset="0.9375"/><stop stop-opacity="1" stop-color="rgb(33.435059%, 64.677429%, 56.951904%)" offset="0.945313"/><stop stop-opacity="1" stop-color="rgb(33.683777%, 64.94751%, 57.144165%)" offset="0.953125"/><stop stop-opacity="1" stop-color="rgb(33.932495%, 65.216064%, 57.337952%)" offset="0.960938"/><stop stop-opacity="1" stop-color="rgb(34.181213%, 65.486145%, 57.530212%)" offset="0.96875"/><stop stop-opacity="1" stop-color="rgb(34.428406%, 65.756226%, 57.723999%)" offset="0.976563"/><stop stop-opacity="1" stop-color="rgb(34.677124%, 66.02478%, 57.91626%)" offset="0.984375"/><stop stop-opacity="1" stop-color="rgb(34.925842%, 66.294861%, 58.110046%)" offset="0.992188"/><stop stop-opacity="1" stop-color="rgb(35.174561%, 66.563416%, 58.302307%)" offset="1"/></linearGradient></defs><g clip-path="url(#id3)"><path fill="rgb(100%, 100%, 100%)" d="M 0 0.0585938 L 1784.878906 0.0585938 L 1784.878906 1792.4375 L 0 1792.4375 Z M 0 0.0585938 " fill-opacity="1" fill-rule="nonzero"/><path fill="rgb(100%, 100%, 100%)" d="M 0 0.0585938 L 1784.878906 0.0585938 L 1784.878906 1784.941406 L 0 1784.941406 Z M 0 0.0585938 " fill-opacity="1" fill-rule="nonzero"/><path fill="rgb(100%, 100%, 100%)" d="M 0 0.0585938 L 1784.878906 0.0585938 L 1784.878906 1784.941406 L 0 1784.941406 Z M 0 0.0585938 " fill-opacity="1" fill-rule="nonzero"/><path fill="rgb(100%, 100%, 100%)" d="M 0 0.0585938 L 1784.878906 0.0585938 L 1784.878906 1784.941406 L 0 1784.941406 Z M 0 0.0585938 " fill-opacity="1" fill-rule="nonzero"/></g><g clip-path="url(#id4)"><path fill="url(#id5)" d="M 1784.75 0.0585938 L 1784.75 1784.941406 L 0 1784.941406 L 0 0.0585938 Z M 1784.75 0.0585938 " fill-rule="nonzero"/></g><g fill="rgb(96.078491%, 98.429871%, 97.648621%)" fill-opacity="1"><g transform="translate(407.644452, 1161.67182)"><g><path d="M 274.59375 -546.78125 C 240.96875 -546.78125 209.207031 -539.304688 179.3125 -524.359375 C 149.425781 -509.410156 123.410156 -489.128906 101.265625 -463.515625 C 79.117188 -437.898438 61.503906 -408.015625 48.421875 -373.859375 C 35.347656 -339.703125 28.8125 -303.675781 28.8125 -265.78125 C 28.8125 -227.882812 35.484375 -191.859375 48.828125 -157.703125 C 62.171875 -123.546875 80.050781 -93.660156 102.46875 -68.046875 C 124.882812 -42.429688 150.769531 -22.148438 180.125 -7.203125 C 209.476562 7.734375 240.164062 15.203125 272.1875 15.203125 C 297.800781 15.203125 321.945312 11.867188 344.625 5.203125 C 367.3125 -1.460938 387.328125 -11.734375 404.671875 -25.609375 C 422.015625 -39.492188 435.625 -57.242188 445.5 -78.859375 C 455.375 -100.472656 460.3125 -126.222656 460.3125 -156.109375 L 460.3125 -183.328125 L 529.96875 -183.328125 L 529.96875 -196.140625 L 292.203125 -196.140625 L 292.203125 -183.328125 L 377.859375 -183.328125 L 377.859375 -108.078125 C 377.859375 -95.265625 376.523438 -82.453125 373.859375 -69.640625 C 371.191406 -56.835938 366.117188 -45.234375 358.640625 -34.828125 C 351.171875 -24.421875 340.628906 -15.878906 327.015625 -9.203125 C 313.410156 -2.535156 295.664062 0.796875 273.78125 0.796875 C 227.351562 0.796875 191.328125 -17.613281 165.703125 -54.4375 C 140.085938 -91.257812 127.28125 -145.960938 127.28125 -218.546875 L 127.28125 -317.015625 C 127.28125 -354.910156 130.882812 -387.46875 138.09375 -414.6875 C 145.300781 -441.90625 155.441406 -464.1875 168.515625 -481.53125 C 181.585938 -498.875 197.0625 -511.679688 214.9375 -519.953125 C 232.820312 -528.222656 252.707031 -532.359375 274.59375 -532.359375 C 313.550781 -532.359375 346.90625 -521.015625 374.65625 -498.328125 C 402.40625 -475.648438 424.820312 -437.09375 441.90625 -382.65625 C 443.5 -377.851562 445.898438 -375.453125 449.109375 -375.453125 C 452.304688 -375.453125 453.90625 -377.851562 453.90625 -382.65625 L 453.90625 -533.96875 C 453.90625 -539.832031 451.769531 -542.765625 447.5 -542.765625 C 444.832031 -542.765625 442.832031 -542.226562 441.5 -541.15625 C 440.164062 -540.09375 438.429688 -538.492188 436.296875 -536.359375 L 401.875 -501.9375 C 386.394531 -515.8125 367.582031 -526.753906 345.4375 -534.765625 C 323.289062 -542.773438 299.675781 -546.78125 274.59375 -546.78125 Z M 274.59375 -546.78125 "/></g></g></g><g fill="rgb(96.078491%, 98.429871%, 97.648621%)" fill-opacity="1"><g transform="translate(943.21064, 1161.67182)"><g><path d="M 361.046875 -543.578125 L 337.828125 -513.953125 C 328.222656 -519.285156 319.148438 -524.085938 310.609375 -528.359375 C 302.066406 -532.628906 293.394531 -536.097656 284.59375 -538.765625 C 275.789062 -541.429688 266.453125 -543.429688 256.578125 -544.765625 C 246.703125 -546.109375 235.359375 -546.78125 222.546875 -546.78125 C 196.398438 -546.78125 173.050781 -542.507812 152.5 -533.96875 C 131.957031 -525.425781 114.476562 -513.945312 100.0625 -499.53125 C 85.65625 -485.125 74.710938 -468.582031 67.234375 -449.90625 C 59.765625 -431.226562 56.03125 -411.484375 56.03125 -390.671875 C 56.03125 -362.378906 64.703125 -336.492188 82.046875 -313.015625 C 99.398438 -289.535156 126.488281 -271.65625 163.3125 -259.375 C 180.925781 -253.507812 195.867188 -248.707031 208.140625 -244.96875 C 220.421875 -241.226562 231.894531 -237.625 242.5625 -234.15625 C 253.238281 -230.6875 264.046875 -226.953125 274.984375 -222.953125 C 285.929688 -218.953125 298.609375 -213.484375 313.015625 -206.546875 C 331.160156 -198.003906 343.4375 -186.125 349.84375 -170.90625 C 356.25 -155.695312 359.453125 -140.359375 359.453125 -124.890625 C 359.453125 -105.671875 355.710938 -88.1875 348.234375 -72.4375 C 340.765625 -56.695312 330.890625 -43.488281 318.609375 -32.8125 C 306.335938 -22.144531 292.195312 -13.875 276.1875 -8 C 260.175781 -2.132812 243.898438 0.796875 227.359375 0.796875 C 208.140625 0.796875 189.722656 -2.535156 172.109375 -9.203125 C 154.503906 -15.878906 138.226562 -25.351562 123.28125 -37.625 C 108.34375 -49.894531 95.398438 -65.101562 84.453125 -83.25 C 73.515625 -101.394531 65.109375 -121.675781 59.234375 -144.09375 C 57.640625 -151.03125 54.707031 -154.5 50.4375 -154.5 C 46.695312 -154.5 44.828125 -150.765625 44.828125 -143.296875 L 44.828125 0 C 44.828125 6.9375 47.226562 10.40625 52.03125 10.40625 C 55.238281 10.40625 58.707031 7.738281 62.4375 2.40625 L 91.265625 -39.234375 C 97.671875 -33.359375 105.539062 -27.21875 114.875 -20.8125 C 124.21875 -14.40625 134.625 -8.535156 146.09375 -3.203125 C 157.570312 2.128906 169.847656 6.53125 182.921875 10 C 195.992188 13.46875 209.472656 15.203125 223.359375 15.203125 C 248.972656 15.203125 272.71875 10.53125 294.59375 1.1875 C 316.476562 -8.144531 335.425781 -21.082031 351.4375 -37.625 C 367.445312 -54.164062 380.117188 -73.773438 389.453125 -96.453125 C 398.796875 -119.140625 403.46875 -143.5625 403.46875 -169.71875 C 403.46875 -205.476562 395.0625 -235.765625 378.25 -260.578125 C 361.445312 -285.390625 334.898438 -303.132812 298.609375 -313.8125 C 286.328125 -317.550781 274.847656 -320.753906 264.171875 -323.421875 C 253.503906 -326.085938 242.566406 -329.019531 231.359375 -332.21875 C 220.148438 -335.425781 208.40625 -339.03125 196.125 -343.03125 C 183.851562 -347.03125 170.25 -351.96875 155.3125 -357.84375 C 138.757812 -364.25 126.210938 -374.125 117.671875 -387.46875 C 109.140625 -400.8125 104.875 -416.285156 104.875 -433.890625 C 104.875 -450.441406 108.34375 -464.988281 115.28125 -477.53125 C 122.21875 -490.070312 131.15625 -500.34375 142.09375 -508.34375 C 153.039062 -516.351562 165.582031 -522.359375 179.71875 -526.359375 C 193.863281 -530.359375 208.140625 -532.359375 222.546875 -532.359375 C 244.429688 -532.359375 263.644531 -528.625 280.1875 -521.15625 C 296.738281 -513.6875 310.613281 -503.8125 321.8125 -491.53125 C 333.019531 -479.257812 341.957031 -465.117188 348.625 -449.109375 C 355.300781 -433.097656 359.707031 -416.550781 361.84375 -399.46875 C 362.375 -394.132812 364.773438 -391.46875 369.046875 -391.46875 C 372.785156 -391.46875 374.65625 -394.132812 374.65625 -399.46875 L 374.65625 -541.96875 C 374.65625 -547.300781 373.054688 -549.96875 369.859375 -549.96875 C 367.179688 -549.96875 364.242188 -547.835938 361.046875 -543.578125 Z M 361.046875 -543.578125 "/></g></g></g><g fill="rgb(96.078491%, 98.429871%, 97.648621%)" fill-opacity="1"><g transform="translate(699.596969, 1345.84923)"><g><path d="M 57.09375 -20.296875 C 56.757812 -20.296875 56.425781 -19.929688 56.09375 -19.203125 C 54.894531 -16.460938 53.59375 -13.910156 52.1875 -11.546875 C 50.789062 -9.179688 49.191406 -7.128906 47.390625 -5.390625 C 45.585938 -3.660156 43.585938 -2.3125 41.390625 -1.34375 C 39.191406 -0.382812 36.757812 0.09375 34.09375 0.09375 C 28.03125 0.09375 23.53125 -2.269531 20.59375 -7 C 17.664062 -11.726562 16.203125 -18.660156 16.203125 -27.796875 L 16.203125 -39 C 16.203125 -47.789062 17.703125 -54.566406 20.703125 -59.328125 C 23.703125 -64.097656 28.332031 -66.484375 34.59375 -66.484375 C 37.195312 -66.484375 39.5625 -66.066406 41.6875 -65.234375 C 43.820312 -64.398438 45.753906 -63.25 47.484375 -61.78125 C 49.222656 -60.320312 50.722656 -58.554688 51.984375 -56.484375 C 53.253906 -54.421875 54.289062 -52.191406 55.09375 -49.796875 C 55.289062 -49.128906 55.523438 -48.796875 55.796875 -48.796875 C 56.128906 -48.796875 56.296875 -49.195312 56.296875 -50 L 56.296875 -66.296875 C 56.296875 -66.890625 56.226562 -67.285156 56.09375 -67.484375 C 55.957031 -67.691406 55.753906 -67.796875 55.484375 -67.796875 C 55.148438 -67.796875 54.71875 -67.523438 54.1875 -66.984375 L 50.296875 -62.984375 C 48.160156 -64.722656 45.757812 -66.039062 43.09375 -66.9375 C 40.425781 -67.84375 37.59375 -68.296875 34.59375 -68.296875 C 30.195312 -68.296875 26.113281 -67.296875 22.34375 -65.296875 C 18.582031 -63.296875 15.316406 -60.660156 12.546875 -57.390625 C 9.785156 -54.117188 7.632812 -50.398438 6.09375 -46.234375 C 4.5625 -42.078125 3.796875 -37.863281 3.796875 -33.59375 C 3.796875 -28.664062 4.675781 -24.050781 6.4375 -19.75 C 8.207031 -15.445312 10.523438 -11.695312 13.390625 -8.5 C 16.265625 -5.300781 19.5 -2.765625 23.09375 -0.890625 C 26.695312 0.972656 30.363281 1.90625 34.09375 1.90625 C 37.226562 1.90625 40.226562 1.285156 43.09375 0.046875 C 45.957031 -1.179688 48.523438 -3.0625 50.796875 -5.59375 L 56.09375 0.203125 C 56.425781 0.535156 56.722656 0.703125 56.984375 0.703125 C 57.390625 0.703125 57.59375 0.46875 57.59375 0 L 57.59375 -19.296875 C 57.59375 -19.960938 57.425781 -20.296875 57.09375 -20.296875 Z M 57.09375 -20.296875 "/></g></g></g><g fill="rgb(96.078491%, 98.429871%, 97.648621%)" fill-opacity="1"><g transform="translate(760.89048, 1345.84923)"><g><path d="M 17.796875 -33.390625 L 17.796875 -39.1875 L 2.203125 -39.1875 L 2.203125 -37.59375 L 9.203125 -37.59375 L 9.203125 -1.59375 L 2.203125 -1.59375 L 2.203125 0 L 24.796875 0 L 24.796875 -1.59375 L 17.796875 -1.59375 L 17.796875 -29 C 17.796875 -30.0625 18.113281 -31.160156 18.75 -32.296875 C 19.382812 -33.429688 20.21875 -34.460938 21.25 -35.390625 C 22.28125 -36.328125 23.425781 -37.078125 24.6875 -37.640625 C 25.957031 -38.210938 27.191406 -38.5 28.390625 -38.5 C 29.128906 -38.5 29.78125 -38.445312 30.34375 -38.34375 C 30.90625 -38.238281 31.1875 -37.988281 31.1875 -37.59375 C 31.1875 -37.257812 31.019531 -37.023438 30.6875 -36.890625 C 30.289062 -36.628906 29.828125 -36.179688 29.296875 -35.546875 C 28.765625 -34.910156 28.5 -33.925781 28.5 -32.59375 C 28.5 -31.195312 28.960938 -30.046875 29.890625 -29.140625 C 30.828125 -28.242188 32.0625 -27.796875 33.59375 -27.796875 C 34.925781 -27.796875 36.09375 -28.242188 37.09375 -29.140625 C 38.09375 -30.046875 38.59375 -31.296875 38.59375 -32.890625 C 38.59375 -34.222656 38.328125 -35.335938 37.796875 -36.234375 C 37.265625 -37.140625 36.582031 -37.875 35.75 -38.4375 C 34.914062 -39.007812 33.945312 -39.425781 32.84375 -39.6875 C 31.738281 -39.957031 30.625 -40.09375 29.5 -40.09375 C 27.894531 -40.09375 26.457031 -39.859375 25.1875 -39.390625 C 23.925781 -38.921875 22.796875 -38.351562 21.796875 -37.6875 C 20.796875 -37.019531 19.960938 -36.300781 19.296875 -35.53125 C 18.628906 -34.769531 18.128906 -34.054688 17.796875 -33.390625 Z M 17.796875 -33.390625 "/></g></g></g><g fill="rgb(96.078491%, 98.429871%, 97.648621%)" fill-opacity="1"><g transform="translate(800.886252, 1345.84923)"><g><path d="M 39.296875 -24.296875 C 39.222656 -25.359375 38.867188 -26.820312 38.234375 -28.6875 C 37.609375 -30.5625 36.628906 -32.363281 35.296875 -34.09375 C 33.960938 -35.820312 32.195312 -37.335938 30 -38.640625 C 27.800781 -39.941406 25.097656 -40.59375 21.890625 -40.59375 C 19.222656 -40.59375 16.738281 -39.957031 14.4375 -38.6875 C 12.144531 -37.425781 10.164062 -35.796875 8.5 -33.796875 C 6.832031 -31.796875 5.53125 -29.53125 4.59375 -27 C 3.664062 -24.46875 3.203125 -21.898438 3.203125 -19.296875 C 3.203125 -16.691406 3.664062 -14.15625 4.59375 -11.6875 C 5.53125 -9.226562 6.832031 -7.03125 8.5 -5.09375 C 10.164062 -3.164062 12.179688 -1.597656 14.546875 -0.390625 C 16.910156 0.804688 19.492188 1.40625 22.296875 1.40625 C 24.566406 1.40625 26.632812 1.085938 28.5 0.453125 C 30.363281 -0.179688 32.007812 -1.046875 33.4375 -2.140625 C 34.875 -3.242188 36.09375 -4.53125 37.09375 -6 C 38.09375 -7.46875 38.894531 -9 39.5 -10.59375 C 39.695312 -11.0625 39.796875 -11.53125 39.796875 -12 C 39.796875 -12.46875 39.59375 -12.703125 39.1875 -12.703125 C 38.851562 -12.703125 38.554688 -12.367188 38.296875 -11.703125 C 37.691406 -10.296875 36.9375 -8.894531 36.03125 -7.5 C 35.132812 -6.101562 34.035156 -4.867188 32.734375 -3.796875 C 31.441406 -2.734375 29.960938 -1.867188 28.296875 -1.203125 C 26.628906 -0.535156 24.695312 -0.203125 22.5 -0.203125 C 19.832031 -0.203125 17.679688 -1.203125 16.046875 -3.203125 C 14.410156 -5.203125 13.59375 -8.398438 13.59375 -12.796875 L 13.59375 -23 L 37.6875 -23 C 38.757812 -23 39.296875 -23.429688 39.296875 -24.296875 Z M 13.59375 -24.59375 L 13.59375 -28.59375 C 13.59375 -30.789062 13.84375 -32.570312 14.34375 -33.9375 C 14.84375 -35.3125 15.492188 -36.363281 16.296875 -37.09375 C 17.097656 -37.820312 18 -38.320312 19 -38.59375 C 20 -38.863281 21 -39 22 -39 C 23.59375 -39 24.90625 -38.710938 25.9375 -38.140625 C 26.976562 -37.578125 27.796875 -36.828125 28.390625 -35.890625 C 28.992188 -34.960938 29.394531 -33.929688 29.59375 -32.796875 C 29.789062 -31.660156 29.890625 -30.492188 29.890625 -29.296875 C 29.890625 -26.160156 29.390625 -24.59375 28.390625 -24.59375 Z M 13.59375 -24.59375 "/></g></g></g><g fill="rgb(96.078491%, 98.429871%, 97.648621%)" fill-opacity="1"><g transform="translate(844.281663, 1345.84923)"><g><path d="M 11.5 -38.1875 C 9.363281 -36.789062 8.296875 -35.125 8.296875 -33.1875 C 8.296875 -32.257812 8.613281 -31.410156 9.25 -30.640625 C 9.882812 -29.878906 10.765625 -29.5 11.890625 -29.5 C 13.023438 -29.5 13.941406 -29.832031 14.640625 -30.5 C 15.347656 -31.164062 15.703125 -32 15.703125 -33 C 15.703125 -33.457031 15.617188 -33.9375 15.453125 -34.4375 C 15.285156 -34.9375 14.96875 -35.421875 14.5 -35.890625 C 14.164062 -36.222656 13.894531 -36.457031 13.6875 -36.59375 C 13.488281 -36.726562 13.390625 -36.894531 13.390625 -37.09375 C 13.390625 -37.363281 13.585938 -37.628906 13.984375 -37.890625 C 14.390625 -38.160156 14.890625 -38.394531 15.484375 -38.59375 C 16.085938 -38.789062 16.773438 -38.957031 17.546875 -39.09375 C 18.316406 -39.226562 19.066406 -39.296875 19.796875 -39.296875 C 21.859375 -39.296875 23.488281 -38.894531 24.6875 -38.09375 C 25.894531 -37.289062 26.5 -35.757812 26.5 -33.5 L 26.5 -21.703125 C 23.425781 -21.703125 20.554688 -21.382812 17.890625 -20.75 C 15.222656 -20.113281 12.890625 -19.195312 10.890625 -18 C 8.898438 -16.800781 7.335938 -15.316406 6.203125 -13.546875 C 5.066406 -11.773438 4.5 -9.789062 4.5 -7.59375 C 4.5 -6 4.78125 -4.617188 5.34375 -3.453125 C 5.914062 -2.285156 6.703125 -1.347656 7.703125 -0.640625 C 8.703125 0.0546875 9.847656 0.570312 11.140625 0.90625 C 12.441406 1.238281 13.828125 1.40625 15.296875 1.40625 C 16.828125 1.40625 18.207031 1.21875 19.4375 0.84375 C 20.675781 0.476562 21.78125 0.015625 22.75 -0.546875 C 23.71875 -1.117188 24.535156 -1.71875 25.203125 -2.34375 C 25.867188 -2.976562 26.398438 -3.597656 26.796875 -4.203125 C 26.992188 -2.796875 27.625 -1.507812 28.6875 -0.34375 C 29.757812 0.820312 31.628906 1.40625 34.296875 1.40625 C 36.023438 1.40625 37.472656 1.132812 38.640625 0.59375 C 39.804688 0.0625 40.753906 -0.566406 41.484375 -1.296875 C 42.222656 -2.035156 42.742188 -2.785156 43.046875 -3.546875 C 43.347656 -4.316406 43.5 -4.898438 43.5 -5.296875 C 43.5 -5.628906 43.394531 -5.796875 43.1875 -5.796875 C 42.988281 -5.796875 42.757812 -5.53125 42.5 -5 C 41.957031 -3.863281 41.285156 -2.945312 40.484375 -2.25 C 39.691406 -1.550781 38.828125 -1.203125 37.890625 -1.203125 C 36.554688 -1.203125 35.753906 -1.75 35.484375 -2.84375 C 35.222656 -3.945312 35.09375 -5.46875 35.09375 -7.40625 L 35.09375 -31.59375 C 35.09375 -34.457031 34.023438 -36.671875 31.890625 -38.234375 C 29.765625 -39.804688 26.5 -40.59375 22.09375 -40.59375 C 20.03125 -40.59375 18.046875 -40.375 16.140625 -39.9375 C 14.242188 -39.507812 12.695312 -38.925781 11.5 -38.1875 Z M 26.5 -20.703125 L 26.5 -6.796875 C 26.5 -6.203125 26.210938 -5.570312 25.640625 -4.90625 C 25.078125 -4.238281 24.378906 -3.617188 23.546875 -3.046875 C 22.710938 -2.484375 21.84375 -2.035156 20.9375 -1.703125 C 20.039062 -1.367188 19.296875 -1.203125 18.703125 -1.203125 C 16.628906 -1.203125 15.054688 -2 13.984375 -3.59375 C 12.921875 -5.195312 12.390625 -7.363281 12.390625 -10.09375 C 12.390625 -12.289062 12.789062 -14.054688 13.59375 -15.390625 C 14.394531 -16.722656 15.445312 -17.753906 16.75 -18.484375 C 18.050781 -19.222656 19.550781 -19.742188 21.25 -20.046875 C 22.945312 -20.347656 24.695312 -20.566406 26.5 -20.703125 Z M 26.5 -20.703125 "/></g></g></g><g fill="rgb(96.078491%, 98.429871%, 97.648621%)" fill-opacity="1"><g transform="translate(888.576977, 1345.84923)"><g><path d="M 17.703125 -39.1875 L 17.703125 -54.890625 L 9.09375 -50.59375 L 9.09375 -39.1875 L 2.296875 -39.1875 L 2.296875 -37.59375 L 9.09375 -37.59375 L 9.09375 -10.59375 C 9.09375 -6.863281 10.09375 -3.929688 12.09375 -1.796875 C 14.09375 0.335938 16.992188 1.40625 20.796875 1.40625 C 24.734375 1.40625 27.515625 0.625 29.140625 -0.9375 C 30.773438 -2.507812 31.828125 -4.664062 32.296875 -7.40625 C 32.359375 -7.738281 32.390625 -7.9375 32.390625 -8 C 32.390625 -8.0625 32.390625 -8.160156 32.390625 -8.296875 C 32.390625 -8.828125 32.191406 -9.09375 31.796875 -9.09375 C 31.265625 -9.09375 30.960938 -8.757812 30.890625 -8.09375 C 30.554688 -5.832031 29.789062 -4.050781 28.59375 -2.75 C 27.394531 -1.445312 25.929688 -0.796875 24.203125 -0.796875 C 21.867188 -0.796875 20.203125 -1.59375 19.203125 -3.1875 C 18.203125 -4.789062 17.703125 -7.191406 17.703125 -10.390625 L 17.703125 -37.59375 L 27.390625 -37.59375 L 27.390625 -39.1875 Z M 17.703125 -39.1875 "/></g></g></g><g fill="rgb(96.078491%, 98.429871%, 97.648621%)" fill-opacity="1"><g transform="translate(922.37341, 1345.84923)"><g><path d="M 19.703125 -39.1875 L 3.59375 -39.1875 L 3.59375 -37.59375 L 11.09375 -37.59375 L 11.09375 -1.59375 L 3.59375 -1.59375 L 3.59375 0 L 27.203125 0 L 27.203125 -1.59375 L 19.703125 -1.59375 Z M 20.5 -57.6875 C 20.5 -59.15625 20 -60.390625 19 -61.390625 C 18 -62.390625 16.765625 -62.890625 15.296875 -62.890625 C 13.828125 -62.890625 12.59375 -62.390625 11.59375 -61.390625 C 10.59375 -60.390625 10.09375 -59.15625 10.09375 -57.6875 C 10.09375 -56.21875 10.59375 -54.984375 11.59375 -53.984375 C 12.59375 -52.984375 13.828125 -52.484375 15.296875 -52.484375 C 16.765625 -52.484375 18 -52.984375 19 -53.984375 C 20 -54.984375 20.5 -56.21875 20.5 -57.6875 Z M 20.5 -57.6875 "/></g></g></g><g fill="rgb(96.078491%, 98.429871%, 97.648621%)" fill-opacity="1"><g transform="translate(951.770297, 1345.84923)"><g><path d="M 22.703125 1.40625 C 25.703125 1.40625 28.414062 0.722656 30.84375 -0.640625 C 33.28125 -2.015625 35.347656 -3.734375 37.046875 -5.796875 C 38.742188 -7.867188 40.054688 -10.132812 40.984375 -12.59375 C 41.921875 -15.0625 42.390625 -17.394531 42.390625 -19.59375 C 42.390625 -21.789062 41.921875 -24.125 40.984375 -26.59375 C 40.054688 -29.0625 38.742188 -31.328125 37.046875 -33.390625 C 35.347656 -35.460938 33.28125 -37.179688 30.84375 -38.546875 C 28.414062 -39.910156 25.703125 -40.59375 22.703125 -40.59375 C 19.703125 -40.59375 16.984375 -39.910156 14.546875 -38.546875 C 12.109375 -37.179688 10.023438 -35.460938 8.296875 -33.390625 C 6.566406 -31.328125 5.234375 -29.0625 4.296875 -26.59375 C 3.367188 -24.125 2.90625 -21.789062 2.90625 -19.59375 C 2.90625 -17.394531 3.367188 -15.0625 4.296875 -12.59375 C 5.234375 -10.132812 6.566406 -7.867188 8.296875 -5.796875 C 10.023438 -3.734375 12.109375 -2.015625 14.546875 -0.640625 C 16.984375 0.722656 19.703125 1.40625 22.703125 1.40625 Z M 13.296875 -21.796875 C 13.296875 -24.597656 13.410156 -27.0625 13.640625 -29.1875 C 13.878906 -31.320312 14.332031 -33.125 15 -34.59375 C 15.664062 -36.0625 16.613281 -37.160156 17.84375 -37.890625 C 19.082031 -38.628906 20.703125 -39 22.703125 -39 C 24.703125 -39 26.316406 -38.628906 27.546875 -37.890625 C 28.773438 -37.160156 29.707031 -36.0625 30.34375 -34.59375 C 30.976562 -33.125 31.410156 -31.320312 31.640625 -29.1875 C 31.878906 -27.0625 32 -24.597656 32 -21.796875 L 32 -17.5 C 32 -14.5 31.878906 -11.914062 31.640625 -9.75 C 31.410156 -7.582031 30.976562 -5.796875 30.34375 -4.390625 C 29.707031 -2.992188 28.773438 -1.945312 27.546875 -1.25 C 26.316406 -0.550781 24.703125 -0.203125 22.703125 -0.203125 C 20.703125 -0.203125 19.082031 -0.550781 17.84375 -1.25 C 16.613281 -1.945312 15.664062 -2.992188 15 -4.390625 C 14.332031 -5.796875 13.878906 -7.582031 13.640625 -9.75 C 13.410156 -11.914062 13.296875 -14.5 13.296875 -17.5 Z M 13.296875 -21.796875 "/></g></g></g><g fill="rgb(96.078491%, 98.429871%, 97.648621%)" fill-opacity="1"><g transform="translate(996.465577, 1345.84923)"><g><path d="M 19.203125 -31.59375 L 19.203125 -39.1875 L 3.59375 -39.1875 L 3.59375 -37.59375 L 10.59375 -37.59375 L 10.59375 -1.59375 L 3.59375 -1.59375 L 3.59375 0 L 26.203125 0 L 26.203125 -1.59375 L 19.203125 -1.59375 L 19.203125 -26.390625 C 19.203125 -27.523438 19.5 -28.742188 20.09375 -30.046875 C 20.695312 -31.347656 21.476562 -32.5625 22.4375 -33.6875 C 23.40625 -34.820312 24.503906 -35.753906 25.734375 -36.484375 C 26.972656 -37.222656 28.257812 -37.59375 29.59375 -37.59375 C 31.53125 -37.59375 32.945312 -36.992188 33.84375 -35.796875 C 34.738281 -34.597656 35.1875 -32.695312 35.1875 -30.09375 L 35.1875 -1.59375 L 28.203125 -1.59375 L 28.203125 0 L 50.796875 0 L 50.796875 -1.59375 L 43.796875 -1.59375 L 43.796875 -30.796875 C 43.796875 -34.265625 42.8125 -36.664062 40.84375 -38 C 38.875 -39.332031 36.359375 -40 33.296875 -40 C 29.628906 -40 26.644531 -39.164062 24.34375 -37.5 C 22.039062 -35.832031 20.328125 -33.863281 19.203125 -31.59375 Z M 19.203125 -31.59375 "/></g></g></g><g fill="rgb(96.078491%, 98.429871%, 97.648621%)" fill-opacity="1"><g transform="translate(1049.55996, 1345.84923)"><g><path d="M 28.390625 -40.09375 L 26.09375 -37.796875 C 24.03125 -39.660156 21.5 -40.59375 18.5 -40.59375 C 16.363281 -40.59375 14.460938 -40.242188 12.796875 -39.546875 C 11.128906 -38.847656 9.742188 -37.894531 8.640625 -36.6875 C 7.546875 -35.488281 6.710938 -34.125 6.140625 -32.59375 C 5.578125 -31.0625 5.296875 -29.492188 5.296875 -27.890625 C 5.296875 -25.429688 6.007812 -23.265625 7.4375 -21.390625 C 8.875 -19.523438 11.023438 -18.257812 13.890625 -17.59375 C 14.765625 -17.394531 15.734375 -17.175781 16.796875 -16.9375 C 17.859375 -16.707031 18.941406 -16.441406 20.046875 -16.140625 C 21.148438 -15.847656 22.21875 -15.515625 23.25 -15.140625 C 24.28125 -14.773438 25.195312 -14.359375 26 -13.890625 C 27.332031 -13.160156 28.25 -12.296875 28.75 -11.296875 C 29.25 -10.296875 29.5 -9.265625 29.5 -8.203125 C 29.5 -6.796875 29.144531 -5.578125 28.4375 -4.546875 C 27.738281 -3.515625 26.859375 -2.679688 25.796875 -2.046875 C 24.734375 -1.410156 23.597656 -0.941406 22.390625 -0.640625 C 21.191406 -0.347656 20.0625 -0.203125 19 -0.203125 C 15.925781 -0.203125 13.222656 -1.050781 10.890625 -2.75 C 8.566406 -4.445312 6.9375 -7.0625 6 -10.59375 C 5.800781 -11.195312 5.535156 -11.5 5.203125 -11.5 C 4.796875 -11.5 4.59375 -11.234375 4.59375 -10.703125 L 4.59375 0 C 4.59375 0.53125 4.796875 0.796875 5.203125 0.796875 C 5.460938 0.796875 5.695312 0.628906 5.90625 0.296875 L 8 -2.796875 C 9.195312 -1.535156 10.710938 -0.519531 12.546875 0.25 C 14.378906 1.019531 16.628906 1.40625 19.296875 1.40625 C 21.492188 1.40625 23.425781 1.050781 25.09375 0.34375 C 26.757812 -0.351562 28.175781 -1.316406 29.34375 -2.546875 C 30.507812 -3.785156 31.390625 -5.21875 31.984375 -6.84375 C 32.585938 -8.476562 32.890625 -10.265625 32.890625 -12.203125 C 32.890625 -14.734375 32.253906 -17.128906 30.984375 -19.390625 C 29.722656 -21.660156 27.328125 -23.394531 23.796875 -24.59375 C 23.191406 -24.789062 22.421875 -25.003906 21.484375 -25.234375 C 20.554688 -25.472656 19.578125 -25.722656 18.546875 -25.984375 C 17.515625 -26.253906 16.476562 -26.523438 15.4375 -26.796875 C 14.40625 -27.066406 13.554688 -27.300781 12.890625 -27.5 C 11.554688 -27.96875 10.609375 -28.550781 10.046875 -29.25 C 9.484375 -29.945312 9.203125 -30.925781 9.203125 -32.1875 C 9.203125 -33.925781 10.035156 -35.492188 11.703125 -36.890625 C 13.367188 -38.296875 15.46875 -39 18 -39 C 19.59375 -39 21.003906 -38.695312 22.234375 -38.09375 C 23.472656 -37.488281 24.507812 -36.71875 25.34375 -35.78125 C 26.175781 -34.851562 26.84375 -33.804688 27.34375 -32.640625 C 27.84375 -31.472656 28.191406 -30.328125 28.390625 -29.203125 C 28.460938 -28.796875 28.664062 -28.59375 29 -28.59375 C 29.257812 -28.59375 29.390625 -28.796875 29.390625 -29.203125 L 29.390625 -39.890625 C 29.390625 -40.359375 29.289062 -40.59375 29.09375 -40.59375 C 28.957031 -40.59375 28.722656 -40.425781 28.390625 -40.09375 Z M 28.390625 -40.09375 "/></g></g></g></svg>