<?xml version="1.0" encoding="iso-8859-1"?>
<!-- Generator: Adobe Illustrator 19.0.0, SVG Export Plug-In . SVG Version: 6.00 Build 0)  -->
<svg version="1.1" id="Layer_1" xmlns="http://www.w3.org/2000/svg" xmlns:xlink="http://www.w3.org/1999/xlink" x="0px" y="0px"
	 viewBox="0 0 512.003 512.003" style="enable-background:new 0 0 512.003 512.003;" xml:space="preserve">
<g>
	<path style="fill:#CDE6F8;" d="M394.388,87.871c-40.394,12.054-94.091,19.393-153.026,19.393S128.73,99.925,88.336,87.871
		c40.394-36.793,94.091-59.21,153.026-59.21S353.994,51.078,394.388,87.871z"/>
	<path style="fill:#CDE6F8;" d="M394.388,424.132c-40.394,36.793-94.091,59.208-153.026,59.208S128.73,460.924,88.336,424.132
		c40.394-12.054,94.091-19.393,153.026-19.393S353.994,412.078,394.388,424.132z"/>
	<path style="fill:#CDE6F8;" d="M170.622,185.26c-2.385,22.267-3.68,46.041-3.68,70.742c0,24.701,1.294,48.475,3.68,70.742
		c22.267,2.385,46.041,3.68,70.742,3.68s48.475-1.294,70.742-3.68c2.385-22.267,3.68-46.041,3.68-70.742
		c0-24.701-1.294-48.475-3.68-70.742c-22.267-2.385-46.041-3.68-70.742-3.68S192.889,182.875,170.622,185.26z"/>
</g>
<path style="fill:#2D527C;" d="M469.135,176.039c-13.198-37.577-35.672-71.544-65.305-98.535
	C359.34,36.979,301.666,14.655,241.427,14.64c-0.021,0-0.042-0.001-0.063-0.001s-0.042,0.001-0.063,0.001
	c-60.24,0.015-117.914,22.34-162.406,62.865C28.766,123.167,0.013,188.212,0.001,255.964c0,0.013-0.001,0.024-0.001,0.036
	c0,0.049,0.003,0.1,0.003,0.149c0.042,67.713,28.79,132.711,78.891,178.35c33.38,30.404,74.18,50.563,117.919,58.743
	c14.539,2.719,29.401,4.113,44.425,4.12c0.042,0,0.084,0.003,0.126,0.003s0.084-0.003,0.126-0.003
	c60.216-0.031,117.865-22.352,162.341-62.863c0.429-0.39,0.818-0.806,1.186-1.235c0.098-0.115,0.189-0.234,0.285-0.352
	c0.278-0.344,0.536-0.697,0.777-1.06c0.076-0.115,0.153-0.227,0.226-0.344c0.597-0.965,1.069-1.984,1.411-3.042
	c0.042-0.129,0.077-0.261,0.115-0.391c0.121-0.414,0.223-0.832,0.304-1.252c0.029-0.147,0.06-0.292,0.084-0.44
	c0.088-0.54,0.151-1.084,0.177-1.631c0.003-0.059-0.001-0.118,0-0.177c0.015-0.499,0.001-0.998-0.036-1.496
	c-0.011-0.153-0.028-0.304-0.043-0.457c-0.05-0.474-0.125-0.944-0.224-1.412c-0.014-0.066-0.015-0.132-0.031-0.196
	c-0.006-0.024-0.015-0.045-0.021-0.069c-0.13-0.561-0.297-1.115-0.498-1.66c-0.031-0.084-0.069-0.164-0.102-0.248
	c-0.172-0.443-0.37-0.878-0.589-1.306c-0.066-0.128-0.132-0.255-0.202-0.381c-0.222-0.401-0.467-0.792-0.731-1.175
	c-0.062-0.09-0.116-0.182-0.179-0.271c-0.303-0.416-0.627-0.825-0.982-1.214c-0.025-0.027-0.052-0.049-0.077-0.077
	c-0.087-0.094-0.182-0.178-0.272-0.271c-0.31-0.318-0.63-0.62-0.962-0.902c-0.121-0.102-0.244-0.201-0.369-0.299
	c-0.353-0.28-0.717-0.54-1.09-0.781c-0.097-0.062-0.189-0.128-0.286-0.188c-0.496-0.304-1.005-0.579-1.528-0.816
	c-0.02-0.008-0.041-0.015-0.06-0.024c-0.499-0.223-1.011-0.408-1.528-0.571c-0.062-0.02-0.119-0.049-0.182-0.067
	c-24.446-7.295-52.933-12.73-83.59-16.076c4.156-17.09,7.495-35.656,9.96-55.247c23.041-2.903,44.686-7.014,64.126-12.222
	c16.824,22.818,33.993,38.763,35.396,40.052c2.692,2.475,6.091,3.698,9.481,3.698c3.785,0,7.558-1.523,10.322-4.528
	c5.242-5.696,4.874-14.565-0.819-19.81c-16.597-15.296-59.672-63.219-59.672-100.78c0-27.667,22.509-50.176,50.176-50.176
	c27.665,0,50.175,22.509,50.175,50.176c0,16.847-8.658,37.927-25.038,60.964c-4.487,6.312-3.009,15.067,3.302,19.555
	c6.314,4.489,15.067,3.009,19.555-3.302c20.057-28.208,30.226-54.188,30.226-77.216C512,215.367,494.543,188.973,469.135,176.039z
	 M301.608,270.41c-0.003,0.17-0.007,0.338-0.01,0.508c-0.317,14.564-1.094,28.94-2.329,42.974c-0.578,0.05-1.16,0.098-1.74,0.147
	c-3.511,0.299-7.042,0.568-10.593,0.811c-0.966,0.066-1.928,0.137-2.899,0.199c-4.232,0.269-8.487,0.502-12.765,0.69
	c-0.827,0.036-1.663,0.06-2.492,0.094c-3.558,0.143-7.129,0.258-10.713,0.345c-1.205,0.029-2.408,0.059-3.615,0.081
	c-4.35,0.083-8.711,0.14-13.089,0.14c-4.821,0-9.627-0.053-14.413-0.154c-0.165-0.003-0.332-0.007-0.498-0.01
	c-14.57-0.317-28.954-1.094-42.995-2.331c-1.235-14.037-2.014-28.417-2.331-42.987c-0.003-0.17-0.007-0.338-0.01-0.508
	c-0.101-4.785-0.154-9.589-0.154-14.41c0-4.821,0.053-9.625,0.154-14.41c0.003-0.17,0.007-0.339,0.01-0.508
	c0.317-14.57,1.095-28.951,2.331-42.987c18.812-1.656,38.24-2.493,57.906-2.493c4.304,0,8.589,0.057,12.864,0.137
	c1.213,0.022,2.426,0.048,3.636,0.077c3.869,0.093,7.727,0.213,11.566,0.372c1.27,0.053,2.533,0.119,3.799,0.18
	c3.009,0.142,6.005,0.304,8.99,0.487c1.754,0.107,3.506,0.217,5.249,0.338c2.936,0.203,5.856,0.429,8.764,0.672
	c1.012,0.084,2.028,0.165,3.036,0.255c1.234,14.03,2.012,28.403,2.328,42.964c0.003,0.17,0.007,0.338,0.01,0.508
	c0.101,4.785,0.154,9.589,0.154,14.41C301.76,260.823,301.708,265.626,301.608,270.41z M278.124,92.237
	c-12.057,0.656-24.341,1.003-36.761,1.003s-24.705-0.348-36.762-1.004c13.134-36.371,27.786-49.53,36.738-49.552
	c0.008,0,0.015,0,0.024,0s0.015,0,0.024,0C250.34,42.708,264.991,55.868,278.124,92.237z M119.622,80.824
	c1.96-1.364,3.938-2.702,5.939-3.998c0.251-0.163,0.505-0.318,0.757-0.48c1.901-1.22,3.82-2.406,5.755-3.562
	c0.306-0.182,0.61-0.37,0.916-0.552c2.035-1.202,4.09-2.363,6.162-3.494c0.43-0.236,0.864-0.468,1.296-0.701
	c2.095-1.126,4.204-2.225,6.334-3.279c0.233-0.115,0.468-0.224,0.701-0.338c2.025-0.993,4.067-1.951,6.121-2.877
	c0.353-0.16,0.704-0.324,1.057-0.481c2.145-0.955,4.308-1.869,6.484-2.751c0.452-0.182,0.904-0.363,1.356-0.543
	c2.214-0.881,4.441-1.735,6.685-2.541c0.199-0.072,0.401-0.137,0.6-0.209c2.144-0.763,4.304-1.488,6.473-2.182
	c0.391-0.125,0.78-0.255,1.172-0.377c2.239-0.703,4.493-1.364,6.756-1.993c0.461-0.128,0.924-0.252,1.385-0.377
	c2.318-0.627,4.646-1.227,6.988-1.775c0.15-0.035,0.3-0.066,0.45-0.101c0.473-0.109,0.952-0.198,1.426-0.304
	c-6.508,10.594-12.856,24.349-18.726,42.102c-20.054-2.022-39.142-4.964-56.683-8.768C119.224,81.102,119.423,80.963,119.622,80.824
	z M296.109,169.691c-7.983-0.632-16.066-1.113-24.214-1.465c-0.18-0.008-0.359-0.017-0.54-0.025
	c-2.92-0.123-5.847-0.229-8.784-0.316c-0.463-0.014-0.924-0.032-1.388-0.045c-2.704-0.076-5.416-0.13-8.132-0.175
	c-0.625-0.01-1.248-0.028-1.873-0.036c-3.265-0.045-6.536-0.07-9.813-0.07c-18.535,0-36.88,0.717-54.746,2.133
	c2.447-17.763,5.658-34.517,9.589-49.865c14.77,0.958,29.878,1.461,45.157,1.461c15.278,0,30.386-0.503,45.156-1.461
	C290.45,135.174,293.662,151.928,296.109,169.691z M307.018,90.011c-5.871-17.753-12.219-31.508-18.727-42.102
	c0.475,0.107,0.955,0.195,1.429,0.306c0.149,0.035,0.299,0.065,0.447,0.1c2.342,0.548,4.671,1.148,6.99,1.775
	c0.461,0.125,0.923,0.248,1.383,0.376c2.265,0.628,4.52,1.291,6.762,1.994c0.388,0.122,0.774,0.25,1.161,0.374
	c2.175,0.696,4.339,1.421,6.488,2.186c0.196,0.07,0.394,0.135,0.589,0.205c2.246,0.806,4.475,1.662,6.692,2.542
	c0.45,0.178,0.899,0.358,1.348,0.54c2.178,0.883,4.343,1.799,6.491,2.754c0.351,0.156,0.698,0.318,1.047,0.477
	c2.06,0.93,4.106,1.889,6.135,2.884c0.23,0.112,0.461,0.22,0.69,0.334c2.133,1.056,4.245,2.155,6.344,3.284
	c0.428,0.23,0.857,0.461,1.283,0.694c2.074,1.133,4.133,2.296,6.169,3.499c0.306,0.179,0.606,0.367,0.91,0.548
	c1.938,1.157,3.858,2.345,5.761,3.565c0.251,0.161,0.505,0.317,0.756,0.48c2,1.294,3.975,2.631,5.936,3.995
	c0.201,0.139,0.4,0.28,0.6,0.421C346.16,85.047,327.072,87.989,307.018,90.011z M92.186,103.547
	c22.614,6.176,48.303,10.842,75.733,13.836c-7.944,32.659-12.905,70.708-14.464,111.011c-0.003,0.063-0.004,0.126-0.007,0.189
	c-0.109,2.845-0.202,5.7-0.276,8.566c-0.006,0.215-0.013,0.428-0.018,0.642c-0.07,2.746-0.122,5.503-0.16,8.266
	c-0.007,0.547-0.014,1.095-0.02,1.642c-0.032,2.76-0.053,5.525-0.053,8.3c0,2.775,0.021,5.54,0.053,8.3
	c0.006,0.548,0.013,1.095,0.02,1.642c0.038,2.764,0.09,5.519,0.16,8.266c0.006,0.215,0.013,0.428,0.018,0.642
	c0.076,2.866,0.167,5.723,0.276,8.566c0.003,0.063,0.004,0.126,0.007,0.189c0.355,9.175,0.888,18.232,1.592,27.137
	c-25.914-3.57-49.678-8.771-70.073-15.447c-41.962-13.735-56.885-29.723-56.924-39.258c0-0.013,0-0.027,0-0.039
	C28.047,198.683,51.34,143.563,92.186,103.547z M33.328,302.964c10.764,6.605,24.767,13.045,42.919,18.988
	c23.691,7.756,51.482,13.646,81.715,17.45c2.464,19.58,5.803,38.136,9.956,55.216c-27.43,2.994-53.118,7.662-75.733,13.836
	C62.683,379.551,42.347,342.768,33.328,302.964z M357.183,435.164c-0.272,0.175-0.547,0.345-0.82,0.52
	c-1.873,1.2-3.765,2.37-5.672,3.51c-0.325,0.195-0.646,0.394-0.973,0.586c-2.023,1.195-4.067,2.349-6.127,3.475
	c-0.443,0.243-0.888,0.482-1.332,0.721c-2.084,1.12-4.182,2.213-6.3,3.262c-0.251,0.123-0.505,0.241-0.756,0.365
	c-2.002,0.982-4.022,1.928-6.054,2.847c-0.366,0.165-0.731,0.337-1.098,0.499c-2.137,0.949-4.29,1.861-6.456,2.74
	c-0.461,0.186-0.924,0.37-1.387,0.555c-2.207,0.878-4.424,1.728-6.661,2.531c-0.21,0.076-0.422,0.144-0.631,0.219
	c-2.131,0.759-4.277,1.478-6.434,2.168c-0.4,0.128-0.796,0.259-1.196,0.386c-2.232,0.7-4.477,1.36-6.734,1.987
	c-0.471,0.13-0.944,0.258-1.415,0.386c-2.311,0.624-4.632,1.221-6.966,1.768c-0.157,0.036-0.314,0.069-0.471,0.105
	c-0.468,0.108-0.941,0.196-1.409,0.301c6.508-10.594,12.856-24.349,18.727-42.1c20.053,2.022,39.14,4.964,56.681,8.768
	c-0.208,0.146-0.415,0.292-0.623,0.438C361.131,432.551,359.169,433.879,357.183,435.164z M241.41,469.316
	c-0.015,0-0.031,0.001-0.046,0.001s-0.031-0.001-0.046-0.001c-8.955-0.045-23.593-13.212-36.716-49.551
	c12.057-0.656,24.342-1.004,36.762-1.004c12.42,0,24.704,0.346,36.761,1.003C265.002,456.104,250.366,469.271,241.41,469.316z
	 M194.435,464.094c-0.467-0.105-0.94-0.192-1.406-0.3c-0.158-0.036-0.318-0.069-0.477-0.107c-2.333-0.547-4.651-1.144-6.962-1.768
	c-0.474-0.128-0.948-0.255-1.421-0.387c-2.255-0.627-4.5-1.286-6.731-1.986c-0.401-0.126-0.799-0.258-1.2-0.387
	c-2.157-0.69-4.302-1.411-6.435-2.168c-0.209-0.074-0.419-0.143-0.627-0.217c-2.237-0.803-4.456-1.655-6.664-2.533
	c-0.461-0.184-0.921-0.366-1.381-0.553c-2.168-0.879-4.323-1.791-6.463-2.743c-0.363-0.161-0.724-0.33-1.085-0.494
	c-2.038-0.92-4.064-1.871-6.073-2.855c-0.247-0.121-0.495-0.236-0.74-0.358c-2.122-1.05-4.224-2.145-6.312-3.267
	c-0.439-0.236-0.879-0.473-1.317-0.712c-2.064-1.127-4.113-2.286-6.142-3.483c-0.318-0.188-0.632-0.383-0.949-0.572
	c-1.918-1.147-3.821-2.324-5.707-3.532c-0.264-0.17-0.53-0.332-0.794-0.503c-1.993-1.29-3.961-2.622-5.913-3.981
	c-0.203-0.142-0.407-0.285-0.61-0.428c17.541-3.804,36.629-6.746,56.683-8.768C181.581,439.745,187.927,453.498,194.435,464.094z
	 M241.364,390.716c-15.279,0-30.386,0.503-45.157,1.461c-3.929-15.346-7.142-32.098-9.587-49.858
	c8.903,0.703,17.959,1.235,27.133,1.592c0.074,0.003,0.149,0.006,0.222,0.008c2.837,0.109,5.683,0.201,8.541,0.276
	c0.215,0.006,0.428,0.013,0.642,0.018c2.744,0.07,5.498,0.122,8.259,0.16c0.55,0.007,1.099,0.014,1.65,0.02
	c2.758,0.032,5.522,0.053,8.296,0.053c3.398,0,6.787-0.029,10.169-0.077c0.98-0.014,1.956-0.039,2.935-0.057
	c2.446-0.045,4.888-0.098,7.325-0.168c1.052-0.029,2.099-0.067,3.148-0.102c2.422-0.08,4.836-0.172,7.247-0.278
	c0.951-0.042,1.901-0.084,2.851-0.13c2.632-0.126,5.256-0.268,7.872-0.423c0.69-0.041,1.381-0.079,2.07-0.122
	c3.726-0.233,7.439-0.485,11.127-0.778c-2.447,17.763-5.658,34.517-9.589,49.865C271.75,391.221,256.642,390.716,241.364,390.716z
	 M327.685,310.701c0.701-8.89,1.233-17.932,1.587-27.093c0.003-0.063,0.004-0.126,0.007-0.189c0.109-2.845,0.202-5.7,0.276-8.566
	c0.006-0.213,0.013-0.426,0.018-0.641c0.07-2.746,0.122-5.503,0.16-8.266c0.008-0.547,0.014-1.095,0.02-1.642
	c0.032-2.76,0.053-5.525,0.053-8.3c0-2.775-0.021-5.54-0.053-8.3c-0.006-0.547-0.013-1.095-0.02-1.642
	c-0.038-2.764-0.09-5.521-0.16-8.266c-0.006-0.215-0.013-0.426-0.018-0.641c-0.074-2.866-0.167-5.723-0.276-8.568
	c-0.003-0.063-0.004-0.126-0.007-0.189c-0.355-9.154-0.886-18.19-1.586-27.075c13.155,1.812,25.767,4.039,37.641,6.657
	c-6.218,11.213-9.771,24.098-9.771,37.803c0,19.208,7.338,38.822,17.22,56.534C358.754,305.697,343.619,308.503,327.685,310.701z
	 M385.819,184.053c-18.582-4.81-39.194-8.637-61.047-11.389c-2.465-19.604-5.805-38.181-9.963-55.279
	c27.433-2.994,53.124-7.663,75.74-13.839c18.854,18.458,34.098,40.224,44.975,64.057c-0.582-0.013-1.16-0.043-1.744-0.043
	C415.716,167.558,399.075,173.729,385.819,184.053z"/>
<g>
</g>
<g>
</g>
<g>
</g>
<g>
</g>
<g>
</g>
<g>
</g>
<g>
</g>
<g>
</g>
<g>
</g>
<g>
</g>
<g>
</g>
<g>
</g>
<g>
</g>
<g>
</g>
<g>
</g>
</svg>
