<?xml version="1.0" standalone="no"?><svg xmlns:xlink="http://www.w3.org/1999/xlink" xmlns="http://www.w3.org/2000/svg" viewBox="0 0 1300 866.6604761100793" preserveAspectRatio="xMaxYMax slice"><g transform="scale(1.6883336147222692)"><rect x="0" y="0" width="769.9994999999999" height="513.333" fill="#ffffff"/><path d="M 0 64.17 A 64.17 64.17 0 0 1  64.17 0 L 0 64.17 A 64.17 64.17 0 0 0 64.17 0" fill="#58898c"/><path d="M 128.33 64.17 A 64.17 64.17 0 0 1  192.5 0 L 128.33 64.17 A 64.17 64.17 0 0 0 192.5 0" fill="#7fa5a7"/><rect x="192.49987499999997" y="0" width="64.166625" height="64.166625" fill="#ffffff"/><path d="M 192.5 32.08 A 32.08 32.08 0 0 1  224.57999999999998 0 L 192.5 32.08 A 32.08 32.08 0 0 0 224.57999999999998 0" fill="#5dab97"/><rect x="320.833125" y="0" width="64.166625" height="64.166625" fill="#ffffff"/><path d="M 320.83 32.08 A 32.08 32.08 0 0 1  352.90999999999997 0 L 320.83 32.08 A 32.08 32.08 0 0 0 352.90999999999997 0" fill="#80beae"/><path d="M 385 64.17 A 64.17 64.17 0 0 1  449.17 0 L 385 64.17 A 64.17 64.17 0 0 0 449.17 0" fill="#f5f8f8"/><rect x="449.16637499999996" y="0" width="64.166625" height="64.166625" fill="#ffffff"/><path d="M 449.17 0 A 32.08 32.08 0 0 1  481.25 32.08 L 449.17 0 A 32.08 32.08 0 0 0 481.25 32.08" fill="#d3e8e3"/><path d="M 481.25 32.08 A 32.08 32.08 0 0 1  513.33 0 L 481.25 32.08 A 32.08 32.08 0 0 0 513.33 0" fill="#206266"/><path d="M 481.25 32.08 A 32.08 32.08 0 0 1  513.33 64.16 L 481.25 32.08 A 32.08 32.08 0 0 0 513.33 64.16" fill="#e5eced"/><rect x="128.33325" y="64.166625" width="64.166625" height="64.166625" fill="#ffffff"/><path d="M 160.42 96.25 A 32.08 32.08 0 0 1  192.5 64.17 L 160.42 96.25 A 32.08 32.08 0 0 0 192.5 64.17" fill="#eaf0f0"/><path d="M 160.42 128.32999999999998 A 32.08 32.08 0 0 1  192.5 96.25 L 160.42 128.32999999999998 A 32.08 32.08 0 0 0 192.5 96.25" fill="#ceddde"/><path d="M 256.67 64.17 A 64.17 64.17 0 0 1  320.84000000000003 128.34 L 256.67 64.17 A 64.17 64.17 0 0 0 320.84000000000003 128.34" fill="#e4f1ee"/><rect x="705.832875" y="64.166625" width="64.166625" height="64.166625" fill="#ffffff"/><path d="M 705.83 96.25 A 32.08 32.08 0 0 1  737.9100000000001 64.17 L 705.83 96.25 A 32.08 32.08 0 0 0 737.9100000000001 64.17" fill="#b0d6cc"/><path d="M 705.83 128.32999999999998 A 32.08 32.08 0 0 1  737.9100000000001 96.25 L 705.83 128.32999999999998 A 32.08 32.08 0 0 0 737.9100000000001 96.25" fill="#d3e0e1"/><path d="M 737.92 96.25 A 32.08 32.08 0 0 1  770 128.32999999999998 L 737.92 96.25 A 32.08 32.08 0 0 0 770 128.32999999999998" fill="#467d80"/><path d="M 0 192.5 A 64.17 64.17 0 0 1  64.17 128.33 L 0 192.5 A 64.17 64.17 0 0 0 64.17 128.33" fill="#538689"/><path d="M 256.67 192.5 A 64.17 64.17 0 0 1  320.84000000000003 128.33 L 256.67 192.5 A 64.17 64.17 0 0 0 320.84000000000003 128.33" fill="#b4d8cf"/><rect x="513.333" y="128.33325" width="64.166625" height="64.166625" fill="#ffffff"/><path d="M 513.33 160.41000000000003 A 32.08 32.08 0 0 1  545.4100000000001 128.33 L 513.33 160.41000000000003 A 32.08 32.08 0 0 0 545.4100000000001 128.33" fill="#b8dbd2"/><path d="M 64.17 192.5 A 64.17 64.17 0 0 1  128.34 256.67 L 64.17 192.5 A 64.17 64.17 0 0 0 128.34 256.67" fill="#a4bfc0"/><rect x="192.49987499999997" y="192.49987499999997" width="64.166625" height="64.166625" fill="#ffffff"/><path d="M 192.5 224.57999999999998 A 32.08 32.08 0 0 1  224.57999999999998 192.5 L 192.5 224.57999999999998 A 32.08 32.08 0 0 0 224.57999999999998 192.5" fill="#aed5cb"/><path d="M 0 320.84000000000003 A 64.17 64.17 0 0 1  64.17 256.67 L 0 320.84000000000003 A 64.17 64.17 0 0 0 64.17 256.67" fill="#acc4c6"/><path d="M 128.33 320.84000000000003 A 64.17 64.17 0 0 1  192.5 256.67 L 128.33 320.84000000000003 A 64.17 64.17 0 0 0 192.5 256.67" fill="#ddede9"/><rect x="256.6665" y="256.6665" width="64.166625" height="64.166625" fill="#ffffff"/><path d="M 288.75 256.67 A 32.08 32.08 0 0 1  320.83 288.75 L 288.75 256.67 A 32.08 32.08 0 0 0 320.83 288.75" fill="#a1cec3"/><path d="M 256.67 288.75 A 32.08 32.08 0 0 1  288.75 320.83 L 256.67 288.75 A 32.08 32.08 0 0 0 288.75 320.83" fill="#759ea0"/><rect x="384.99974999999995" y="256.6665" width="64.166625" height="64.166625" fill="#ffffff"/><path d="M 385 288.75 A 32.08 32.08 0 0 1  417.08 256.67 L 385 288.75 A 32.08 32.08 0 0 0 417.08 256.67" fill="#2f6d70"/><path d="M 417.08 256.67 A 32.08 32.08 0 0 1  449.15999999999997 288.75 L 417.08 256.67 A 32.08 32.08 0 0 0 449.15999999999997 288.75" fill="#f5faf8"/><path d="M 385 288.75 A 32.08 32.08 0 0 1  417.08 320.83 L 385 288.75 A 32.08 32.08 0 0 0 417.08 320.83" fill="#95b4b6"/><path d="M 641.67 320.84000000000003 A 64.17 64.17 0 0 1  705.8399999999999 256.67 L 641.67 320.84000000000003 A 64.17 64.17 0 0 0 705.8399999999999 256.67" fill="#7dbcab"/><path d="M 705.83 256.67 A 64.17 64.17 0 0 1  770 320.84000000000003 L 705.83 256.67 A 64.17 64.17 0 0 0 770 320.84000000000003" fill="#4b8083"/><rect x="128.33325" y="320.833125" width="64.166625" height="64.166625" fill="#ffffff"/><path d="M 128.33 352.90999999999997 A 32.08 32.08 0 0 1  160.41000000000003 320.83 L 128.33 352.90999999999997 A 32.08 32.08 0 0 0 160.41000000000003 320.83" fill="#a6d1c6"/><path d="M 160.42 352.92 A 32.08 32.08 0 0 1  192.5 385 L 160.42 352.92 A 32.08 32.08 0 0 0 192.5 385" fill="#ebf5f2"/><rect x="449.16637499999996" y="320.833125" width="64.166625" height="64.166625" fill="#ffffff"/><path d="M 449.17 352.92 A 32.08 32.08 0 0 1  481.25 385 L 449.17 352.92 A 32.08 32.08 0 0 0 481.25 385" fill="#b6d9d0"/><path d="M 481.25 385 A 32.08 32.08 0 0 1  513.33 352.92 L 481.25 385 A 32.08 32.08 0 0 0 513.33 352.92" fill="#c7d7d8"/><rect x="577.4996249999999" y="320.833125" width="64.166625" height="64.166625" fill="#ffffff"/><path d="M 609.58 352.92 A 32.08 32.08 0 0 1  641.6600000000001 385 L 609.58 352.92 A 32.08 32.08 0 0 0 641.6600000000001 385" fill="#aad3c9"/><path d="M 641.67 320.83 A 64.17 64.17 0 0 1  705.8399999999999 385 L 641.67 320.83 A 64.17 64.17 0 0 0 705.8399999999999 385" fill="#b8cdce"/><path d="M 64.17 449.17 A 64.17 64.17 0 0 1  128.34 385 L 64.17 449.17 A 64.17 64.17 0 0 0 128.34 385" fill="#f2f8f7"/><rect x="192.49987499999997" y="384.99974999999995" width="64.166625" height="64.166625" fill="#ffffff"/><path d="M 192.5 417.08 A 32.08 32.08 0 0 1  224.57999999999998 385 L 192.5 417.08 A 32.08 32.08 0 0 0 224.57999999999998 385" fill="#7cbcab"/><path d="M 192.5 417.08 A 32.08 32.08 0 0 1  224.57999999999998 449.15999999999997 L 192.5 417.08 A 32.08 32.08 0 0 0 224.57999999999998 449.15999999999997" fill="#9dbabc"/><path d="M 320.83 385 A 64.17 64.17 0 0 1  385 449.17 L 320.83 385 A 64.17 64.17 0 0 0 385 449.17" fill="#c7d8d9"/><rect x="384.99974999999995" y="384.99974999999995" width="64.166625" height="64.166625" fill="#ffffff"/><path d="M 385 449.15999999999997 A 32.08 32.08 0 0 1  417.08 417.08 L 385 449.15999999999997 A 32.08 32.08 0 0 0 417.08 417.08" fill="#689597"/><path d="M 449.17 449.17 A 64.17 64.17 0 0 1  513.34 385 L 449.17 449.17 A 64.17 64.17 0 0 0 513.34 385" fill="#d1dfdf"/><path d="M 577.5 449.17 A 64.17 64.17 0 0 1  641.67 385 L 577.5 449.17 A 64.17 64.17 0 0 0 641.67 385" fill="#9cccc0"/><rect x="320.833125" y="449.16637499999996" width="64.166625" height="64.166625" fill="#ffffff"/><path d="M 513.33 449.17 A 64.17 64.17 0 0 1  577.5 513.34 L 513.33 449.17 A 64.17 64.17 0 0 0 577.5 513.34" fill="#62ae9a"/></g></svg>