<?xml version="1.0" standalone="no"?><svg xmlns:xlink="http://www.w3.org/1999/xlink" xmlns="http://www.w3.org/2000/svg" viewBox="0 0 1000 666.661904700061" preserveAspectRatio="xMaxYMax slice"><g transform="scale(1.2987181651709763)"><rect x="0" y="0" width="769.9994999999999" height="513.333" fill="#ffffff"/><rect x="0" y="0" width="64.17" height="64.17" fill="#813405"/><path d="M 0 0 A 64.17 64.17 0 0 1 64.17 64.17 L 0 64.17" fill="#d45113"/><rect x="64.166625" y="0" width="64.166625" height="64.166625" fill="#ffffff"/><rect x="64.17" y="0" width="32.08" height="32.08" fill="#813405"/><path d="M 64.17 32.08 A 32.08 32.08 0 0 1  96.25 0 L 64.17 32.08 A 32.08 32.08 0 0 0 96.25 0" fill="#813405"/><rect x="96.25" y="0" width="32.08" height="32.08" fill="#813405"/><path d="M 96.25 0 A 32.08 32.08 0 0 0 128.32999999999998 32.08 L 128.32999999999998 0" fill="#813405"/><rect x="64.17" y="32.08" width="32.08" height="32.08" fill="#813405"/><path d="M 64.17 32.08 A 32.08 32.08 0 0 0 96.25 64.16 L 96.25 32.08" fill="#d45113"/><rect x="96.25" y="32.08" width="32.08" height="32.08" fill="#813405"/><path d="M 96.25 32.08 A 32.08 32.08 0 0 1  128.32999999999998 64.16 L 96.25 32.08 A 32.08 32.08 0 0 0 128.32999999999998 64.16" fill="#d45113"/><rect x="128.33" y="0" width="64.17" height="64.17" fill="#813405"/><path d="M 128.33 0 A 64.17 64.17 0 0 1  192.5 64.17 L 128.33 0 A 64.17 64.17 0 0 0 192.5 64.17" fill="#d45113"/><rect x="192.49987499999997" y="0" width="64.166625" height="64.166625" fill="#ffffff"/><rect x="192.5" y="0" width="32.08" height="32.08" fill="#d45113"/><path d="M 192.5 32.08 A 32.08 32.08 0 0 1  224.57999999999998 0 L 192.5 32.08 A 32.08 32.08 0 0 0 224.57999999999998 0" fill="#d45113"/><rect x="224.58" y="0" width="32.08" height="32.08" fill="#d45113"/><path d="M 224.58 0 A 32.08 32.08 0 0 0 256.66 32.08 L 256.66 0" fill="#813405"/><rect x="192.5" y="32.08" width="32.08" height="32.08" fill="#813405"/><path d="M 192.5 64.16 A 32.08 32.08 0 0 0 224.57999999999998 32.08 L 192.5 32.08" fill="#d45113"/><rect x="224.58" y="32.08" width="32.08" height="32.08" fill="#d45113"/><path d="M 224.58 32.08 A 32.08 32.08 0 0 1 256.66 64.16 L 224.58 64.16" fill="#813405"/><rect x="256.67" y="0" width="64.17" height="64.17" fill="#813405"/><path d="M 256.67 0 A 64.17 64.17 0 0 1 320.84000000000003 64.17 L 256.67 64.17" fill="#813405"/><rect x="320.833125" y="0" width="64.166625" height="64.166625" fill="#ffffff"/><rect x="320.83" y="0" width="32.08" height="32.08" fill="#d45113"/><path d="M 320.83 0 A 32.08 32.08 0 0 0 352.90999999999997 32.08 L 352.90999999999997 0" fill="#813405"/><rect x="352.92" y="0" width="32.08" height="32.08" fill="#813405"/><path d="M 352.92 32.08 A 32.08 32.08 0 0 1  385 0 L 385 32.08" fill="#d45113"/><rect x="320.83" y="32.08" width="32.08" height="32.08" fill="#813405"/><path d="M 320.83 64.16 A 32.08 32.08 0 0 1  352.90999999999997 32.08 L 352.90999999999997 64.16" fill="#d45113"/><rect x="352.92" y="32.08" width="32.08" height="32.08" fill="#813405"/><path d="M 352.92 32.08 A 32.08 32.08 0 0 1  385 64.16 L 352.92 32.08 A 32.08 32.08 0 0 0 385 64.16" fill="#d45113"/><rect x="384.99974999999995" y="0" width="64.166625" height="64.166625" fill="#ffffff"/><rect x="385" y="0" width="32.08" height="32.08" fill="#d45113"/><path d="M 385 0 A 32.08 32.08 0 0 1 417.08 32.08 L 385 32.08" fill="#d45113"/><rect x="417.08" y="0" width="32.08" height="32.08" fill="#813405"/><path d="M 417.08 32.08 A 32.08 32.08 0 0 0 449.15999999999997 0 L 417.08 0" fill="#813405"/><rect x="385" y="32.08" width="32.08" height="32.08" fill="#d45113"/><path d="M 385 64.16 A 32.08 32.08 0 0 1  417.08 32.08 L 417.08 64.16" fill="#d45113"/><rect x="417.08" y="32.08" width="32.08" height="32.08" fill="#813405"/><path d="M 417.08 32.08 A 32.08 32.08 0 0 0 449.15999999999997 64.16 L 449.15999999999997 32.08" fill="#d45113"/><rect x="449.16637499999996" y="0" width="64.166625" height="64.166625" fill="#ffffff"/><rect x="449.17" y="0" width="32.08" height="32.08" fill="#813405"/><path d="M 449.17 32.08 A 32.08 32.08 0 0 0 481.25 0 L 449.17 0" fill="#813405"/><rect x="481.25" y="0" width="32.08" height="32.08" fill="#d45113"/><path d="M 481.25 0 A 32.08 32.08 0 0 1  513.33 32.08 L 481.25 0 A 32.08 32.08 0 0 0 513.33 32.08" fill="#813405"/><rect x="449.17" y="32.08" width="32.08" height="32.08" fill="#d45113"/><path d="M 449.17 64.16 A 32.08 32.08 0 0 1  481.25 32.08 L 449.17 64.16 A 32.08 32.08 0 0 0 481.25 32.08" fill="#d45113"/><rect x="481.25" y="32.08" width="32.08" height="32.08" fill="#813405"/><path d="M 481.25 64.16 A 32.08 32.08 0 0 1  513.33 32.08 L 481.25 64.16 A 32.08 32.08 0 0 0 513.33 32.08" fill="#d45113"/><rect x="513.33" y="0" width="64.17" height="64.17" fill="#d45113"/><path d="M 513.33 0 A 64.17 64.17 0 0 0 577.5 64.17 L 577.5 0" fill="#813405"/><rect x="577.4996249999999" y="0" width="64.166625" height="64.166625" fill="#ffffff"/><rect x="577.5" y="0" width="32.08" height="32.08" fill="#813405"/><path d="M 577.5 32.08 A 32.08 32.08 0 0 1  609.58 0 L 577.5 32.08 A 32.08 32.08 0 0 0 609.58 0" fill="#813405"/><rect x="609.58" y="0" width="32.08" height="32.08" fill="#813405"/><path d="M 609.58 32.08 A 32.08 32.08 0 0 0 641.6600000000001 0 L 609.58 0" fill="#813405"/><rect x="577.5" y="32.08" width="32.08" height="32.08" fill="#d45113"/><path d="M 577.5 64.16 A 32.08 32.08 0 0 0 609.58 32.08 L 577.5 32.08" fill="#d45113"/><rect x="609.58" y="32.08" width="32.08" height="32.08" fill="#813405"/><path d="M 609.58 64.16 A 32.08 32.08 0 0 1  641.6600000000001 32.08 L 641.6600000000001 64.16" fill="#813405"/><rect x="641.67" y="0" width="64.17" height="64.17" fill="#813405"/><path d="M 641.67 0 A 64.17 64.17 0 0 1  705.8399999999999 64.17 L 641.67 0 A 64.17 64.17 0 0 0 705.8399999999999 64.17" fill="#813405"/><rect x="705.832875" y="0" width="64.166625" height="64.166625" fill="#ffffff"/><rect x="705.83" y="0" width="32.08" height="32.08" fill="#813405"/><path d="M 705.83 32.08 A 32.08 32.08 0 0 0 737.9100000000001 0 L 705.83 0" fill="#813405"/><rect x="737.92" y="0" width="32.08" height="32.08" fill="#813405"/><path d="M 737.92 0 A 32.08 32.08 0 0 0 770 32.08 L 770 0" fill="#d45113"/><rect x="705.83" y="32.08" width="32.08" height="32.08" fill="#d45113"/><path d="M 705.83 32.08 A 32.08 32.08 0 0 1 737.9100000000001 64.16 L 705.83 64.16" fill="#d45113"/><rect x="737.92" y="32.08" width="32.08" height="32.08" fill="#d45113"/><path d="M 737.92 64.16 A 32.08 32.08 0 0 1  770 32.08 L 770 64.16" fill="#d45113"/><rect x="0" y="64.166625" width="64.166625" height="64.166625" fill="#ffffff"/><rect x="0" y="64.17" width="32.08" height="32.08" fill="#d45113"/><path d="M 0 64.17 A 32.08 32.08 0 0 0 32.08 96.25 L 32.08 64.17" fill="#d45113"/><rect x="32.08" y="64.17" width="32.08" height="32.08" fill="#d45113"/><path d="M 32.08 64.17 A 32.08 32.08 0 0 1 64.16 96.25 L 32.08 96.25" fill="#813405"/><rect x="0" y="96.25" width="32.08" height="32.08" fill="#d45113"/><path d="M 0 128.32999999999998 A 32.08 32.08 0 0 1  32.08 96.25 L 32.08 128.32999999999998" fill="#813405"/><rect x="32.08" y="96.25" width="32.08" height="32.08" fill="#d45113"/><path d="M 32.08 96.25 A 32.08 32.08 0 0 1 64.16 128.32999999999998 L 32.08 128.32999999999998" fill="#813405"/><rect x="64.17" y="64.17" width="64.17" height="64.17" fill="#d45113"/><path d="M 64.17 64.17 A 64.17 64.17 0 0 1 128.34 128.34 L 64.17 128.34" fill="#d45113"/><rect x="128.33" y="64.17" width="64.17" height="64.17" fill="#813405"/><path d="M 128.33 128.34 A 64.17 64.17 0 0 1  192.5 64.17 L 128.33 128.34 A 64.17 64.17 0 0 0 192.5 64.17" fill="#d45113"/><rect x="192.5" y="64.17" width="64.17" height="64.17" fill="#813405"/><path d="M 192.5 64.17 A 64.17 64.17 0 0 1  256.67 128.34 L 192.5 64.17 A 64.17 64.17 0 0 0 256.67 128.34" fill="#d45113"/><rect x="256.6665" y="64.166625" width="64.166625" height="64.166625" fill="#ffffff"/><rect x="256.67" y="64.17" width="32.08" height="32.08" fill="#d45113"/><path d="M 256.67 64.17 A 32.08 32.08 0 0 0 288.75 96.25 L 288.75 64.17" fill="#d45113"/><rect x="288.75" y="64.17" width="32.08" height="32.08" fill="#813405"/><path d="M 288.75 96.25 A 32.08 32.08 0 0 0 320.83 64.17 L 288.75 64.17" fill="#d45113"/><rect x="256.67" y="96.25" width="32.08" height="32.08" fill="#813405"/><path d="M 256.67 96.25 A 32.08 32.08 0 0 1 288.75 128.32999999999998 L 256.67 128.32999999999998" fill="#d45113"/><rect x="288.75" y="96.25" width="32.08" height="32.08" fill="#813405"/><path d="M 288.75 96.25 A 32.08 32.08 0 0 1 320.83 128.32999999999998 L 288.75 128.32999999999998" fill="#813405"/><rect x="320.833125" y="64.166625" width="64.166625" height="64.166625" fill="#ffffff"/><rect x="320.83" y="64.17" width="32.08" height="32.08" fill="#d45113"/><path d="M 320.83 64.17 A 32.08 32.08 0 0 0 352.90999999999997 96.25 L 352.90999999999997 64.17" fill="#d45113"/><rect x="352.92" y="64.17" width="32.08" height="32.08" fill="#d45113"/><path d="M 352.92 96.25 A 32.08 32.08 0 0 1  385 64.17 L 385 96.25" fill="#d45113"/><rect x="320.83" y="96.25" width="32.08" height="32.08" fill="#813405"/><path d="M 320.83 128.32999999999998 A 32.08 32.08 0 0 0 352.90999999999997 96.25 L 320.83 96.25" fill="#813405"/><rect x="352.92" y="96.25" width="32.08" height="32.08" fill="#d45113"/><path d="M 352.92 96.25 A 32.08 32.08 0 0 1  385 128.32999999999998 L 352.92 96.25 A 32.08 32.08 0 0 0 385 128.32999999999998" fill="#813405"/><rect x="384.99974999999995" y="64.166625" width="64.166625" height="64.166625" fill="#ffffff"/><rect x="385" y="64.17" width="32.08" height="32.08" fill="#813405"/><path d="M 385 64.17 A 32.08 32.08 0 0 0 417.08 96.25 L 417.08 64.17" fill="#d45113"/><rect x="417.08" y="64.17" width="32.08" height="32.08" fill="#813405"/><path d="M 417.08 96.25 A 32.08 32.08 0 0 0 449.15999999999997 64.17 L 417.08 64.17" fill="#d45113"/><rect x="385" y="96.25" width="32.08" height="32.08" fill="#813405"/><path d="M 385 96.25 A 32.08 32.08 0 0 1  417.08 128.32999999999998 L 385 96.25 A 32.08 32.08 0 0 0 417.08 128.32999999999998" fill="#813405"/><rect x="417.08" y="96.25" width="32.08" height="32.08" fill="#813405"/><path d="M 417.08 96.25 A 32.08 32.08 0 0 0 449.15999999999997 128.32999999999998 L 449.15999999999997 96.25" fill="#d45113"/><rect x="449.17" y="64.17" width="64.17" height="64.17" fill="#d45113"/><path d="M 449.17 64.17 A 64.17 64.17 0 0 1 513.34 128.34 L 449.17 128.34" fill="#d45113"/><rect x="513.333" y="64.166625" width="64.166625" height="64.166625" fill="#ffffff"/><rect x="513.33" y="64.17" width="32.08" height="32.08" fill="#d45113"/><path d="M 513.33 96.25 A 32.08 32.08 0 0 0 545.4100000000001 64.17 L 513.33 64.17" fill="#d45113"/><rect x="545.42" y="64.17" width="32.08" height="32.08" fill="#813405"/><path d="M 545.42 64.17 A 32.08 32.08 0 0 1 577.5 96.25 L 545.42 96.25" fill="#813405"/><rect x="513.33" y="96.25" width="32.08" height="32.08" fill="#813405"/><path d="M 513.33 128.32999999999998 A 32.08 32.08 0 0 1  545.4100000000001 96.25 L 513.33 128.32999999999998 A 32.08 32.08 0 0 0 545.4100000000001 96.25" fill="#813405"/><rect x="545.42" y="96.25" width="32.08" height="32.08" fill="#d45113"/><path d="M 545.42 96.25 A 32.08 32.08 0 0 1  577.5 128.32999999999998 L 545.42 96.25 A 32.08 32.08 0 0 0 577.5 128.32999999999998" fill="#813405"/><rect x="577.5" y="64.17" width="64.17" height="64.17" fill="#d45113"/><path d="M 577.5 64.17 A 64.17 64.17 0 0 1  641.67 128.34 L 577.5 64.17 A 64.17 64.17 0 0 0 641.67 128.34" fill="#d45113"/><rect x="641.67" y="64.17" width="64.17" height="64.17" fill="#d45113"/><path d="M 641.67 128.34 A 64.17 64.17 0 0 0 705.8399999999999 64.17 L 641.67 64.17" fill="#d45113"/><rect x="705.832875" y="64.166625" width="64.166625" height="64.166625" fill="#ffffff"/><rect x="705.83" y="64.17" width="32.08" height="32.08" fill="#d45113"/><path d="M 705.83 96.25 A 32.08 32.08 0 0 1  737.9100000000001 64.17 L 705.83 96.25 A 32.08 32.08 0 0 0 737.9100000000001 64.17" fill="#d45113"/><rect x="737.92" y="64.17" width="32.08" height="32.08" fill="#d45113"/><path d="M 737.92 64.17 A 32.08 32.08 0 0 1 770 96.25 L 737.92 96.25" fill="#d45113"/><rect x="705.83" y="96.25" width="32.08" height="32.08" fill="#813405"/><path d="M 705.83 96.25 A 32.08 32.08 0 0 0 737.9100000000001 128.32999999999998 L 737.9100000000001 96.25" fill="#d45113"/><rect x="737.92" y="96.25" width="32.08" height="32.08" fill="#813405"/><path d="M 737.92 96.25 A 32.08 32.08 0 0 0 770 128.32999999999998 L 770 96.25" fill="#d45113"/><rect x="0" y="128.33" width="64.17" height="64.17" fill="#d45113"/><path d="M 0 128.33 A 64.17 64.17 0 0 1  64.17 192.5 L 0 128.33 A 64.17 64.17 0 0 0 64.17 192.5" fill="#813405"/><rect x="64.166625" y="128.33325" width="64.166625" height="64.166625" fill="#ffffff"/><rect x="64.17" y="128.33" width="32.08" height="32.08" fill="#813405"/><path d="M 64.17 160.41000000000003 A 32.08 32.08 0 0 0 96.25 128.33 L 64.17 128.33" fill="#813405"/><rect x="96.25" y="128.33" width="32.08" height="32.08" fill="#d45113"/><path d="M 96.25 160.41000000000003 A 32.08 32.08 0 0 0 128.32999999999998 128.33 L 96.25 128.33" fill="#813405"/><rect x="64.17" y="160.42" width="32.08" height="32.08" fill="#d45113"/><path d="M 64.17 192.5 A 32.08 32.08 0 0 1  96.25 160.42 L 64.17 192.5 A 32.08 32.08 0 0 0 96.25 160.42" fill="#813405"/><rect x="96.25" y="160.42" width="32.08" height="32.08" fill="#813405"/><path d="M 96.25 160.42 A 32.08 32.08 0 0 0 128.32999999999998 192.5 L 128.32999999999998 160.42" fill="#d45113"/><rect x="128.33" y="128.33" width="64.17" height="64.17" fill="#d45113"/><path d="M 128.33 192.5 A 64.17 64.17 0 0 1  192.5 128.33 L 192.5 192.5" fill="#d45113"/><rect x="192.49987499999997" y="128.33325" width="64.166625" height="64.166625" fill="#ffffff"/><rect x="192.5" y="128.33" width="32.08" height="32.08" fill="#d45113"/><path d="M 192.5 128.33 A 32.08 32.08 0 0 0 224.57999999999998 160.41000000000003 L 224.57999999999998 128.33" fill="#813405"/><rect x="224.58" y="128.33" width="32.08" height="32.08" fill="#813405"/><path d="M 224.58 160.41000000000003 A 32.08 32.08 0 0 1  256.66 128.33 L 256.66 160.41000000000003" fill="#813405"/><rect x="192.5" y="160.42" width="32.08" height="32.08" fill="#813405"/><path d="M 192.5 192.5 A 32.08 32.08 0 0 1  224.57999999999998 160.42 L 192.5 192.5 A 32.08 32.08 0 0 0 224.57999999999998 160.42" fill="#813405"/><rect x="224.58" y="160.42" width="32.08" height="32.08" fill="#d45113"/><path d="M 224.58 192.5 A 32.08 32.08 0 0 1  256.66 160.42 L 256.66 192.5" fill="#813405"/><rect x="256.67" y="128.33" width="64.17" height="64.17" fill="#813405"/><path d="M 256.67 192.5 A 64.17 64.17 0 0 1  320.84000000000003 128.33 L 256.67 192.5 A 64.17 64.17 0 0 0 320.84000000000003 128.33" fill="#813405"/><rect x="320.833125" y="128.33325" width="64.166625" height="64.166625" fill="#ffffff"/><rect x="320.83" y="128.33" width="32.08" height="32.08" fill="#d45113"/><path d="M 320.83 160.41000000000003 A 32.08 32.08 0 0 1  352.90999999999997 128.33 L 352.90999999999997 160.41000000000003" fill="#d45113"/><rect x="352.92" y="128.33" width="32.08" height="32.08" fill="#d45113"/><path d="M 352.92 160.41000000000003 A 32.08 32.08 0 0 1  385 128.33 L 385 160.41000000000003" fill="#d45113"/><rect x="320.83" y="160.42" width="32.08" height="32.08" fill="#813405"/><path d="M 320.83 192.5 A 32.08 32.08 0 0 1  352.90999999999997 160.42 L 320.83 192.5 A 32.08 32.08 0 0 0 352.90999999999997 160.42" fill="#d45113"/><rect x="352.92" y="160.42" width="32.08" height="32.08" fill="#d45113"/><path d="M 352.92 192.5 A 32.08 32.08 0 0 1  385 160.42 L 352.92 192.5 A 32.08 32.08 0 0 0 385 160.42" fill="#813405"/><rect x="385" y="128.33" width="64.17" height="64.17" fill="#d45113"/><path d="M 385 192.5 A 64.17 64.17 0 0 1  449.17 128.33 L 385 192.5 A 64.17 64.17 0 0 0 449.17 128.33" fill="#813405"/><rect x="449.17" y="128.33" width="64.17" height="64.17" fill="#813405"/><path d="M 449.17 128.33 A 64.17 64.17 0 0 1  513.34 192.5 L 449.17 128.33 A 64.17 64.17 0 0 0 513.34 192.5" fill="#813405"/><rect x="513.33" y="128.33" width="64.17" height="64.17" fill="#813405"/><path d="M 513.33 192.5 A 64.17 64.17 0 0 1  577.5 128.33 L 513.33 192.5 A 64.17 64.17 0 0 0 577.5 128.33" fill="#813405"/><rect x="577.4996249999999" y="128.33325" width="64.166625" height="64.166625" fill="#ffffff"/><rect x="577.5" y="128.33" width="32.08" height="32.08" fill="#d45113"/><path d="M 577.5 160.41000000000003 A 32.08 32.08 0 0 0 609.58 128.33 L 577.5 128.33" fill="#d45113"/><rect x="609.58" y="128.33" width="32.08" height="32.08" fill="#813405"/><path d="M 609.58 128.33 A 32.08 32.08 0 0 0 641.6600000000001 160.41000000000003 L 641.6600000000001 128.33" fill="#813405"/><rect x="577.5" y="160.42" width="32.08" height="32.08" fill="#813405"/><path d="M 577.5 160.42 A 32.08 32.08 0 0 1  609.58 192.5 L 577.5 160.42 A 32.08 32.08 0 0 0 609.58 192.5" fill="#d45113"/><rect x="609.58" y="160.42" width="32.08" height="32.08" fill="#813405"/><path d="M 609.58 192.5 A 32.08 32.08 0 0 0 641.6600000000001 160.42 L 609.58 160.42" fill="#813405"/><rect x="641.66625" y="128.33325" width="64.166625" height="64.166625" fill="#ffffff"/><rect x="641.67" y="128.33" width="32.08" height="32.08" fill="#d45113"/><path d="M 641.67 160.41000000000003 A 32.08 32.08 0 0 1  673.75 128.33 L 673.75 160.41000000000003" fill="#813405"/><rect x="673.75" y="128.33" width="32.08" height="32.08" fill="#d45113"/><path d="M 673.75 128.33 A 32.08 32.08 0 0 1 705.83 160.41000000000003 L 673.75 160.41000000000003" fill="#813405"/><rect x="641.67" y="160.42" width="32.08" height="32.08" fill="#813405"/><path d="M 641.67 160.42 A 32.08 32.08 0 0 1  673.75 192.5 L 641.67 160.42 A 32.08 32.08 0 0 0 673.75 192.5" fill="#d45113"/><rect x="673.75" y="160.42" width="32.08" height="32.08" fill="#813405"/><path d="M 673.75 160.42 A 32.08 32.08 0 0 1 705.83 192.5 L 673.75 192.5" fill="#813405"/><rect x="705.832875" y="128.33325" width="64.166625" height="64.166625" fill="#ffffff"/><rect x="705.83" y="128.33" width="32.08" height="32.08" fill="#813405"/><path d="M 705.83 128.33 A 32.08 32.08 0 0 1  737.9100000000001 160.41000000000003 L 705.83 128.33 A 32.08 32.08 0 0 0 737.9100000000001 160.41000000000003" fill="#813405"/><rect x="737.92" y="128.33" width="32.08" height="32.08" fill="#d45113"/><path d="M 737.92 128.33 A 32.08 32.08 0 0 1  770 160.41000000000003 L 737.92 128.33 A 32.08 32.08 0 0 0 770 160.41000000000003" fill="#d45113"/><rect x="705.83" y="160.42" width="32.08" height="32.08" fill="#d45113"/><path d="M 705.83 192.5 A 32.08 32.08 0 0 1  737.9100000000001 160.42 L 705.83 192.5 A 32.08 32.08 0 0 0 737.9100000000001 160.42" fill="#d45113"/><rect x="737.92" y="160.42" width="32.08" height="32.08" fill="#d45113"/><path d="M 737.92 160.42 A 32.08 32.08 0 0 1 770 192.5 L 737.92 192.5" fill="#813405"/><rect x="0" y="192.49987499999997" width="64.166625" height="64.166625" fill="#ffffff"/><rect x="0" y="192.5" width="32.08" height="32.08" fill="#d45113"/><path d="M 0 224.57999999999998 A 32.08 32.08 0 0 0 32.08 192.5 L 0 192.5" fill="#d45113"/><rect x="32.08" y="192.5" width="32.08" height="32.08" fill="#813405"/><path d="M 32.08 192.5 A 32.08 32.08 0 0 1 64.16 224.57999999999998 L 32.08 224.57999999999998" fill="#813405"/><rect x="0" y="224.58" width="32.08" height="32.08" fill="#d45113"/><path d="M 0 256.66 A 32.08 32.08 0 0 1  32.08 224.58 L 32.08 256.66" fill="#d45113"/><rect x="32.08" y="224.58" width="32.08" height="32.08" fill="#813405"/><path d="M 32.08 224.58 A 32.08 32.08 0 0 1  64.16 256.66 L 32.08 224.58 A 32.08 32.08 0 0 0 64.16 256.66" fill="#d45113"/><rect x="64.166625" y="192.49987499999997" width="64.166625" height="64.166625" fill="#ffffff"/><rect x="64.17" y="192.5" width="32.08" height="32.08" fill="#d45113"/><path d="M 64.17 224.57999999999998 A 32.08 32.08 0 0 0 96.25 192.5 L 64.17 192.5" fill="#813405"/><rect x="96.25" y="192.5" width="32.08" height="32.08" fill="#d45113"/><path d="M 96.25 224.57999999999998 A 32.08 32.08 0 0 1  128.32999999999998 192.5 L 128.32999999999998 224.57999999999998" fill="#813405"/><rect x="64.17" y="224.58" width="32.08" height="32.08" fill="#d45113"/><path d="M 64.17 224.58 A 32.08 32.08 0 0 1 96.25 256.66 L 64.17 256.66" fill="#813405"/><rect x="96.25" y="224.58" width="32.08" height="32.08" fill="#813405"/><path d="M 96.25 224.58 A 32.08 32.08 0 0 1 128.32999999999998 256.66 L 96.25 256.66" fill="#d45113"/><rect x="128.33325" y="192.49987499999997" width="64.166625" height="64.166625" fill="#ffffff"/><rect x="128.33" y="192.5" width="32.08" height="32.08" fill="#d45113"/><path d="M 128.33 192.5 A 32.08 32.08 0 0 1  160.41000000000003 224.57999999999998 L 128.33 192.5 A 32.08 32.08 0 0 0 160.41000000000003 224.57999999999998" fill="#d45113"/><rect x="160.42" y="192.5" width="32.08" height="32.08" fill="#813405"/><path d="M 160.42 224.57999999999998 A 32.08 32.08 0 0 0 192.5 192.5 L 160.42 192.5" fill="#d45113"/><rect x="128.33" y="224.58" width="32.08" height="32.08" fill="#d45113"/><path d="M 128.33 256.66 A 32.08 32.08 0 0 1  160.41000000000003 224.58 L 128.33 256.66 A 32.08 32.08 0 0 0 160.41000000000003 224.58" fill="#813405"/><rect x="160.42" y="224.58" width="32.08" height="32.08" fill="#813405"/><path d="M 160.42 256.66 A 32.08 32.08 0 0 0 192.5 224.58 L 160.42 224.58" fill="#d45113"/><rect x="192.49987499999997" y="192.49987499999997" width="64.166625" height="64.166625" fill="#ffffff"/><rect x="192.5" y="192.5" width="32.08" height="32.08" fill="#d45113"/><path d="M 192.5 192.5 A 32.08 32.08 0 0 1  224.57999999999998 224.57999999999998 L 192.5 192.5 A 32.08 32.08 0 0 0 224.57999999999998 224.57999999999998" fill="#d45113"/><rect x="224.58" y="192.5" width="32.08" height="32.08" fill="#d45113"/><path d="M 224.58 224.57999999999998 A 32.08 32.08 0 0 1  256.66 192.5 L 256.66 224.57999999999998" fill="#d45113"/><rect x="192.5" y="224.58" width="32.08" height="32.08" fill="#d45113"/><path d="M 192.5 256.66 A 32.08 32.08 0 0 1  224.57999999999998 224.58 L 224.57999999999998 256.66" fill="#813405"/><rect x="224.58" y="224.58" width="32.08" height="32.08" fill="#813405"/><path d="M 224.58 224.58 A 32.08 32.08 0 0 1 256.66 256.66 L 224.58 256.66" fill="#d45113"/><rect x="256.67" y="192.5" width="64.17" height="64.17" fill="#813405"/><path d="M 256.67 256.67 A 64.17 64.17 0 0 1  320.84000000000003 192.5 L 320.84000000000003 256.67" fill="#d45113"/><rect x="320.83" y="192.5" width="64.17" height="64.17" fill="#d45113"/><path d="M 320.83 192.5 A 64.17 64.17 0 0 1  385 256.67 L 320.83 192.5 A 64.17 64.17 0 0 0 385 256.67" fill="#d45113"/><rect x="384.99974999999995" y="192.49987499999997" width="64.166625" height="64.166625" fill="#ffffff"/><rect x="385" y="192.5" width="32.08" height="32.08" fill="#d45113"/><path d="M 385 224.57999999999998 A 32.08 32.08 0 0 0 417.08 192.5 L 385 192.5" fill="#813405"/><rect x="417.08" y="192.5" width="32.08" height="32.08" fill="#813405"/><path d="M 417.08 224.57999999999998 A 32.08 32.08 0 0 0 449.15999999999997 192.5 L 417.08 192.5" fill="#813405"/><rect x="385" y="224.58" width="32.08" height="32.08" fill="#d45113"/><path d="M 385 224.58 A 32.08 32.08 0 0 0 417.08 256.66 L 417.08 224.58" fill="#d45113"/><rect x="417.08" y="224.58" width="32.08" height="32.08" fill="#d45113"/><path d="M 417.08 256.66 A 32.08 32.08 0 0 1  449.15999999999997 224.58 L 449.15999999999997 256.66" fill="#813405"/><rect x="449.16637499999996" y="192.49987499999997" width="64.166625" height="64.166625" fill="#ffffff"/><rect x="449.17" y="192.5" width="32.08" height="32.08" fill="#813405"/><path d="M 449.17 192.5 A 32.08 32.08 0 0 1 481.25 224.57999999999998 L 449.17 224.57999999999998" fill="#813405"/><rect x="481.25" y="192.5" width="32.08" height="32.08" fill="#813405"/><path d="M 481.25 224.57999999999998 A 32.08 32.08 0 0 1  513.33 192.5 L 513.33 224.57999999999998" fill="#d45113"/><rect x="449.17" y="224.58" width="32.08" height="32.08" fill="#813405"/><path d="M 449.17 224.58 A 32.08 32.08 0 0 1  481.25 256.66 L 449.17 224.58 A 32.08 32.08 0 0 0 481.25 256.66" fill="#d45113"/><rect x="481.25" y="224.58" width="32.08" height="32.08" fill="#813405"/><path d="M 481.25 224.58 A 32.08 32.08 0 0 0 513.33 256.66 L 513.33 224.58" fill="#813405"/><rect x="513.333" y="192.49987499999997" width="64.166625" height="64.166625" fill="#ffffff"/><rect x="513.33" y="192.5" width="32.08" height="32.08" fill="#d45113"/><path d="M 513.33 224.57999999999998 A 32.08 32.08 0 0 0 545.4100000000001 192.5 L 513.33 192.5" fill="#d45113"/><rect x="545.42" y="192.5" width="32.08" height="32.08" fill="#813405"/><path d="M 545.42 192.5 A 32.08 32.08 0 0 1 577.5 224.57999999999998 L 545.42 224.57999999999998" fill="#813405"/><rect x="513.33" y="224.58" width="32.08" height="32.08" fill="#d45113"/><path d="M 513.33 256.66 A 32.08 32.08 0 0 0 545.4100000000001 224.58 L 513.33 224.58" fill="#813405"/><rect x="545.42" y="224.58" width="32.08" height="32.08" fill="#813405"/><path d="M 545.42 224.58 A 32.08 32.08 0 0 0 577.5 256.66 L 577.5 224.58" fill="#d45113"/><rect x="577.4996249999999" y="192.49987499999997" width="64.166625" height="64.166625" fill="#ffffff"/><rect x="577.5" y="192.5" width="32.08" height="32.08" fill="#813405"/><path d="M 577.5 192.5 A 32.08 32.08 0 0 1  609.58 224.57999999999998 L 577.5 192.5 A 32.08 32.08 0 0 0 609.58 224.57999999999998" fill="#d45113"/><rect x="609.58" y="192.5" width="32.08" height="32.08" fill="#813405"/><path d="M 609.58 224.57999999999998 A 32.08 32.08 0 0 1  641.6600000000001 192.5 L 609.58 224.57999999999998 A 32.08 32.08 0 0 0 641.6600000000001 192.5" fill="#d45113"/><rect x="577.5" y="224.58" width="32.08" height="32.08" fill="#813405"/><path d="M 577.5 224.58 A 32.08 32.08 0 0 1 609.58 256.66 L 577.5 256.66" fill="#d45113"/><rect x="609.58" y="224.58" width="32.08" height="32.08" fill="#813405"/><path d="M 609.58 256.66 A 32.08 32.08 0 0 1  641.6600000000001 224.58 L 609.58 256.66 A 32.08 32.08 0 0 0 641.6600000000001 224.58" fill="#813405"/><rect x="641.67" y="192.5" width="64.17" height="64.17" fill="#d45113"/><path d="M 641.67 192.5 A 64.17 64.17 0 0 0 705.8399999999999 256.67 L 705.8399999999999 192.5" fill="#813405"/><rect x="705.832875" y="192.49987499999997" width="64.166625" height="64.166625" fill="#ffffff"/><rect x="705.83" y="192.5" width="32.08" height="32.08" fill="#813405"/><path d="M 705.83 224.57999999999998 A 32.08 32.08 0 0 1  737.9100000000001 192.5 L 737.9100000000001 224.57999999999998" fill="#d45113"/><rect x="737.92" y="192.5" width="32.08" height="32.08" fill="#d45113"/><path d="M 737.92 224.57999999999998 A 32.08 32.08 0 0 1  770 192.5 L 737.92 224.57999999999998 A 32.08 32.08 0 0 0 770 192.5" fill="#d45113"/><rect x="705.83" y="224.58" width="32.08" height="32.08" fill="#d45113"/><path d="M 705.83 256.66 A 32.08 32.08 0 0 1  737.9100000000001 224.58 L 705.83 256.66 A 32.08 32.08 0 0 0 737.9100000000001 224.58" fill="#813405"/><rect x="737.92" y="224.58" width="32.08" height="32.08" fill="#813405"/><path d="M 737.92 256.66 A 32.08 32.08 0 0 0 770 224.58 L 737.92 224.58" fill="#813405"/><rect x="0" y="256.67" width="64.17" height="64.17" fill="#813405"/><path d="M 0 320.84000000000003 A 64.17 64.17 0 0 1  64.17 256.67 L 0 320.84000000000003 A 64.17 64.17 0 0 0 64.17 256.67" fill="#d45113"/><rect x="64.166625" y="256.6665" width="64.166625" height="64.166625" fill="#ffffff"/><rect x="64.17" y="256.67" width="32.08" height="32.08" fill="#813405"/><path d="M 64.17 288.75 A 32.08 32.08 0 0 1  96.25 256.67 L 96.25 288.75" fill="#813405"/><rect x="96.25" y="256.67" width="32.08" height="32.08" fill="#813405"/><path d="M 96.25 256.67 A 32.08 32.08 0 0 1  128.32999999999998 288.75 L 96.25 256.67 A 32.08 32.08 0 0 0 128.32999999999998 288.75" fill="#d45113"/><rect x="64.17" y="288.75" width="32.08" height="32.08" fill="#d45113"/><path d="M 64.17 320.83 A 32.08 32.08 0 0 1  96.25 288.75 L 64.17 320.83 A 32.08 32.08 0 0 0 96.25 288.75" fill="#813405"/><rect x="96.25" y="288.75" width="32.08" height="32.08" fill="#813405"/><path d="M 96.25 288.75 A 32.08 32.08 0 0 0 128.32999999999998 320.83 L 128.32999999999998 288.75" fill="#813405"/><rect x="128.33325" y="256.6665" width="64.166625" height="64.166625" fill="#ffffff"/><rect x="128.33" y="256.67" width="32.08" height="32.08" fill="#d45113"/><path d="M 128.33 288.75 A 32.08 32.08 0 0 1  160.41000000000003 256.67 L 128.33 288.75 A 32.08 32.08 0 0 0 160.41000000000003 256.67" fill="#d45113"/><rect x="160.42" y="256.67" width="32.08" height="32.08" fill="#813405"/><path d="M 160.42 288.75 A 32.08 32.08 0 0 1  192.5 256.67 L 192.5 288.75" fill="#d45113"/><rect x="128.33" y="288.75" width="32.08" height="32.08" fill="#813405"/><path d="M 128.33 288.75 A 32.08 32.08 0 0 1 160.41000000000003 320.83 L 128.33 320.83" fill="#813405"/><rect x="160.42" y="288.75" width="32.08" height="32.08" fill="#813405"/><path d="M 160.42 320.83 A 32.08 32.08 0 0 1  192.5 288.75 L 160.42 320.83 A 32.08 32.08 0 0 0 192.5 288.75" fill="#813405"/><rect x="192.5" y="256.67" width="64.17" height="64.17" fill="#d45113"/><path d="M 192.5 256.67 A 64.17 64.17 0 0 1  256.67 320.84000000000003 L 192.5 256.67 A 64.17 64.17 0 0 0 256.67 320.84000000000003" fill="#813405"/><rect x="256.67" y="256.67" width="64.17" height="64.17" fill="#d45113"/><path d="M 256.67 320.84000000000003 A 64.17 64.17 0 0 1  320.84000000000003 256.67 L 320.84000000000003 320.84000000000003" fill="#813405"/><rect x="320.83" y="256.67" width="64.17" height="64.17" fill="#813405"/><path d="M 320.83 256.67 A 64.17 64.17 0 0 0 385 320.84000000000003 L 385 256.67" fill="#813405"/><rect x="385" y="256.67" width="64.17" height="64.17" fill="#d45113"/><path d="M 385 256.67 A 64.17 64.17 0 0 0 449.17 320.84000000000003 L 449.17 256.67" fill="#d45113"/><rect x="449.16637499999996" y="256.6665" width="64.166625" height="64.166625" fill="#ffffff"/><rect x="449.17" y="256.67" width="32.08" height="32.08" fill="#813405"/><path d="M 449.17 256.67 A 32.08 32.08 0 0 1  481.25 288.75 L 449.17 256.67 A 32.08 32.08 0 0 0 481.25 288.75" fill="#d45113"/><rect x="481.25" y="256.67" width="32.08" height="32.08" fill="#813405"/><path d="M 481.25 288.75 A 32.08 32.08 0 0 1  513.33 256.67 L 481.25 288.75 A 32.08 32.08 0 0 0 513.33 256.67" fill="#813405"/><rect x="449.17" y="288.75" width="32.08" height="32.08" fill="#d45113"/><path d="M 449.17 320.83 A 32.08 32.08 0 0 1  481.25 288.75 L 449.17 320.83 A 32.08 32.08 0 0 0 481.25 288.75" fill="#d45113"/><rect x="481.25" y="288.75" width="32.08" height="32.08" fill="#d45113"/><path d="M 481.25 320.83 A 32.08 32.08 0 0 1  513.33 288.75 L 481.25 320.83 A 32.08 32.08 0 0 0 513.33 288.75" fill="#d45113"/><rect x="513.33" y="256.67" width="64.17" height="64.17" fill="#813405"/><path d="M 513.33 256.67 A 64.17 64.17 0 0 1 577.5 320.84000000000003 L 513.33 320.84000000000003" fill="#813405"/><rect x="577.5" y="256.67" width="64.17" height="64.17" fill="#813405"/><path d="M 577.5 320.84000000000003 A 64.17 64.17 0 0 0 641.67 256.67 L 577.5 256.67" fill="#813405"/><rect x="641.66625" y="256.6665" width="64.166625" height="64.166625" fill="#ffffff"/><rect x="641.67" y="256.67" width="32.08" height="32.08" fill="#813405"/><path d="M 641.67 256.67 A 32.08 32.08 0 0 1 673.75 288.75 L 641.67 288.75" fill="#d45113"/><rect x="673.75" y="256.67" width="32.08" height="32.08" fill="#d45113"/><path d="M 673.75 256.67 A 32.08 32.08 0 0 1 705.83 288.75 L 673.75 288.75" fill="#d45113"/><rect x="641.67" y="288.75" width="32.08" height="32.08" fill="#813405"/><path d="M 641.67 320.83 A 32.08 32.08 0 0 1  673.75 288.75 L 641.67 320.83 A 32.08 32.08 0 0 0 673.75 288.75" fill="#d45113"/><rect x="673.75" y="288.75" width="32.08" height="32.08" fill="#813405"/><path d="M 673.75 288.75 A 32.08 32.08 0 0 1  705.83 320.83 L 673.75 288.75 A 32.08 32.08 0 0 0 705.83 320.83" fill="#d45113"/><rect x="705.832875" y="256.6665" width="64.166625" height="64.166625" fill="#ffffff"/><rect x="705.83" y="256.67" width="32.08" height="32.08" fill="#d45113"/><path d="M 705.83 256.67 A 32.08 32.08 0 0 1 737.9100000000001 288.75 L 705.83 288.75" fill="#813405"/><rect x="737.92" y="256.67" width="32.08" height="32.08" fill="#d45113"/><path d="M 737.92 288.75 A 32.08 32.08 0 0 1  770 256.67 L 770 288.75" fill="#813405"/><rect x="705.83" y="288.75" width="32.08" height="32.08" fill="#813405"/><path d="M 705.83 288.75 A 32.08 32.08 0 0 0 737.9100000000001 320.83 L 737.9100000000001 288.75" fill="#d45113"/><rect x="737.92" y="288.75" width="32.08" height="32.08" fill="#813405"/><path d="M 737.92 320.83 A 32.08 32.08 0 0 1  770 288.75 L 737.92 320.83 A 32.08 32.08 0 0 0 770 288.75" fill="#d45113"/><rect x="0" y="320.83" width="64.17" height="64.17" fill="#d45113"/><path d="M 0 385 A 64.17 64.17 0 0 1  64.17 320.83 L 64.17 385" fill="#d45113"/><rect x="64.17" y="320.83" width="64.17" height="64.17" fill="#d45113"/><path d="M 64.17 385 A 64.17 64.17 0 0 0 128.34 320.83 L 64.17 320.83" fill="#d45113"/><rect x="128.33325" y="320.833125" width="64.166625" height="64.166625" fill="#ffffff"/><rect x="128.33" y="320.83" width="32.08" height="32.08" fill="#813405"/><path d="M 128.33 352.90999999999997 A 32.08 32.08 0 0 0 160.41000000000003 320.83 L 128.33 320.83" fill="#d45113"/><rect x="160.42" y="320.83" width="32.08" height="32.08" fill="#813405"/><path d="M 160.42 320.83 A 32.08 32.08 0 0 0 192.5 352.90999999999997 L 192.5 320.83" fill="#d45113"/><rect x="128.33" y="352.92" width="32.08" height="32.08" fill="#813405"/><path d="M 128.33 352.92 A 32.08 32.08 0 0 1  160.41000000000003 385 L 128.33 352.92 A 32.08 32.08 0 0 0 160.41000000000003 385" fill="#813405"/><rect x="160.42" y="352.92" width="32.08" height="32.08" fill="#d45113"/><path d="M 160.42 352.92 A 32.08 32.08 0 0 1 192.5 385 L 160.42 385" fill="#d45113"/><rect x="192.5" y="320.83" width="64.17" height="64.17" fill="#813405"/><path d="M 192.5 320.83 A 64.17 64.17 0 0 1  256.67 385 L 192.5 320.83 A 64.17 64.17 0 0 0 256.67 385" fill="#813405"/><rect x="256.67" y="320.83" width="64.17" height="64.17" fill="#d45113"/><path d="M 256.67 385 A 64.17 64.17 0 0 1  320.84000000000003 320.83 L 320.84000000000003 385" fill="#813405"/><rect x="320.83" y="320.83" width="64.17" height="64.17" fill="#813405"/><path d="M 320.83 385 A 64.17 64.17 0 0 0 385 320.83 L 320.83 320.83" fill="#d45113"/><rect x="385" y="320.83" width="64.17" height="64.17" fill="#d45113"/><path d="M 385 320.83 A 64.17 64.17 0 0 1  449.17 385 L 385 320.83 A 64.17 64.17 0 0 0 449.17 385" fill="#d45113"/><rect x="449.17" y="320.83" width="64.17" height="64.17" fill="#813405"/><path d="M 449.17 385 A 64.17 64.17 0 0 0 513.34 320.83 L 449.17 320.83" fill="#813405"/><rect x="513.333" y="320.833125" width="64.166625" height="64.166625" fill="#ffffff"/><rect x="513.33" y="320.83" width="32.08" height="32.08" fill="#d45113"/><path d="M 513.33 352.90999999999997 A 32.08 32.08 0 0 1  545.4100000000001 320.83 L 545.4100000000001 352.90999999999997" fill="#813405"/><rect x="545.42" y="320.83" width="32.08" height="32.08" fill="#d45113"/><path d="M 545.42 320.83 A 32.08 32.08 0 0 1 577.5 352.90999999999997 L 545.42 352.90999999999997" fill="#d45113"/><rect x="513.33" y="352.92" width="32.08" height="32.08" fill="#813405"/><path d="M 513.33 352.92 A 32.08 32.08 0 0 0 545.4100000000001 385 L 545.4100000000001 352.92" fill="#d45113"/><rect x="545.42" y="352.92" width="32.08" height="32.08" fill="#813405"/><path d="M 545.42 385 A 32.08 32.08 0 0 0 577.5 352.92 L 545.42 352.92" fill="#d45113"/><rect x="577.5" y="320.83" width="64.17" height="64.17" fill="#d45113"/><path d="M 577.5 320.83 A 64.17 64.17 0 0 0 641.67 385 L 641.67 320.83" fill="#d45113"/><rect x="641.67" y="320.83" width="64.17" height="64.17" fill="#813405"/><path d="M 641.67 385 A 64.17 64.17 0 0 1  705.8399999999999 320.83 L 641.67 385 A 64.17 64.17 0 0 0 705.8399999999999 320.83" fill="#813405"/><rect x="705.832875" y="320.833125" width="64.166625" height="64.166625" fill="#ffffff"/><rect x="705.83" y="320.83" width="32.08" height="32.08" fill="#813405"/><path d="M 705.83 352.90999999999997 A 32.08 32.08 0 0 1  737.9100000000001 320.83 L 705.83 352.90999999999997 A 32.08 32.08 0 0 0 737.9100000000001 320.83" fill="#813405"/><rect x="737.92" y="320.83" width="32.08" height="32.08" fill="#813405"/><path d="M 737.92 352.90999999999997 A 32.08 32.08 0 0 1  770 320.83 L 770 352.90999999999997" fill="#813405"/><rect x="705.83" y="352.92" width="32.08" height="32.08" fill="#813405"/><path d="M 705.83 385 A 32.08 32.08 0 0 1  737.9100000000001 352.92 L 705.83 385 A 32.08 32.08 0 0 0 737.9100000000001 352.92" fill="#813405"/><rect x="737.92" y="352.92" width="32.08" height="32.08" fill="#813405"/><path d="M 737.92 385 A 32.08 32.08 0 0 1  770 352.92 L 770 385" fill="#d45113"/><rect x="0" y="385" width="64.17" height="64.17" fill="#d45113"/><path d="M 0 385 A 64.17 64.17 0 0 1  64.17 449.17 L 0 385 A 64.17 64.17 0 0 0 64.17 449.17" fill="#813405"/><rect x="64.166625" y="384.99974999999995" width="64.166625" height="64.166625" fill="#ffffff"/><rect x="64.17" y="385" width="32.08" height="32.08" fill="#813405"/><path d="M 64.17 385 A 32.08 32.08 0 0 1 96.25 417.08 L 64.17 417.08" fill="#813405"/><rect x="96.25" y="385" width="32.08" height="32.08" fill="#d45113"/><path d="M 96.25 385 A 32.08 32.08 0 0 1 128.32999999999998 417.08 L 96.25 417.08" fill="#d45113"/><rect x="64.17" y="417.08" width="32.08" height="32.08" fill="#813405"/><path d="M 64.17 449.15999999999997 A 32.08 32.08 0 0 1  96.25 417.08 L 96.25 449.15999999999997" fill="#d45113"/><rect x="96.25" y="417.08" width="32.08" height="32.08" fill="#d45113"/><path d="M 96.25 417.08 A 32.08 32.08 0 0 1  128.32999999999998 449.15999999999997 L 96.25 417.08 A 32.08 32.08 0 0 0 128.32999999999998 449.15999999999997" fill="#d45113"/><rect x="128.33" y="385" width="64.17" height="64.17" fill="#d45113"/><path d="M 128.33 385 A 64.17 64.17 0 0 1  192.5 449.17 L 128.33 385 A 64.17 64.17 0 0 0 192.5 449.17" fill="#d45113"/><rect x="192.5" y="385" width="64.17" height="64.17" fill="#d45113"/><path d="M 192.5 385 A 64.17 64.17 0 0 1 256.67 449.17 L 192.5 449.17" fill="#813405"/><rect x="256.6665" y="384.99974999999995" width="64.166625" height="64.166625" fill="#ffffff"/><rect x="256.67" y="385" width="32.08" height="32.08" fill="#d45113"/><path d="M 256.67 417.08 A 32.08 32.08 0 0 1  288.75 385 L 288.75 417.08" fill="#d45113"/><rect x="288.75" y="385" width="32.08" height="32.08" fill="#813405"/><path d="M 288.75 417.08 A 32.08 32.08 0 0 1  320.83 385 L 288.75 417.08 A 32.08 32.08 0 0 0 320.83 385" fill="#d45113"/><rect x="256.67" y="417.08" width="32.08" height="32.08" fill="#813405"/><path d="M 256.67 449.15999999999997 A 32.08 32.08 0 0 1  288.75 417.08 L 288.75 449.15999999999997" fill="#813405"/><rect x="288.75" y="417.08" width="32.08" height="32.08" fill="#813405"/><path d="M 288.75 417.08 A 32.08 32.08 0 0 0 320.83 449.15999999999997 L 320.83 417.08" fill="#813405"/><rect x="320.833125" y="384.99974999999995" width="64.166625" height="64.166625" fill="#ffffff"/><rect x="320.83" y="385" width="32.08" height="32.08" fill="#813405"/><path d="M 320.83 385 A 32.08 32.08 0 0 1  352.90999999999997 417.08 L 320.83 385 A 32.08 32.08 0 0 0 352.90999999999997 417.08" fill="#813405"/><rect x="352.92" y="385" width="32.08" height="32.08" fill="#d45113"/><path d="M 352.92 417.08 A 32.08 32.08 0 0 1  385 385 L 352.92 417.08 A 32.08 32.08 0 0 0 385 385" fill="#813405"/><rect x="320.83" y="417.08" width="32.08" height="32.08" fill="#813405"/><path d="M 320.83 449.15999999999997 A 32.08 32.08 0 0 1  352.90999999999997 417.08 L 352.90999999999997 449.15999999999997" fill="#813405"/><rect x="352.92" y="417.08" width="32.08" height="32.08" fill="#813405"/><path d="M 352.92 417.08 A 32.08 32.08 0 0 1 385 449.15999999999997 L 352.92 449.15999999999997" fill="#d45113"/><rect x="385" y="385" width="64.17" height="64.17" fill="#813405"/><path d="M 385 385 A 64.17 64.17 0 0 1 449.17 449.17 L 385 449.17" fill="#813405"/><rect x="449.16637499999996" y="384.99974999999995" width="64.166625" height="64.166625" fill="#ffffff"/><rect x="449.17" y="385" width="32.08" height="32.08" fill="#813405"/><path d="M 449.17 385 A 32.08 32.08 0 0 0 481.25 417.08 L 481.25 385" fill="#813405"/><rect x="481.25" y="385" width="32.08" height="32.08" fill="#d45113"/><path d="M 481.25 385 A 32.08 32.08 0 0 1  513.33 417.08 L 481.25 385 A 32.08 32.08 0 0 0 513.33 417.08" fill="#813405"/><rect x="449.17" y="417.08" width="32.08" height="32.08" fill="#813405"/><path d="M 449.17 417.08 A 32.08 32.08 0 0 1  481.25 449.15999999999997 L 449.17 417.08 A 32.08 32.08 0 0 0 481.25 449.15999999999997" fill="#d45113"/><rect x="481.25" y="417.08" width="32.08" height="32.08" fill="#813405"/><path d="M 481.25 417.08 A 32.08 32.08 0 0 1  513.33 449.15999999999997 L 481.25 417.08 A 32.08 32.08 0 0 0 513.33 449.15999999999997" fill="#d45113"/><rect x="513.33" y="385" width="64.17" height="64.17" fill="#d45113"/><path d="M 513.33 385 A 64.17 64.17 0 0 1 577.5 449.17 L 513.33 449.17" fill="#d45113"/><rect x="577.5" y="385" width="64.17" height="64.17" fill="#d45113"/><path d="M 577.5 385 A 64.17 64.17 0 0 1  641.67 449.17 L 577.5 385 A 64.17 64.17 0 0 0 641.67 449.17" fill="#813405"/><rect x="641.67" y="385" width="64.17" height="64.17" fill="#d45113"/><path d="M 641.67 385 A 64.17 64.17 0 0 1 705.8399999999999 449.17 L 641.67 449.17" fill="#d45113"/><rect x="705.832875" y="384.99974999999995" width="64.166625" height="64.166625" fill="#ffffff"/><rect x="705.83" y="385" width="32.08" height="32.08" fill="#813405"/><path d="M 705.83 385 A 32.08 32.08 0 0 1  737.9100000000001 417.08 L 705.83 385 A 32.08 32.08 0 0 0 737.9100000000001 417.08" fill="#813405"/><rect x="737.92" y="385" width="32.08" height="32.08" fill="#813405"/><path d="M 737.92 385 A 32.08 32.08 0 0 0 770 417.08 L 770 385" fill="#813405"/><rect x="705.83" y="417.08" width="32.08" height="32.08" fill="#d45113"/><path d="M 705.83 417.08 A 32.08 32.08 0 0 0 737.9100000000001 449.15999999999997 L 737.9100000000001 417.08" fill="#813405"/><rect x="737.92" y="417.08" width="32.08" height="32.08" fill="#d45113"/><path d="M 737.92 417.08 A 32.08 32.08 0 0 1 770 449.15999999999997 L 737.92 449.15999999999997" fill="#d45113"/><rect x="0" y="449.16637499999996" width="64.166625" height="64.166625" fill="#ffffff"/><rect x="0" y="449.17" width="32.08" height="32.08" fill="#d45113"/><path d="M 0 481.25 A 32.08 32.08 0 0 0 32.08 449.17 L 0 449.17" fill="#813405"/><rect x="32.08" y="449.17" width="32.08" height="32.08" fill="#d45113"/><path d="M 32.08 449.17 A 32.08 32.08 0 0 0 64.16 481.25 L 64.16 449.17" fill="#813405"/><rect x="0" y="481.25" width="32.08" height="32.08" fill="#d45113"/><path d="M 0 513.33 A 32.08 32.08 0 0 1  32.08 481.25 L 0 513.33 A 32.08 32.08 0 0 0 32.08 481.25" fill="#813405"/><rect x="32.08" y="481.25" width="32.08" height="32.08" fill="#813405"/><path d="M 32.08 481.25 A 32.08 32.08 0 0 1  64.16 513.33 L 32.08 481.25 A 32.08 32.08 0 0 0 64.16 513.33" fill="#813405"/><rect x="64.17" y="449.17" width="64.17" height="64.17" fill="#d45113"/><path d="M 64.17 449.17 A 64.17 64.17 0 0 0 128.34 513.34 L 128.34 449.17" fill="#813405"/><rect x="128.33" y="449.17" width="64.17" height="64.17" fill="#813405"/><path d="M 128.33 449.17 A 64.17 64.17 0 0 1 192.5 513.34 L 128.33 513.34" fill="#813405"/><rect x="192.49987499999997" y="449.16637499999996" width="64.166625" height="64.166625" fill="#ffffff"/><rect x="192.5" y="449.17" width="32.08" height="32.08" fill="#813405"/><path d="M 192.5 481.25 A 32.08 32.08 0 0 1  224.57999999999998 449.17 L 192.5 481.25 A 32.08 32.08 0 0 0 224.57999999999998 449.17" fill="#813405"/><rect x="224.58" y="449.17" width="32.08" height="32.08" fill="#d45113"/><path d="M 224.58 449.17 A 32.08 32.08 0 0 0 256.66 481.25 L 256.66 449.17" fill="#d45113"/><rect x="192.5" y="481.25" width="32.08" height="32.08" fill="#813405"/><path d="M 192.5 481.25 A 32.08 32.08 0 0 1  224.57999999999998 513.33 L 192.5 481.25 A 32.08 32.08 0 0 0 224.57999999999998 513.33" fill="#d45113"/><rect x="224.58" y="481.25" width="32.08" height="32.08" fill="#d45113"/><path d="M 224.58 513.33 A 32.08 32.08 0 0 0 256.66 481.25 L 224.58 481.25" fill="#d45113"/><rect x="256.67" y="449.17" width="64.17" height="64.17" fill="#d45113"/><path d="M 256.67 449.17 A 64.17 64.17 0 0 0 320.84000000000003 513.34 L 320.84000000000003 449.17" fill="#d45113"/><rect x="320.833125" y="449.16637499999996" width="64.166625" height="64.166625" fill="#ffffff"/><rect x="320.83" y="449.17" width="32.08" height="32.08" fill="#813405"/><path d="M 320.83 449.17 A 32.08 32.08 0 0 1  352.90999999999997 481.25 L 320.83 449.17 A 32.08 32.08 0 0 0 352.90999999999997 481.25" fill="#813405"/><rect x="352.92" y="449.17" width="32.08" height="32.08" fill="#813405"/><path d="M 352.92 481.25 A 32.08 32.08 0 0 1  385 449.17 L 352.92 481.25 A 32.08 32.08 0 0 0 385 449.17" fill="#813405"/><rect x="320.83" y="481.25" width="32.08" height="32.08" fill="#d45113"/><path d="M 320.83 513.33 A 32.08 32.08 0 0 1  352.90999999999997 481.25 L 352.90999999999997 513.33" fill="#813405"/><rect x="352.92" y="481.25" width="32.08" height="32.08" fill="#d45113"/><path d="M 352.92 481.25 A 32.08 32.08 0 0 0 385 513.33 L 385 481.25" fill="#d45113"/><rect x="385" y="449.17" width="64.17" height="64.17" fill="#813405"/><path d="M 385 449.17 A 64.17 64.17 0 0 1 449.17 513.34 L 385 513.34" fill="#d45113"/><rect x="449.17" y="449.17" width="64.17" height="64.17" fill="#d45113"/><path d="M 449.17 449.17 A 64.17 64.17 0 0 1  513.34 513.34 L 449.17 449.17 A 64.17 64.17 0 0 0 513.34 513.34" fill="#813405"/><rect x="513.333" y="449.16637499999996" width="64.166625" height="64.166625" fill="#ffffff"/><rect x="513.33" y="449.17" width="32.08" height="32.08" fill="#d45113"/><path d="M 513.33 449.17 A 32.08 32.08 0 0 0 545.4100000000001 481.25 L 545.4100000000001 449.17" fill="#d45113"/><rect x="545.42" y="449.17" width="32.08" height="32.08" fill="#813405"/><path d="M 545.42 449.17 A 32.08 32.08 0 0 1 577.5 481.25 L 545.42 481.25" fill="#813405"/><rect x="513.33" y="481.25" width="32.08" height="32.08" fill="#813405"/><path d="M 513.33 513.33 A 32.08 32.08 0 0 1  545.4100000000001 481.25 L 513.33 513.33 A 32.08 32.08 0 0 0 545.4100000000001 481.25" fill="#d45113"/><rect x="545.42" y="481.25" width="32.08" height="32.08" fill="#813405"/><path d="M 545.42 513.33 A 32.08 32.08 0 0 0 577.5 481.25 L 545.42 481.25" fill="#813405"/><rect x="577.5" y="449.17" width="64.17" height="64.17" fill="#d45113"/><path d="M 577.5 513.34 A 64.17 64.17 0 0 1  641.67 449.17 L 641.67 513.34" fill="#813405"/><rect x="641.66625" y="449.16637499999996" width="64.166625" height="64.166625" fill="#ffffff"/><rect x="641.67" y="449.17" width="32.08" height="32.08" fill="#813405"/><path d="M 641.67 481.25 A 32.08 32.08 0 0 1  673.75 449.17 L 641.67 481.25 A 32.08 32.08 0 0 0 673.75 449.17" fill="#d45113"/><rect x="673.75" y="449.17" width="32.08" height="32.08" fill="#813405"/><path d="M 673.75 481.25 A 32.08 32.08 0 0 1  705.83 449.17 L 705.83 481.25" fill="#d45113"/><rect x="641.67" y="481.25" width="32.08" height="32.08" fill="#813405"/><path d="M 641.67 481.25 A 32.08 32.08 0 0 1 673.75 513.33 L 641.67 513.33" fill="#d45113"/><rect x="673.75" y="481.25" width="32.08" height="32.08" fill="#813405"/><path d="M 673.75 481.25 A 32.08 32.08 0 0 1  705.83 513.33 L 673.75 481.25 A 32.08 32.08 0 0 0 705.83 513.33" fill="#d45113"/><rect x="705.83" y="449.17" width="64.17" height="64.17" fill="#d45113"/><path d="M 705.83 449.17 A 64.17 64.17 0 0 1  770 513.34 L 705.83 449.17 A 64.17 64.17 0 0 0 770 513.34" fill="#813405"/></g></svg>