<?xml version="1.0" encoding="iso-8859-1"?>
<!-- Generator: Adobe Illustrator 19.0.0, SVG Export Plug-In . SVG Version: 6.00 Build 0)  -->
<svg version="1.1" id="Layer_1" xmlns="http://www.w3.org/2000/svg" xmlns:xlink="http://www.w3.org/1999/xlink" x="0px" y="0px"
	 viewBox="0 0 496.2 496.2" style="enable-background:new 0 0 496.2 496.2;" xml:space="preserve">
<path style="fill:#FABC3D;" d="M496.2,248.1C496.2,111.1,385.1,0,248.1,0S0,111.1,0,248.1s111.1,248.1,248.1,248.1
	S496.2,385.1,496.2,248.1z"/>
<g>
	<path style="fill:#66625D;" d="M201.3,161.8c-0.5,0-1-0.1-1.5-0.4c-1.4-0.8-1.9-2.7-1.1-4.1l46.5-81.5c0.8-1.4,2.7-1.9,4.1-1.1
		s1.9,2.7,1.1,4.1l-46.5,81.5C203.3,161.3,202.3,161.8,201.3,161.8z"/>
	<path style="fill:#66625D;" d="M294.3,161.8c-1,0-2.1-0.5-2.6-1.5l-46.5-81.5c-0.8-1.4-0.3-3.3,1.1-4.1c1.4-0.8,3.3-0.3,4.1,1.1
		l46.5,81.5c0.8,1.4,0.3,3.3-1.1,4.1C295.3,161.7,294.8,161.8,294.3,161.8z"/>
</g>
<rect x="94.4" y="151.8" style="fill:#AD8355;" width="307.3" height="218"/>
<rect x="107.9" y="296.2" style="fill:#8BD621;" width="280.5" height="62.2"/>
<rect x="107.9" y="163.3" style="fill:#A3D5E0;" width="280.5" height="132.8"/>
<ellipse style="fill:#64A80D;" cx="174.4" cy="233.2" rx="30.7" ry="36"/>
<g>
	<path style="fill:#5B4F3F;" d="M174.4,318c-0.8,0-1.5-0.7-1.5-1.5v-83.3c0-0.8,0.7-1.5,1.5-1.5s1.5,0.7,1.5,1.5v83.3
		C175.9,317.3,175.3,318,174.4,318z"/>
	<path style="fill:#5B4F3F;" d="M174.4,249.5L174.4,249.5c-0.5,0-0.9-0.2-1.2-0.6l-14.5-18c-0.5-0.6-0.4-1.6,0.2-2.1
		c0.6-0.5,1.6-0.4,2.1,0.2l13.4,16.6l14.8-16.7c0.6-0.6,1.5-0.7,2.1-0.1s0.7,1.5,0.1,2.1l-16,18
		C175.3,249.3,174.9,249.5,174.4,249.5z"/>
</g>
<ellipse style="fill:#64A80D;" cx="251.9" cy="241.3" rx="23" ry="43.3"/>
<g>
	<path style="fill:#5B4F3F;" d="M251.9,318c-0.8,0-1.5-0.7-1.5-1.5v-67.8c0-0.8,0.7-1.5,1.5-1.5s1.5,0.7,1.5,1.5v67.8
		C253.4,317.3,252.8,318,251.9,318z"/>
	<path style="fill:#5B4F3F;" d="M251.9,265L251.9,265c-0.5,0-0.9-0.2-1.2-0.6l-14.5-18c-0.5-0.6-0.4-1.6,0.2-2.1
		c0.6-0.5,1.6-0.4,2.1,0.2l13.4,16.6l14.8-16.7c0.5-0.6,1.5-0.7,2.1-0.1c0.6,0.6,0.7,1.5,0.1,2.1l-16,18
		C252.8,264.8,252.4,265,251.9,265z"/>
</g>
<ellipse style="fill:#64A80D;" cx="329.4" cy="251.3" rx="23" ry="22.2"/>
<g>
	<path style="fill:#5B4F3F;" d="M329.4,318c-0.8,0-1.5-0.7-1.5-1.5v-67.8c0-0.8,0.7-1.5,1.5-1.5s1.5,0.7,1.5,1.5v67.8
		C330.9,317.3,330.3,318,329.4,318z"/>
	<path style="fill:#5B4F3F;" d="M329.4,265L329.4,265c-0.5,0-0.9-0.2-1.2-0.6l-14.5-18c-0.5-0.6-0.4-1.6,0.2-2.1s1.6-0.4,2.1,0.2
		l13.4,16.6l14.8-16.7c0.6-0.6,1.5-0.7,2.1-0.1s0.7,1.5,0.1,2.1l-16,18C330.3,264.8,329.9,265,329.4,265z"/>
</g>
<g>
</g>
<g>
</g>
<g>
</g>
<g>
</g>
<g>
</g>
<g>
</g>
<g>
</g>
<g>
</g>
<g>
</g>
<g>
</g>
<g>
</g>
<g>
</g>
<g>
</g>
<g>
</g>
<g>
</g>
</svg>
