<svg xmlns="http://www.w3.org/2000/svg" xmlns:xlink="http://www.w3.org/1999/xlink" version="1.1" enable-background="new 0 0 512 512" width="512" height="512"><rect id="backgroundrect" width="100%" height="100%" x="0" y="0" fill="none" stroke="none"/>
  
<g class="currentLayer" style=""><title>Layer 1</title><g id="svg_1" class="selected" fill="#ffffff" fill-opacity="1">
    <g id="svg_2" fill="#ffffff" fill-opacity="1">
      <path d="m436.6735537648201,240.7264462351799 c1,-7.3 2.1,-13.5 2.1,-20.8 c0,-70.6 -57.2,-127.7 -128,-127.7 c-37.5,0 -71.8,15.6 -95.7,42.6 c-13.5,-7.3 -29.1,-11.4 -44.7,-11.4 c-48.9,0 -89.5,35.3 -96.8,83.1 c-38.4,18.6 -63.4,58.1 -63.4,101.7 c0,62.3 51,113.2 113.4,113.2 h281.9 c52,0 93.6,-41.5 94.7,-92.4 c5.684340000000001e-14,-40.5 -26,-75.8 -63.5,-88.3 zm-31.2,159.9 h-281.9 c-51,0 -92.6,-41.5 -92.6,-92.4 c0,-37.4 21.8,-70.6 56.2,-85.1 c3.1,-1 6.2,-4.2 6.2,-8.3 c3.1,-40.5 35.4,-70.6 75.9,-70.6 c15.6,0 29.1,4.2 43.7,10.4 c4.2,3.1 10.4,2.1 13.5,-2.1 c19.8,-26 51,-41.5 84.3,-41.5 c59.3,0 107.2,47.8 107.2,106.9 c0,8.3 -1,17.6 -3.1,26 c-2.8,9.2 4.2,12.5 7.3,13.5 c33.3,7.3 56.2,36.3 56.2,70.6 c0,40.4 -32.3,72.6 -72.9,72.6 z" id="svg_3" fill="#ffffff" fill-opacity="1"/>
      <path d="m160.2735537648201,233.1264462351799 c11.5,0 20.9,9.3 20.9,20.8 c0,3.9 3.1,7 7,7 s7,-3.1 7,-7 c0,-19.2 -15.7,-34.8 -34.9,-34.8 c-19.3,0 -34.9,15.6 -34.9,34.8 s15.7,34.8 34.9,34.8 c11.5,0 20.9,9.3 20.9,20.8 c0,11.5 -9.4,20.8 -20.9,20.8 s-20.9,-9.3 -20.9,-20.8 c0,-3.9 -3.1,-7 -7,-7 c-3.9,0 -7,3.1 -7,7 c0,19.2 15.7,34.8 34.9,34.8 c19.3,0 34.9,-15.6 34.9,-34.8 s-15.7,-34.7 -34.9,-34.7 c-11.5,0 -20.9,-9.3 -20.9,-20.8 s9.4,-20.9 20.9,-20.9 z" id="svg_4" fill="#ffffff" fill-opacity="1"/>
      <path d="M275.1735537648201,233.1264462351799 c3.9,0 7,-3.1 7,-7 s-3.1,-7 -7,-7 h-56.6 c-3.9,0 -7,3.1 -7,7 v111.4 c0,3.9 3.1,7 7,7 H275.1735537648201 c3.9,0 7,-3.1 7,-7 s-3.1,-7 -7,-7 h-49.6 V288.8264462351799 H275.1735537648201 c3.9,0 7,-3.1 7,-7 s-3.1,-7 -7,-7 h-49.6 v-41.7 H275.1735537648201 z" id="svg_5" fill="#ffffff" fill-opacity="1"/>
      <path d="m337.8735537648201,219.1264462351799 c-13,0 -25.1,6.8 -34.1,19.2 c-8.4,11.7 -13.1,27.1 -13.1,43.5 s4.6,31.8 13.1,43.5 c8.9,12.4 21,19.2 34.1,19.2 s25.1,-6.8 34.1,-19.2 c8.4,-11.7 13.1,-27.1 13.1,-43.5 s-4.6,-31.8 -13.1,-43.5 c-9,-12.4 -21.1,-19.2 -34.1,-19.2 zm0,111.3 c-18.3,0 -33.1,-21.8 -33.1,-48.7 c0,-26.8 14.9,-48.7 33.1,-48.7 c18.3,0 33.1,21.8 33.1,48.7 c0,26.9 -14.8,48.7 -33.1,48.7 z" id="svg_6" fill="#ffffff" fill-opacity="1"/>
    </g>
  </g></g></svg>