<?xml version="1.0" standalone="no"?><svg xmlns="http://www.w3.org/2000/svg" viewBox="0 0 1440 320"><path fill="#087f8c" fill-opacity="1" d="M0,256L21.8,245.3C43.6,235,87,213,131,208C174.5,203,218,213,262,208C305.5,203,349,181,393,160C436.4,139,480,117,524,106.7C567.3,96,611,96,655,112C698.2,128,742,160,785,170.7C829.1,181,873,171,916,149.3C960,128,1004,96,1047,74.7C1090.9,53,1135,43,1178,48C1221.8,53,1265,75,1309,85.3C1352.7,96,1396,96,1418,96L1440,96L1440,320L1418.2,320C1396.4,320,1353,320,1309,320C1265.5,320,1222,320,1178,320C1134.5,320,1091,320,1047,320C1003.6,320,960,320,916,320C872.7,320,829,320,785,320C741.8,320,698,320,655,320C610.9,320,567,320,524,320C480,320,436,320,393,320C349.1,320,305,320,262,320C218.2,320,175,320,131,320C87.3,320,44,320,22,320L0,320Z"></path></svg>