<svg xmlns="http://www.w3.org/2000/svg" xmlns:xlink="http://www.w3.org/1999/xlink" version="1.1" style="enable-background:new 0 0 490 490;" xml:space="preserve" width="490" height="490"><rect id="backgroundrect" width="100%" height="100%" x="0" y="0" fill="none" stroke="none"/>
















<g class="currentLayer" style=""><title>Layer 1</title><g id="svg_1" class="selected" fill="#ffffff" fill-opacity="1">
	<path d="M244.1735537648201,314.021 c-5.936,0 -10.743,4.813 -10.743,10.749 s4.808,10.751 10.743,10.751 c5.938,0 10.75,-4.815 10.75,-10.751 S250.1115537648201,314.021 244.1735537648201,314.021 z" id="svg_2" fill="#ffffff" fill-opacity="1"/>
	<path d="M479.1735537648201,21.003 H9.173553764820099 c-5.523,0 -10,4.477 -10,10 v327.456 c0,5.522 4.477,10 10,10 h174.711 l-17.492,42.43 h-32.88 c-5.522,0 -10,4.478 -10,10 v38.108 c0,5.523 4.478,10 10,10 h221.323 c5.522,0 10,-4.477 10,-10 v-38.108 c0,-5.522 -4.478,-10 -10,-10 h-32.879 l-17.493,-42.43 H479.1735537648201 c5.522,0 10,-4.478 10,-10 V31.003 C489.1735537648201,25.479 484.6955537648201,21.003 479.1735537648201,21.003 zM469.1735537648201,41.003 v240.901 H19.1735537648201 V41.003 H469.1735537648201 zM344.8355537648201,448.997 H143.5125537648201 v-18.108 h201.323 V448.997 zM300.3225537648201,410.889 H188.0255537648201 l17.492,-42.43 h77.312 L300.3225537648201,410.889 zM19.1735537648201,348.459 v-46.555 h450 v46.555 H19.1735537648201 z" id="svg_3" fill="#ffffff" fill-opacity="1"/>
	<path d="M322.3795537648201,161.089 L322.3795537648201,161.089 L322.3795537648201,161.089 c0,-5.522 -4.478,-10 -10.001,-9.999 l-10.664,0.0010000000000000002 c-0.6030000000000001,-3.473 -1.497,-6.846 -2.686,-10.08 l9.221,-5.324 c4.782,-2.763 6.421,-8.879 3.6580000000000004,-13.661 c-2.763,-4.782 -8.877,-6.423 -13.66,-3.6590000000000003 l-9.248,5.3420000000000005 c-2.233,-2.669 -4.699,-5.135 -7.368,-7.369 l5.3420000000000005,-9.247 c2.763,-4.782 1.125,-10.899000000000001 -3.657,-13.661 c-4.782,-2.7640000000000002 -10.898,-1.125 -13.661,3.657 l-5.325,9.22 c-3.234,-1.189 -6.607,-2.084 -10.08,-2.688 V92.962 c0,-5.523 -4.477,-10 -10,-10 c-0.025000000000000005,0 -0.05100000000000001,0.004000000000000001 -0.07600000000000001,0.004000000000000001 s-0.05100000000000001,-0.004000000000000001 -0.07600000000000001,-0.004000000000000001 c-5.522,0 -10,4.477 -10,10 v10.658 c-3.473,0.6040000000000001 -6.846,1.498 -10.08,2.688 l-5.325,-9.22 c-2.763,-4.782 -8.879,-6.421 -13.661,-3.657 c-4.782,2.762 -6.42,8.879 -3.657,13.661 l5.3420000000000005,9.247 c-2.669,2.234 -5.135,4.7 -7.368,7.369 l-9.248,-5.3420000000000005 c-4.783,-2.7640000000000002 -10.897,-1.123 -13.66,3.6590000000000003 c-2.763,4.782 -1.124,10.898 3.6580000000000004,13.661 l9.221,5.324 c-1.189,3.234 -2.083,6.607 -2.686,10.08 l-10.664,-0.0010000000000000002 c-5.523,-0.0010000000000000002 -10.001,4.477 -10.001,9.999 l0,0 l0,0 l0,0 l0,0 c0,5.523 4.478,10 10.001,10 l10.664,-0.0010000000000000002 c0.6020000000000001,3.472 1.497,6.845 2.686,10.079 l-9.221,5.325 c-4.782,2.763 -6.421,8.878 -3.6580000000000004,13.661 c2.763,4.781 8.877,6.422 13.66,3.6580000000000004 l9.248,-5.3420000000000005 c2.233,2.67 4.699,5.136 7.368,7.369 l-5.3420000000000005,9.248 c-2.763,4.782 -1.125,10.898 3.657,13.66 c4.782,2.7640000000000002 10.898,1.125 13.661,-3.656 l5.325,-9.221 c3.234,1.189 6.607,2.085 10.08,2.688 v10.658 c0,5.523 4.478,10 10,10 c0.025000000000000005,0 0.05100000000000001,-0.004000000000000001 0.07600000000000001,-0.004000000000000001 s0.05100000000000001,0.004000000000000001 0.07600000000000001,0.004000000000000001 c5.523,0 10,-4.477 10,-10 v-10.658 c3.473,-0.6030000000000001 6.846,-1.498 10.08,-2.688 l5.325,9.221 c2.763,4.781 8.879,6.42 13.661,3.656 c4.782,-2.762 6.42,-8.878 3.657,-13.66 l-5.3420000000000005,-9.248 c2.669,-2.233 5.135,-4.699 7.368,-7.369 l9.248,5.3420000000000005 c4.783,2.7640000000000002 10.898,1.123 13.66,-3.6580000000000004 c2.763,-4.783 1.124,-10.898 -3.6580000000000004,-13.661 l-9.221,-5.325 c1.189,-3.234 2.083,-6.607 2.686,-10.079 l10.664,0.0010000000000000002 C317.9015537648201,171.089 322.3795537648201,166.612 322.3795537648201,161.089 L322.3795537648201,161.089 L322.3795537648201,161.089 zM244.2495537648201,199.433 c-0.025000000000000005,0 -0.05100000000000001,-0.0020000000000000005 -0.07600000000000001,-0.0020000000000000005 s-0.05100000000000001,0.0020000000000000005 -0.07600000000000001,0.0020000000000000005 c-21.141,0 -38.34,-17.2 -38.34,-38.344 c0,-21.143 17.199,-38.344 38.34,-38.344 c0.025000000000000005,0 0.05100000000000001,0.0020000000000000005 0.07600000000000001,0.0020000000000000005 s0.05100000000000001,-0.0020000000000000005 0.07600000000000001,-0.0020000000000000005 c21.141,0 38.34,17.201 38.34,38.344 C282.5895537648201,182.232 265.3905537648201,199.433 244.2495537648201,199.433 z" id="svg_4" fill="#ffffff" fill-opacity="1"/>
</g><g id="svg_5">
</g><g id="svg_6">
</g><g id="svg_7">
</g><g id="svg_8">
</g><g id="svg_9">
</g><g id="svg_10">
</g><g id="svg_11">
</g><g id="svg_12">
</g><g id="svg_13">
</g><g id="svg_14">
</g><g id="svg_15">
</g><g id="svg_16">
</g><g id="svg_17">
</g><g id="svg_18">
</g><g id="svg_19">
</g></g></svg>