<?xml version="1.0" encoding="iso-8859-1"?>
<!-- Generator: Adobe Illustrator 19.0.0, SVG Export Plug-In . SVG Version: 6.00 Build 0)  -->
<svg version="1.1" id="Layer_1" xmlns="http://www.w3.org/2000/svg" xmlns:xlink="http://www.w3.org/1999/xlink" x="0px" y="0px"
	 viewBox="0 0 512 512" style="enable-background:new 0 0 512 512;" xml:space="preserve">
<path style="fill:#F00000;" d="M256,0C114.616,0,0,114.616,0,256s114.616,256,256,256s256-114.616,256-256S397.384,0,256,0z"/>
<rect x="244" y="346.72" width="24" height="58.152"/>
<polygon points="180.928,419.808 188.928,395.808 323.072,395.808 331.072,419.808 "/>
<path d="M91.976,349.448c-12.12,0-21.976-9.856-21.976-21.976V147.136c0-12.12,9.856-21.976,21.976-21.976h328.056
	c12.12,0,21.976,9.856,21.976,21.976v180.336c0,12.12-9.856,21.976-21.976,21.976H91.976z"/>
<path d="M420.024,131.16c8.808,0,15.976,7.168,15.976,15.976V327.48c0,8.808-7.168,15.976-15.976,15.976H91.976
	c-8.808,0-15.976-7.168-15.976-15.976V147.136c0-8.808,7.168-15.976,15.976-15.976H420.024 M420.024,119.16H91.976
	C76.592,119.16,64,131.752,64,147.136V327.48c0,15.384,12.592,27.976,27.976,27.976h328.056c15.384,0,27.976-12.592,27.976-27.976
	V147.136C448,131.752,435.408,119.16,420.024,119.16L420.024,119.16z"/>
<g>
	<path style="fill:#FFFFFF;" d="M171.096,157.096l3.336,17.12c0.856,4.36,1.712,8.984,2.4,13.776H177
		c0.856-4.792,2.056-9.584,3.08-13.696l4.456-17.192H194.8l4.192,16.688c1.112,4.704,2.224,9.416,3.08,14.2h0.168
		c0.6-4.792,1.456-9.504,2.4-14.288l3.592-16.6h12.752l-12.832,41.84H195.92l-3.936-14.72c-1.032-4.112-1.8-7.872-2.656-13.008
		h-0.168c-0.768,5.216-1.624,9.072-2.736,13.008l-4.192,14.72H170l-12.16-41.84h13.256V157.096z"/>
	<path style="fill:#FFFFFF;" d="M237.688,157.096l3.336,17.12c0.856,4.36,1.712,8.984,2.4,13.776h0.168
		c0.856-4.792,2.056-9.584,3.08-13.696l4.456-17.192h10.264l4.192,16.688c1.112,4.704,2.224,9.416,3.08,14.2h0.168
		c0.6-4.792,1.456-9.504,2.4-14.288l3.592-16.6h12.752l-12.832,41.84h-12.232l-3.936-14.72c-1.032-4.112-1.8-7.872-2.656-13.008
		h-0.168c-0.768,5.216-1.624,9.072-2.736,13.008l-4.192,14.72h-12.232l-12.16-41.84h13.256V157.096z"/>
	<path style="fill:#FFFFFF;" d="M304.28,157.096l3.336,17.12c0.856,4.36,1.712,8.984,2.4,13.776h0.168
		c0.856-4.792,2.056-9.584,3.08-13.696l4.456-17.192h10.264l4.192,16.688c1.112,4.704,2.224,9.416,3.08,14.2h0.168
		c0.6-4.792,1.456-9.504,2.4-14.288l3.592-16.6h12.752l-12.832,41.84h-12.232l-3.936-14.72c-1.032-4.112-1.8-7.872-2.656-13.008
		h-0.168c-0.768,5.216-1.624,9.072-2.736,13.008l-4.192,14.72h-12.248l-12.16-41.84h13.272V157.096z"/>
</g>
<g>
	<path style="fill:#F00000;" d="M171.096,215.92l3.336,17.12c0.856,4.36,1.712,8.984,2.4,13.776H177
		c0.856-4.792,2.056-9.584,3.08-13.696l4.456-17.192H194.8l4.192,16.688c1.112,4.704,2.224,9.416,3.08,14.2h0.168
		c0.6-4.792,1.456-9.504,2.4-14.288l3.592-16.6h12.752l-12.832,41.84H195.92l-3.936-14.72c-1.032-4.112-1.8-7.872-2.656-13.008
		h-0.168c-0.768,5.216-1.624,9.072-2.736,13.008l-4.192,14.72H170l-12.16-41.84h13.256V215.92z"/>
	<path style="fill:#F00000;" d="M237.688,215.92l3.336,17.12c0.856,4.36,1.712,8.984,2.4,13.776h0.168
		c0.856-4.792,2.056-9.584,3.08-13.696l4.456-17.192h10.264l4.192,16.688c1.112,4.704,2.224,9.416,3.08,14.2h0.168
		c0.6-4.792,1.456-9.504,2.4-14.288l3.592-16.6h12.752l-12.832,41.84h-12.232l-3.936-14.72c-1.032-4.112-1.8-7.872-2.656-13.008
		h-0.168c-0.768,5.216-1.624,9.072-2.736,13.008l-4.192,14.72h-12.232l-12.16-41.84h13.256V215.92z"/>
	<path style="fill:#F00000;" d="M304.28,215.92l3.336,17.12c0.856,4.36,1.712,8.984,2.4,13.776h0.168
		c0.856-4.792,2.056-9.584,3.08-13.696l4.456-17.192h10.264l4.192,16.688c1.112,4.704,2.224,9.416,3.08,14.2h0.168
		c0.6-4.792,1.456-9.504,2.4-14.288l3.592-16.6h12.752l-12.832,41.84h-12.232l-3.936-14.72c-1.032-4.112-1.8-7.872-2.656-13.008
		h-0.168c-0.768,5.216-1.624,9.072-2.736,13.008l-4.192,14.72h-12.248l-12.16-41.84h13.272V215.92z"/>
</g>
<g>
	<path style="fill:#999999;" d="M171.096,274.76l3.336,17.12c0.856,4.36,1.712,8.984,2.4,13.776H177
		c0.856-4.792,2.056-9.584,3.08-13.688l4.456-17.2H194.8l4.192,16.688c1.112,4.704,2.224,9.416,3.08,14.2h0.168
		c0.6-4.792,1.456-9.504,2.4-14.288l3.592-16.6h12.752l-12.832,41.84H195.92l-3.936-14.72c-1.032-4.112-1.8-7.872-2.656-13.008
		h-0.168c-0.768,5.216-1.624,9.072-2.736,13.008l-4.192,14.72H170l-12.16-41.84h13.256V274.76z"/>
	<path style="fill:#999999;" d="M237.688,274.76l3.336,17.12c0.856,4.36,1.712,8.984,2.4,13.776h0.168
		c0.856-4.792,2.056-9.584,3.08-13.688l4.456-17.2h10.264l4.192,16.688c1.112,4.704,2.224,9.416,3.08,14.2h0.168
		c0.6-4.792,1.456-9.504,2.4-14.288l3.592-16.6h12.752l-12.832,41.84h-12.232l-3.936-14.72c-1.032-4.112-1.8-7.872-2.656-13.008
		h-0.168c-0.768,5.216-1.624,9.072-2.736,13.008l-4.192,14.72h-12.232l-12.16-41.84h13.256V274.76z"/>
	<path style="fill:#999999;" d="M304.28,274.76l3.336,17.12c0.856,4.36,1.712,8.984,2.4,13.776h0.168
		c0.856-4.792,2.056-9.584,3.08-13.688l4.456-17.2h10.264l4.192,16.688c1.112,4.704,2.224,9.416,3.08,14.2h0.168
		c0.6-4.792,1.456-9.504,2.4-14.288l3.592-16.6h12.752l-12.832,41.84h-12.232l-3.936-14.72c-1.032-4.112-1.8-7.872-2.656-13.008
		h-0.168c-0.768,5.216-1.624,9.072-2.736,13.008l-4.192,14.72h-12.248l-12.16-41.84h13.272V274.76z"/>
</g>
<g>
</g>
<g>
</g>
<g>
</g>
<g>
</g>
<g>
</g>
<g>
</g>
<g>
</g>
<g>
</g>
<g>
</g>
<g>
</g>
<g>
</g>
<g>
</g>
<g>
</g>
<g>
</g>
<g>
</g>
</svg>
